<svg fill="currentColor" xmlns="http://www.w3.org/2000/svg" shape-rendering="crispEdges" viewBox="0 0 27 29"><path d="M13 0h1v1h-1zm-1 1h1v1h-1zm1 0h1v1h-1zm1 0h1v1h-1zm-3 1h1v1h-1zm1 0h1v1h-1zm2 0h1v1h-1zm1 0h1v1h-1zm-5 1h1v1h-1zm1 0h1v1h-1zm4 0h1v1h-1zm1 0h1v1h-1zM9 4h1v1H9zm1 0h1v1h-1zm6 0h1v1h-1zm1 0h1v1h-1zM8 5h1v1H8zm1 0h1v1H9zm8 0h1v1h-1zm1 0h1v1h-1zM7 6h1v1H7zm1 0h1v1H8zm10 0h1v1h-1zm1 0h1v1h-1zM6 7h1v1H6zm1 0h1v1H7zm12 0h1v1h-1zm1 0h1v1h-1zM5 8h1v1H5zm1 0h1v1H6zm14 0h1v1h-1zm1 0h1v1h-1zM4 9h1v1H4zm1 0h1v1H5zm16 0h1v1h-1zm1 0h1v1h-1zM3 10h1v1H3zm1 0h1v1H4zm18 0h1v1h-1zm1 0h1v1h-1zM2 11h1v1H2zm1 0h1v1H3zm20 0h1v1h-1zm1 0h1v1h-1zM1 12h1v1H1zm1 0h1v1H2zm1 0h1v1H3zm1 0h1v1H4zm1 0h1v1H5zm1 0h1v1H6zm1 0h1v1H7zm1 0h1v1H8zm1 0h1v1H9zm8 0h1v1h-1zm1 0h1v1h-1zm1 0h1v1h-1zm1 0h1v1h-1zm1 0h1v1h-1zm1 0h1v1h-1zm1 0h1v1h-1zm1 0h1v1h-1zm1 0h1v1h-1zM0 13h1v1H0zm1 0h1v1H1zm1 0h1v1H2zm1 0h1v1H3zm1 0h1v1H4zm1 0h1v1H5zm1 0h1v1H6zm1 0h1v1H7zm1 0h1v1H8zm1 0h1v1H9zm8 0h1v1h-1zm1 0h1v1h-1zm1 0h1v1h-1zm1 0h1v1h-1zm1 0h1v1h-1zm1 0h1v1h-1zm1 0h1v1h-1zm1 0h1v1h-1zm1 0h1v1h-1zm1 0h1v1h-1zM8 14h1v1H8zm1 0h1v1H9zm8 0h1v1h-1zm1 0h1v1h-1zm2 0h1v1h-1zm2 0h1v1h-1zm2 0h1v1h-1zM8 15h1v1H8zm1 0h1v1H9zm8 0h1v1h-1zm1 0h1v1h-1zm1 0h1v1h-1zm2 0h1v1h-1zm2 0h1v1h-1zm2 0h1v1h-1zM8 16h1v1H8zm1 0h1v1H9zm8 0h1v1h-1zm1 0h1v1h-1zm2 0h1v1h-1zm2 0h1v1h-1zm2 0h1v1h-1zm2 0h1v1h-1zM8 17h1v1H8zm1 0h1v1H9zm8 0h1v1h-1zm1 0h1v1h-1zm1 0h1v1h-1zm2 0h1v1h-1zM8 18h1v1H8zm1 0h1v1H9zm8 0h1v1h-1zm1 0h1v1h-1zm2 0h1v1h-1zM8 19h1v1H8zm1 0h1v1H9zm8 0h1v1h-1zm1 0h1v1h-1zm1 0h1v1h-1zm2 0h1v1h-1zM8 20h1v1H8zm1 0h1v1H9zm8 0h1v1h-1zm1 0h1v1h-1zm2 0h1v1h-1zM8 21h1v1H8zm1 0h1v1H9zm8 0h1v1h-1zm1 0h1v1h-1zm1 0h1v1h-1zm2 0h1v1h-1zM8 22h1v1H8zm1 0h1v1H9zm8 0h1v1h-1zm1 0h1v1h-1zm2 0h1v1h-1zM8 23h1v1H8zm1 0h1v1H9zm1 0h1v1h-1zm1 0h1v1h-1zm1 0h1v1h-1zm1 0h1v1h-1zm1 0h1v1h-1zm1 0h1v1h-1zm1 0h1v1h-1zm1 0h1v1h-1zm1 0h1v1h-1zm1 0h1v1h-1zm2 0h1v1h-1zM8 24h1v1H8zm1 0h1v1H9zm1 0h1v1h-1zm1 0h1v1h-1zm1 0h1v1h-1zm1 0h1v1h-1zm1 0h1v1h-1zm1 0h1v1h-1zm1 0h1v1h-1zm1 0h1v1h-1zm1 0h1v1h-1zm2 0h1v1h-1zm-9 1h1v1h-1zm2 0h1v1h-1zm2 0h1v1h-1zm2 0h1v1h-1zm2 0h1v1h-1zm2 0h1v1h-1zm-9 1h1v1h-1zm2 0h1v1h-1zm2 0h1v1h-1zm2 0h1v1h-1zm2 0h1v1h-1zm-9 1h1v1h-1zm2 0h1v1h-1zm2 0h1v1h-1zm2 0h1v1h-1zm2 0h1v1h-1zm2 0h1v1h-1zm-9 1h1v1h-1zm2 0h1v1h-1zm2 0h1v1h-1zm2 0h1v1h-1zm2 0h1v1h-1z"/></svg>
