<svg xmlns="http://www.w3.org/2000/svg" shape-rendering="crispEdges" viewBox="0 0 33 33"><path fill="sienna" d="M19 0h1v1h-1z"/><path fill="#639BFF" d="M20 0h1v1h-1zm1 0h1v1h-1zm3 0h1v1h-1z"/><path fill="sienna" d="M19 1h1v1h-1z"/><path fill="#639BFF" d="M20 1h1v1h-1zm2 0h1v1h-1zm1 0h1v1h-1zm2 0h1v1h-1z"/><path fill="sienna" d="M19 2h1v1h-1z"/><path d="M5 3h1v1H5zm1 0h1v1H6zm1 0h1v1H7zm1 0h1v1H8zm1 0h1v1H9zm7 0h1v1h-1zm1 0h1v1h-1zm1 0h1v1h-1z"/><path fill="sienna" d="M19 3h1v1h-1z"/><path d="M20 3h1v1h-1zM5 4h1v1H5zm1 0h1v1H6z"/><path fill="#696A6A" d="M7 4h1v1H7zm1 0h1v1H8zm1 0h1v1H9z"/><path d="M10 4h1v1h-1zm6 0h1v1h-1zm1 0h1v1h-1z"/><path fill="#696A6A" d="M18 4h1v1h-1z"/><path fill="sienna" d="M19 4h1v1h-1z"/><path fill="#696A6A" d="M20 4h1v1h-1z"/><path d="M21 4h1v1h-1zM5 5h1v1H5zm1 0h1v1H6zm1 0h1v1H7zm1 0h1v1H8zm1 0h1v1H9zm1 0h1v1h-1zm1 0h1v1h-1zm5 0h1v1h-1zm1 0h1v1h-1zm1 0h1v1h-1zm1 0h1v1h-1zm1 0h1v1h-1zm1 0h1v1h-1zm1 0h1v1h-1zM5 6h1v1H5zm1 0h1v1H6zm1 0h1v1H7z"/><path fill="#696A6A" d="M8 6h1v1H8zm1 0h1v1H9zm1 0h1v1h-1z"/><path d="M11 6h1v1h-1zm5 0h1v1h-1zm1 0h1v1h-1zm1 0h1v1h-1z"/><path fill="#696A6A" d="M19 6h1v1h-1zm1 0h1v1h-1zm1 0h1v1h-1z"/><path d="M22 6h1v1h-1zM5 7h1v1H5zm1 0h1v1H6zm1 0h1v1H7z"/><path fill="#696A6A" d="M8 7h1v1H8z"/><path d="M9 7h1v1H9zm1 0h1v1h-1zm1 0h1v1h-1zm1 0h1v1h-1zm1 0h1v1h-1zm3 0h1v1h-1zm1 0h1v1h-1zm1 0h1v1h-1z"/><path fill="#696A6A" d="M19 7h1v1h-1z"/><path d="M20 7h1v1h-1zm1 0h1v1h-1zm1 0h1v1h-1zm1 0h1v1h-1zm1 0h1v1h-1zM5 8h1v1H5zm1 0h1v1H6zm1 0h1v1H7z"/><path fill="#696A6A" d="M8 8h1v1H8z"/><path d="M9 8h1v1H9zm1 0h1v1h-1z"/><path fill="#696A6A" d="M11 8h1v1h-1zm1 0h1v1h-1zm1 0h1v1h-1z"/><path d="M14 8h1v1h-1zm2 0h1v1h-1zm1 0h1v1h-1zm1 0h1v1h-1z"/><path fill="#696A6A" d="M19 8h1v1h-1z"/><path d="M20 8h1v1h-1zm1 0h1v1h-1z"/><path fill="#696A6A" d="M22 8h1v1h-1zm1 0h1v1h-1zm1 0h1v1h-1z"/><path d="M25 8h1v1h-1zM5 9h1v1H5zm1 0h1v1H6zm1 0h1v1H7z"/><path fill="#696A6A" d="M8 9h1v1H8z"/><path d="M9 9h1v1H9zm1 0h1v1h-1zm1 0h1v1h-1zm1 0h1v1h-1zm1 0h1v1h-1zm1 0h1v1h-1zm1 0h1v1h-1z"/><path fill="#595652" d="M16 9h1v1h-1z"/><path d="M17 9h1v1h-1zm1 0h1v1h-1z"/><path fill="#696A6A" d="M19 9h1v1h-1z"/><path d="M20 9h1v1h-1zm1 0h1v1h-1zm1 0h1v1h-1zm1 0h1v1h-1zm1 0h1v1h-1zm1 0h1v1h-1zm1 0h1v1h-1zM5 10h1v1H5zm1 0h1v1H6zm1 0h1v1H7z"/><path fill="#696A6A" d="M8 10h1v1H8z"/><path d="M9 10h1v1H9zm1 0h1v1h-1zm1 0h1v1h-1z"/><path fill="#696A6A" d="M12 10h1v1h-1zm1 0h1v1h-1zm1 0h1v1h-1z"/><path d="M15 10h1v1h-1z"/><path fill="#595652" d="M16 10h1v1h-1zm1 0h1v1h-1z"/><path d="M18 10h1v1h-1z"/><path fill="#696A6A" d="M19 10h1v1h-1z"/><path d="M20 10h1v1h-1zm1 0h1v1h-1zm1 0h1v1h-1z"/><path fill="#696A6A" d="M23 10h1v1h-1zm1 0h1v1h-1zm1 0h1v1h-1z"/><path d="M26 10h1v1h-1zM5 11h1v1H5zm1 0h1v1H6zm1 0h1v1H7zm1 0h1v1H8zm1 0h1v1H9zm1 0h1v1h-1zm1 0h1v1h-1z"/><path fill="#696A6A" d="M12 11h1v1h-1z"/><path d="M13 11h1v1h-1z"/><path fill="#696A6A" d="M14 11h1v1h-1z"/><path d="M15 11h1v1h-1z"/><path fill="#595652" d="M16 11h1v1h-1zm1 0h1v1h-1zm1 0h1v1h-1z"/><path fill="#696A6A" d="M19 11h1v1h-1z"/><path d="M20 11h1v1h-1zm1 0h1v1h-1zm1 0h1v1h-1z"/><path fill="#696A6A" d="M23 11h1v1h-1z"/><path d="M24 11h1v1h-1z"/><path fill="#696A6A" d="M25 11h1v1h-1z"/><path d="M26 11h1v1h-1zM5 12h1v1H5zm1 0h1v1H6zm1 0h1v1H7zm1 0h1v1H8zm1 0h1v1H9zm1 0h1v1h-1zm1 0h1v1h-1z"/><path fill="#696A6A" d="M12 12h1v1h-1z"/><path d="M13 12h1v1h-1z"/><path fill="#696A6A" d="M14 12h1v1h-1z"/><path d="M15 12h1v1h-1z"/><path fill="#595652" d="M16 12h1v1h-1zm1 0h1v1h-1zm1 0h1v1h-1z"/><path fill="#696A6A" d="M19 12h1v1h-1z"/><path d="M20 12h1v1h-1zm1 0h1v1h-1zm1 0h1v1h-1z"/><path fill="#696A6A" d="M23 12h1v1h-1z"/><path d="M24 12h1v1h-1z"/><path fill="#696A6A" d="M25 12h1v1h-1z"/><path d="M26 12h1v1h-1zM5 13h1v1H5zm1 0h1v1H6zm1 0h1v1H7zm1 0h1v1H8zm1 0h1v1H9zm1 0h1v1h-1zm1 0h1v1h-1z"/><path fill="#696A6A" d="M12 13h1v1h-1zm1 0h1v1h-1zm1 0h1v1h-1z"/><path d="M15 13h1v1h-1z"/><path fill="#595652" d="M16 13h1v1h-1z"/><path d="M17 13h1v1h-1z"/><path fill="#595652" d="M18 13h1v1h-1z"/><path d="M19 13h1v1h-1z"/><path fill="#595652" d="M20 13h1v1h-1z"/><path d="M21 13h1v1h-1zm1 0h1v1h-1z"/><path fill="#696A6A" d="M23 13h1v1h-1zm1 0h1v1h-1zm1 0h1v1h-1z"/><path d="M26 13h1v1h-1zM5 14h1v1H5zm1 0h1v1H6zm1 0h1v1H7zm1 0h1v1H8zm1 0h1v1H9zm1 0h1v1h-1zm1 0h1v1h-1z"/><path fill="#696A6A" d="M12 14h1v1h-1z"/><path d="M13 14h1v1h-1z"/><path fill="#696A6A" d="M14 14h1v1h-1z"/><path d="M15 14h1v1h-1zm1 0h1v1h-1zm1 0h1v1h-1zm1 0h1v1h-1zm1 0h1v1h-1zm1 0h1v1h-1zm1 0h1v1h-1zm1 0h1v1h-1z"/><path fill="#696A6A" d="M23 14h1v1h-1z"/><path d="M24 14h1v1h-1z"/><path fill="#696A6A" d="M25 14h1v1h-1z"/><path d="M26 14h1v1h-1zM5 15h1v1H5zm1 0h1v1H6zm1 0h1v1H7zm1 0h1v1H8zm1 0h1v1H9zm1 0h1v1h-1zm1 0h1v1h-1z"/><path fill="#696A6A" d="M12 15h1v1h-1z"/><path d="M13 15h1v1h-1z"/><path fill="#696A6A" d="M14 15h1v1h-1zm1 0h1v1h-1zm1 0h1v1h-1zm1 0h1v1h-1zm1 0h1v1h-1zm1 0h1v1h-1zm1 0h1v1h-1zm1 0h1v1h-1zm1 0h1v1h-1zm1 0h1v1h-1z"/><path d="M24 15h1v1h-1z"/><path fill="#696A6A" d="M25 15h1v1h-1z"/><path d="M26 15h1v1h-1zm1 0h1v1h-1zM5 16h1v1H5zm1 0h1v1H6zm1 0h1v1H7zm1 0h1v1H8zm1 0h1v1H9zm1 0h1v1h-1zm1 0h1v1h-1z"/><path fill="#696A6A" d="M12 16h1v1h-1zm1 0h1v1h-1zm1 0h1v1h-1zm1 0h1v1h-1zm1 0h1v1h-1z"/><path d="M17 16h1v1h-1z"/><path fill="#696A6A" d="M18 16h1v1h-1z"/><path d="M19 16h1v1h-1z"/><path fill="#696A6A" d="M20 16h1v1h-1z"/><path d="M21 16h1v1h-1z"/><path fill="#696A6A" d="M22 16h1v1h-1zm1 0h1v1h-1zm1 0h1v1h-1zm1 0h1v1h-1z"/><path d="M26 16h1v1h-1z"/><path fill="#2E8B57" d="M27 16h1v1h-1z"/><path d="M28 16h1v1h-1zm1 0h1v1h-1zM5 17h1v1H5zm1 0h1v1H6zm1 0h1v1H7zm1 0h1v1H8zm1 0h1v1H9zm1 0h1v1h-1zm1 0h1v1h-1z"/><path fill="#696A6A" d="M12 17h1v1h-1zm1 0h1v1h-1zm1 0h1v1h-1zm1 0h1v1h-1zm1 0h1v1h-1zm1 0h1v1h-1zm1 0h1v1h-1zm1 0h1v1h-1zm1 0h1v1h-1zm1 0h1v1h-1zm1 0h1v1h-1zm1 0h1v1h-1zm1 0h1v1h-1zm1 0h1v1h-1z"/><path d="M26 17h1v1h-1z"/><path fill="#2E8B57" d="M27 17h1v1h-1zm1 0h1v1h-1zm1 0h1v1h-1z"/><path d="M30 17h1v1h-1zm1 0h1v1h-1zM5 18h1v1H5zm1 0h1v1H6zm1 0h1v1H7zm1 0h1v1H8zm1 0h1v1H9zm1 0h1v1h-1zm1 0h1v1h-1z"/><path fill="#696A6A" d="M12 18h1v1h-1zm1 0h1v1h-1zm1 0h1v1h-1zm1 0h1v1h-1zm1 0h1v1h-1zm1 0h1v1h-1zm1 0h1v1h-1zm1 0h1v1h-1zm1 0h1v1h-1zm1 0h1v1h-1zm1 0h1v1h-1zm1 0h1v1h-1zm1 0h1v1h-1zm1 0h1v1h-1z"/><path d="M26 18h1v1h-1z"/><path fill="#2E8B57" d="M27 18h1v1h-1zm1 0h1v1h-1zm1 0h1v1h-1zm1 0h1v1h-1zm1 0h1v1h-1z"/><path d="M32 18h1v1h-1zM6 19h1v1H6zm1 0h1v1H7zm1 0h1v1H8zm1 0h1v1H9zm1 0h1v1h-1zm1 0h1v1h-1z"/><path fill="#696A6A" d="M12 19h1v1h-1zm1 0h1v1h-1zm1 0h1v1h-1zm1 0h1v1h-1zm1 0h1v1h-1z"/><path d="M17 19h1v1h-1zm1 0h1v1h-1zm1 0h1v1h-1zm1 0h1v1h-1zm1 0h1v1h-1z"/><path fill="#696A6A" d="M22 19h1v1h-1zm1 0h1v1h-1zm1 0h1v1h-1zm1 0h1v1h-1z"/><path d="M26 19h1v1h-1z"/><path fill="#2E8B57" d="M27 19h1v1h-1zm1 0h1v1h-1zm1 0h1v1h-1z"/><path d="M30 19h1v1h-1zm1 0h1v1h-1zM5 20h1v1H5zm1 0h1v1H6zm1 0h1v1H7zm1 0h1v1H8zm1 0h1v1H9zm1 0h1v1h-1zm1 0h1v1h-1z"/><path fill="#696A6A" d="M12 20h1v1h-1zm1 0h1v1h-1zm1 0h1v1h-1zm1 0h1v1h-1zm1 0h1v1h-1z"/><path d="M17 20h1v1h-1z"/><path fill="#663931" d="M18 20h1v1h-1zm1 0h1v1h-1zm1 0h1v1h-1z"/><path d="M21 20h1v1h-1z"/><path fill="#696A6A" d="M22 20h1v1h-1zm1 0h1v1h-1zm1 0h1v1h-1zm1 0h1v1h-1z"/><path d="M26 20h1v1h-1z"/><path fill="#2E8B57" d="M27 20h1v1h-1z"/><path d="M28 20h1v1h-1zm1 0h1v1h-1zM3 21h1v1H3zm1 0h1v1H4z"/><path fill="#2F4F4F" d="M5 21h1v1H5zm1 0h1v1H6zm1 0h1v1H7z"/><path d="M8 21h1v1H8zm1 0h1v1H9zm1 0h1v1h-1zm1 0h1v1h-1z"/><path fill="#696A6A" d="M12 21h1v1h-1zm1 0h1v1h-1zm1 0h1v1h-1zm1 0h1v1h-1zm1 0h1v1h-1z"/><path d="M17 21h1v1h-1z"/><path fill="#663931" d="M18 21h1v1h-1z"/><path d="M19 21h1v1h-1z"/><path fill="#663931" d="M20 21h1v1h-1z"/><path d="M21 21h1v1h-1z"/><path fill="#696A6A" d="M22 21h1v1h-1zm1 0h1v1h-1zm1 0h1v1h-1zm1 0h1v1h-1z"/><path d="M26 21h1v1h-1zm1 0h1v1h-1z"/><path fill="#708090" d="M28 21h1v1h-1z"/><path d="M1 22h1v1H1zm1 0h1v1H2z"/><path fill="#2F4F4F" d="M3 22h1v1H3zm1 0h1v1H4zm1 0h1v1H5zm1 0h1v1H6zm1 0h1v1H7zm1 0h1v1H8z"/><path d="M9 22h1v1H9zm1 0h1v1h-1zm1 0h1v1h-1z"/><path fill="#696A6A" d="M12 22h1v1h-1zm1 0h1v1h-1zm1 0h1v1h-1zm1 0h1v1h-1zm1 0h1v1h-1z"/><path d="M17 22h1v1h-1z"/><path fill="#663931" d="M18 22h1v1h-1zm1 0h1v1h-1zm1 0h1v1h-1z"/><path d="M21 22h1v1h-1z"/><path fill="#696A6A" d="M22 22h1v1h-1zm1 0h1v1h-1zm1 0h1v1h-1zm1 0h1v1h-1z"/><path d="M26 22h1v1h-1z"/><path fill="#708090" d="M27 22h1v1h-1zm1 0h1v1h-1zm1 0h1v1h-1zm1 0h1v1h-1z"/><path d="M0 23h1v1H0z"/><path fill="#2E8B57" d="M1 23h1v1H1zm1 0h1v1H2z"/><path fill="#2F4F4F" d="M3 23h1v1H3zm1 0h1v1H4zm1 0h1v1H5zm1 0h1v1H6zm1 0h1v1H7zm1 0h1v1H8zm1 0h1v1H9z"/><path d="M10 23h1v1h-1zm1 0h1v1h-1z"/><path fill="#696A6A" d="M12 23h1v1h-1zm1 0h1v1h-1zm1 0h1v1h-1zm1 0h1v1h-1zm1 0h1v1h-1z"/><path d="M17 23h1v1h-1zm1 0h1v1h-1zm1 0h1v1h-1zm1 0h1v1h-1zm1 0h1v1h-1z"/><path fill="#696A6A" d="M22 23h1v1h-1zm1 0h1v1h-1zm1 0h1v1h-1zm1 0h1v1h-1z"/><path d="M26 23h1v1h-1z"/><path fill="#708090" d="M27 23h1v1h-1zm1 0h1v1h-1z"/><path d="M0 24h1v1H0zm1 0h1v1H1z"/><path fill="#2E8B57" d="M2 24h1v1H2zm1 0h1v1H3zm1 0h1v1H4zm1 0h1v1H5zm1 0h1v1H6z"/><path fill="#2F4F4F" d="M7 24h1v1H7zm1 0h1v1H8zm1 0h1v1H9zm1 0h1v1h-1z"/><path d="M11 24h1v1h-1zm1 0h1v1h-1zm1 0h1v1h-1zm1 0h1v1h-1zm1 0h1v1h-1zm1 0h1v1h-1zm1 0h1v1h-1z"/><path fill="#2E8B57" d="M18 24h1v1h-1zm1 0h1v1h-1z"/><path d="M20 24h1v1h-1zm1 0h1v1h-1zm1 0h1v1h-1zm1 0h1v1h-1zm1 0h1v1h-1zm1 0h1v1h-1zm1 0h1v1h-1zM2 25h1v1H2zm1 0h1v1H3z"/><path fill="#2E8B57" d="M4 25h1v1H4zm1 0h1v1H5zm1 0h1v1H6zm1 0h1v1H7zm1 0h1v1H8zm1 0h1v1H9zm1 0h1v1h-1zm1 0h1v1h-1zm1 0h1v1h-1zm1 0h1v1h-1zm1 0h1v1h-1zm1 0h1v1h-1zm1 0h1v1h-1zm1 0h1v1h-1z"/><path d="M18 25h1v1h-1zm1 0h1v1h-1z"/><path fill="#708090" d="M20 25h1v1h-1zm1 0h1v1h-1zm1 0h1v1h-1zm1 0h1v1h-1zm1 0h1v1h-1zM1 26h1v1H1zm1 0h1v1H2zm1 0h1v1H3z"/><path d="M4 26h1v1H4zm1 0h1v1H5z"/><path fill="#2E8B57" d="M6 26h1v1H6zm1 0h1v1H7zm1 0h1v1H8zm1 0h1v1H9zm1 0h1v1h-1zm1 0h1v1h-1zm1 0h1v1h-1zm1 0h1v1h-1zm1 0h1v1h-1zm1 0h1v1h-1z"/><path d="M16 26h1v1h-1zm1 0h1v1h-1z"/><path fill="#708090" d="M18 26h1v1h-1zm1 0h1v1h-1zm1 0h1v1h-1zm1 0h1v1h-1zm1 0h1v1h-1zM0 27h1v1H0zm1 0h1v1H1zm1 0h1v1H2zm1 0h1v1H3zm1 0h1v1H4zm1 0h1v1H5z"/><path d="M6 27h1v1H6zm1 0h1v1H7z"/><path fill="#2E8B57" d="M8 27h1v1H8zm1 0h1v1H9zm1 0h1v1h-1zm1 0h1v1h-1zm1 0h1v1h-1zm1 0h1v1h-1z"/><path d="M14 27h1v1h-1zm1 0h1v1h-1z"/><path fill="#708090" d="M16 27h1v1h-1zm1 0h1v1h-1zm1 0h1v1h-1zm1 0h1v1h-1zm1 0h1v1h-1zM1 28h1v1H1zm1 0h1v1H2zm1 0h1v1H3zm1 0h1v1H4zm1 0h1v1H5zm1 0h1v1H6zm1 0h1v1H7z"/><path d="M8 28h1v1H8zm1 0h1v1H9z"/><path fill="#2E8B57" d="M10 28h1v1h-1zm1 0h1v1h-1z"/><path d="M12 28h1v1h-1zm1 0h1v1h-1z"/><path fill="#708090" d="M14 28h1v1h-1zm1 0h1v1h-1zm1 0h1v1h-1zm1 0h1v1h-1zm1 0h1v1h-1zM3 29h1v1H3zm1 0h1v1H4zm1 0h1v1H5zm1 0h1v1H6zm1 0h1v1H7zm1 0h1v1H8zm1 0h1v1H9z"/><path d="M10 29h1v1h-1zm1 0h1v1h-1z"/><path fill="#708090" d="M12 29h1v1h-1zm1 0h1v1h-1zm1 0h1v1h-1zm1 0h1v1h-1zm1 0h1v1h-1zM5 30h1v1H5zm1 0h1v1H6zm1 0h1v1H7zm1 0h1v1H8zm1 0h1v1H9zm1 0h1v1h-1zm1 0h1v1h-1zm1 0h1v1h-1zm1 0h1v1h-1zm1 0h1v1h-1zm-7 1h1v1H7zm1 0h1v1H8zm1 0h1v1H9zm1 0h1v1h-1zm1 0h1v1h-1zm1 0h1v1h-1zm-3 1h1v1H9zm1 0h1v1h-1z"/></svg>
