<svg xmlns="http://www.w3.org/2000/svg" shape-rendering="crispEdges" viewBox="0 0 33 38"><path d="M13 0h1v1h-1zm1 0h1v1h-1z"/><path fill="#B22222" d="M15 0h1v1h-1z"/><path d="M16 0h1v1h-1z"/><path fill="#B22222" d="M17 0h1v1h-1z"/><path d="M18 0h1v1h-1z"/><path fill="#B22222" d="M19 0h1v1h-1z"/><path fill="#2F4F4F" d="M20 0h1v1h-1z"/><path d="M11 1h1v1h-1zm1 0h1v1h-1z"/><path fill="#B22222" d="M13 1h1v1h-1z"/><path d="M14 1h1v1h-1zm1 0h1v1h-1zm1 0h1v1h-1z"/><path fill="#2F4F4F" d="M17 1h1v1h-1zm1 0h1v1h-1z"/><path d="M19 1h1v1h-1z"/><path fill="#B22222" d="M20 1h1v1h-1z"/><path d="M21 1h1v1h-1z"/><path fill="#B22222" d="M22 1h1v1h-1z"/><path fill="#2F4F4F" d="M23 1h1v1h-1zm1 0h1v1h-1z"/><path d="M10 2h1v1h-1z"/><path fill="#B22222" d="M11 2h1v1h-1z"/><path d="M12 2h1v1h-1zm1 0h1v1h-1zm1 0h1v1h-1z"/><path fill="#B22222" d="M15 2h1v1h-1z"/><path d="M16 2h1v1h-1z"/><path fill="#B22222" d="M17 2h1v1h-1z"/><path fill="#2F4F4F" d="M18 2h1v1h-1z"/><path fill="#B22222" d="M19 2h1v1h-1zm1 0h1v1h-1zm1 0h1v1h-1z"/><path d="M22 2h1v1h-1z"/><path fill="#B22222" d="M23 2h1v1h-1z"/><path d="M24 2h1v1h-1z"/><path fill="#B22222" d="M25 2h1v1h-1z"/><path d="M26 2h1v1h-1zM9 3h1v1H9z"/><path fill="#B22222" d="M10 3h1v1h-1z"/><path d="M11 3h1v1h-1zm1 0h1v1h-1z"/><path fill="#B22222" d="M13 3h1v1h-1z"/><path d="M14 3h1v1h-1zm1 0h1v1h-1zm1 0h1v1h-1z"/><path fill="#B22222" d="M17 3h1v1h-1zm1 0h1v1h-1zm1 0h1v1h-1zm1 0h1v1h-1zm1 0h1v1h-1zm1 0h1v1h-1zm1 0h1v1h-1zm1 0h1v1h-1zm1 0h1v1h-1zm1 0h1v1h-1z"/><path d="M27 3h1v1h-1zM8 4h1v1H8z"/><path fill="#B22222" d="M9 4h1v1H9z"/><path d="M10 4h1v1h-1zm1 0h1v1h-1z"/><path fill="#B22222" d="M12 4h1v1h-1z"/><path d="M13 4h1v1h-1zm1 0h1v1h-1z"/><path fill="#B22222" d="M15 4h1v1h-1zm1 0h1v1h-1zm1 0h1v1h-1zm1 0h1v1h-1zm1 0h1v1h-1zm1 0h1v1h-1zm1 0h1v1h-1zm1 0h1v1h-1zm1 0h1v1h-1zm1 0h1v1h-1zm1 0h1v1h-1zm1 0h1v1h-1z"/><path d="M27 4h1v1h-1zm1 0h1v1h-1zM7 5h1v1H7z"/><path fill="#B22222" d="M8 5h1v1H8z"/><path d="M9 5h1v1H9zm1 0h1v1h-1z"/><path fill="#B22222" d="M11 5h1v1h-1z"/><path d="M12 5h1v1h-1zm1 0h1v1h-1z"/><path fill="#B22222" d="M14 5h1v1h-1zm1 0h1v1h-1zm1 0h1v1h-1zm1 0h1v1h-1zm1 0h1v1h-1zm1 0h1v1h-1zm1 0h1v1h-1zm1 0h1v1h-1zm1 0h1v1h-1zm1 0h1v1h-1zm1 0h1v1h-1zm1 0h1v1h-1zm1 0h1v1h-1zm1 0h1v1h-1z"/><path d="M28 5h1v1h-1zM5 6h1v1H5zm1 0h1v1H6z"/><path fill="#B22222" d="M7 6h1v1H7z"/><path d="M8 6h1v1H8zm1 0h1v1H9zm1 0h1v1h-1zm1 0h1v1h-1zm1 0h1v1h-1z"/><path fill="#B22222" d="M13 6h1v1h-1zm1 0h1v1h-1zm1 0h1v1h-1zm1 0h1v1h-1zm1 0h1v1h-1zm1 0h1v1h-1zm1 0h1v1h-1zm1 0h1v1h-1zm1 0h1v1h-1zm1 0h1v1h-1z"/><path d="M23 6h1v1h-1z"/><path fill="#B22222" d="M24 6h1v1h-1zm1 0h1v1h-1zm1 0h1v1h-1zm1 0h1v1h-1z"/><path d="M28 6h1v1h-1z"/><path fill="#B22222" d="M3 7h1v1H3z"/><path d="M4 7h1v1H4z"/><path fill="#B22222" d="M5 7h1v1H5zm1 0h1v1H6z"/><path d="M7 7h1v1H7z"/><path fill="#B22222" d="M8 7h1v1H8z"/><path d="M9 7h1v1H9z"/><path fill="#B22222" d="M10 7h1v1h-1z"/><path fill="#2F4F4F" d="M11 7h1v1h-1z"/><path fill="#B22222" d="M12 7h1v1h-1zm1 0h1v1h-1zm1 0h1v1h-1zm1 0h1v1h-1zm1 0h1v1h-1zm1 0h1v1h-1zm1 0h1v1h-1zm1 0h1v1h-1zm1 0h1v1h-1z"/><path d="M21 7h1v1h-1zm1 0h1v1h-1zm1 0h1v1h-1zm1 0h1v1h-1z"/><path fill="#B22222" d="M25 7h1v1h-1zm1 0h1v1h-1zm1 0h1v1h-1z"/><path d="M2 8h1v1H2zm1 0h1v1H3zm1 0h1v1H4zm1 0h1v1H5zm1 0h1v1H6z"/><path fill="#B22222" d="M7 8h1v1H7zm1 0h1v1H8zm1 0h1v1H9zm1 0h1v1h-1zm1 0h1v1h-1zm1 0h1v1h-1zm1 0h1v1h-1zm1 0h1v1h-1zm1 0h1v1h-1zm1 0h1v1h-1zm1 0h1v1h-1zm1 0h1v1h-1zm1 0h1v1h-1zm1 0h1v1h-1z"/><path d="M21 8h1v1h-1zm3 0h1v1h-1zm1 0h1v1h-1zm1 0h1v1h-1zm1 0h1v1h-1zM2 9h1v1H2zm1 0h1v1H3zm1 0h1v1H4zm1 0h1v1H5zm1 0h1v1H6zm1 0h1v1H7z"/><path fill="#B22222" d="M8 9h1v1H8zm1 0h1v1H9zm1 0h1v1h-1zm1 0h1v1h-1zm1 0h1v1h-1zm1 0h1v1h-1zm1 0h1v1h-1zm1 0h1v1h-1zm1 0h1v1h-1zm1 0h1v1h-1zm1 0h1v1h-1zm1 0h1v1h-1z"/><path d="M20 9h1v1h-1zM2 10h1v1H2zm1 0h1v1H3zm1 0h1v1H4zm1 0h1v1H5zm1 0h1v1H6zm1 0h1v1H7zm1 0h1v1H8z"/><path fill="#B22222" d="M9 10h1v1H9zm1 0h1v1h-1zm1 0h1v1h-1zm1 0h1v1h-1zm1 0h1v1h-1zm1 0h1v1h-1zm1 0h1v1h-1zm1 0h1v1h-1zm1 0h1v1h-1zm1 0h1v1h-1zm1 0h1v1h-1z"/><path d="M20 10h1v1h-1zM2 11h1v1H2zm1 0h1v1H3zm1 0h1v1H4zm1 0h1v1H5zm1 0h1v1H6zm1 0h1v1H7zm1 0h1v1H8z"/><path fill="#B22222" d="M9 11h1v1H9zm1 0h1v1h-1zm1 0h1v1h-1zm1 0h1v1h-1zm1 0h1v1h-1zm1 0h1v1h-1zm1 0h1v1h-1zm1 0h1v1h-1zm1 0h1v1h-1zm1 0h1v1h-1zm1 0h1v1h-1z"/><path fill="#2F4F4F" d="M20 11h1v1h-1z"/><path d="M2 12h1v1H2zm1 0h1v1H3zm1 0h1v1H4zm1 0h1v1H5zm1 0h1v1H6zm1 0h1v1H7zm1 0h1v1H8z"/><path fill="#B22222" d="M9 12h1v1H9zm1 0h1v1h-1zm1 0h1v1h-1z"/><path d="M12 12h1v1h-1z"/><path fill="#B22222" d="M13 12h1v1h-1zm1 0h1v1h-1zm1 0h1v1h-1zm1 0h1v1h-1zm1 0h1v1h-1zm1 0h1v1h-1z"/><path d="M19 12h1v1h-1z"/><path fill="#2F4F4F" d="M20 12h1v1h-1z"/><path d="M3 13h1v1H3zm1 0h1v1H4zm1 0h1v1H5zm1 0h1v1H6zm1 0h1v1H7zm1 0h1v1H8z"/><path fill="#B22222" d="M9 13h1v1H9zm1 0h1v1h-1z"/><path d="M11 13h1v1h-1zm1 0h1v1h-1zm1 0h1v1h-1zm1 0h1v1h-1z"/><path fill="#B22222" d="M15 13h1v1h-1zm1 0h1v1h-1z"/><path d="M17 13h1v1h-1zm1 0h1v1h-1z"/><path fill="#708090" d="M19 13h1v1h-1z"/><path fill="#2F4F4F" d="M20 13h1v1h-1z"/><path d="M5 14h1v1H5zm1 0h1v1H6zm1 0h1v1H7z"/><path fill="#B22222" d="M8 14h1v1H8zm1 0h1v1H9z"/><path d="M13 14h1v1h-1zm1 0h1v1h-1zm1 0h1v1h-1zm1 0h1v1h-1z"/><path fill="#2F4F4F" d="M17 14h1v1h-1zm1 0h1v1h-1z"/><path fill="#708090" d="M19 14h1v1h-1z"/><path fill="#2F4F4F" d="M20 14h1v1h-1z"/><path d="M13 15h1v1h-1z"/><path fill="#2F4F4F" d="M14 15h1v1h-1zm1 0h1v1h-1zm1 0h1v1h-1zm1 0h1v1h-1zm1 0h1v1h-1z"/><path fill="#708090" d="M19 15h1v1h-1z"/><path fill="#2F4F4F" d="M20 15h1v1h-1z"/><path d="M13 16h1v1h-1z"/><path fill="#2F4F4F" d="M14 16h1v1h-1zm1 0h1v1h-1zm1 0h1v1h-1zm1 0h1v1h-1zm1 0h1v1h-1z"/><path fill="#708090" d="M19 16h1v1h-1z"/><path fill="#2F4F4F" d="M20 16h1v1h-1z"/><path d="M13 17h1v1h-1z"/><path fill="#2F4F4F" d="M14 17h1v1h-1zm1 0h1v1h-1zm1 0h1v1h-1zm1 0h1v1h-1zm1 0h1v1h-1z"/><path fill="#708090" d="M19 17h1v1h-1z"/><path fill="#2F4F4F" d="M20 17h1v1h-1z"/><path d="M21 17h1v1h-1zm-8 1h1v1h-1z"/><path fill="#2F4F4F" d="M14 18h1v1h-1zm1 0h1v1h-1zm1 0h1v1h-1zm1 0h1v1h-1zm1 0h1v1h-1z"/><path fill="#708090" d="M19 18h1v1h-1z"/><path fill="#2F4F4F" d="M20 18h1v1h-1z"/><path fill="#2E8B57" d="M21 18h1v1h-1z"/><path d="M22 18h1v1h-1zm1 0h1v1h-1zm-10 1h1v1h-1z"/><path fill="#2F4F4F" d="M14 19h1v1h-1zm1 0h1v1h-1zm1 0h1v1h-1zm1 0h1v1h-1zm1 0h1v1h-1z"/><path fill="#708090" d="M19 19h1v1h-1z"/><path fill="#2F4F4F" d="M20 19h1v1h-1z"/><path fill="#2E8B57" d="M21 19h1v1h-1zm1 0h1v1h-1zm1 0h1v1h-1z"/><path d="M24 19h1v1h-1zm1 0h1v1h-1zm-12 1h1v1h-1z"/><path fill="#2F4F4F" d="M14 20h1v1h-1zm1 0h1v1h-1zm1 0h1v1h-1zm1 0h1v1h-1zm1 0h1v1h-1z"/><path fill="#708090" d="M19 20h1v1h-1z"/><path fill="#2F4F4F" d="M20 20h1v1h-1z"/><path fill="#2E8B57" d="M21 20h1v1h-1zm1 0h1v1h-1zm1 0h1v1h-1zm1 0h1v1h-1zm1 0h1v1h-1z"/><path d="M26 20h1v1h-1zm1 0h1v1h-1zm-14 1h1v1h-1z"/><path fill="#2F4F4F" d="M14 21h1v1h-1zm1 0h1v1h-1zm1 0h1v1h-1zm1 0h1v1h-1zm1 0h1v1h-1z"/><path fill="#708090" d="M19 21h1v1h-1z"/><path fill="#2F4F4F" d="M20 21h1v1h-1z"/><path fill="#2E8B57" d="M21 21h1v1h-1zm1 0h1v1h-1zm1 0h1v1h-1zm1 0h1v1h-1zm1 0h1v1h-1zm1 0h1v1h-1zm1 0h1v1h-1z"/><path d="M28 21h1v1h-1zm1 0h1v1h-1zm-18 1h1v1h-1zm1 0h1v1h-1zm1 0h1v1h-1z"/><path fill="#2F4F4F" d="M14 22h1v1h-1zm1 0h1v1h-1zm1 0h1v1h-1zm1 0h1v1h-1zm1 0h1v1h-1z"/><path fill="#708090" d="M19 22h1v1h-1z"/><path fill="#2F4F4F" d="M20 22h1v1h-1z"/><path fill="#2E8B57" d="M21 22h1v1h-1zm1 0h1v1h-1zm1 0h1v1h-1zm1 0h1v1h-1zm1 0h1v1h-1zm1 0h1v1h-1zm1 0h1v1h-1zm1 0h1v1h-1zm1 0h1v1h-1z"/><path d="M30 22h1v1h-1zm1 0h1v1h-1zM9 23h1v1H9zm1 0h1v1h-1z"/><path fill="#2F4F4F" d="M11 23h1v1h-1zm1 0h1v1h-1z"/><path d="M13 23h1v1h-1z"/><path fill="#2F4F4F" d="M14 23h1v1h-1zm1 0h1v1h-1zm1 0h1v1h-1zm1 0h1v1h-1zm1 0h1v1h-1z"/><path fill="#708090" d="M19 23h1v1h-1z"/><path fill="#2F4F4F" d="M20 23h1v1h-1z"/><path fill="#2E8B57" d="M21 23h1v1h-1zm1 0h1v1h-1zm1 0h1v1h-1zm1 0h1v1h-1zm1 0h1v1h-1zm1 0h1v1h-1zm1 0h1v1h-1zm1 0h1v1h-1zm1 0h1v1h-1zm1 0h1v1h-1zm1 0h1v1h-1z"/><path d="M32 23h1v1h-1zM7 24h1v1H7zm1 0h1v1H8z"/><path fill="#2F4F4F" d="M9 24h1v1H9zm1 0h1v1h-1zm1 0h1v1h-1zm1 0h1v1h-1z"/><path d="M13 24h1v1h-1z"/><path fill="#2F4F4F" d="M14 24h1v1h-1zm1 0h1v1h-1zm1 0h1v1h-1zm1 0h1v1h-1zm1 0h1v1h-1z"/><path fill="#708090" d="M19 24h1v1h-1z"/><path fill="#2F4F4F" d="M20 24h1v1h-1z"/><path fill="#2E8B57" d="M21 24h1v1h-1zm1 0h1v1h-1zm1 0h1v1h-1zm1 0h1v1h-1zm1 0h1v1h-1zm1 0h1v1h-1zm1 0h1v1h-1zm1 0h1v1h-1zm1 0h1v1h-1z"/><path d="M30 24h1v1h-1zm1 0h1v1h-1zM5 25h1v1H5zm1 0h1v1H6z"/><path fill="#2E8B57" d="M7 25h1v1H7zm1 0h1v1H8zm1 0h1v1H9z"/><path fill="#2F4F4F" d="M10 25h1v1h-1zm1 0h1v1h-1zm1 0h1v1h-1z"/><path d="M13 25h1v1h-1z"/><path fill="#2F4F4F" d="M14 25h1v1h-1zm1 0h1v1h-1zm1 0h1v1h-1zm1 0h1v1h-1zm1 0h1v1h-1z"/><path fill="#708090" d="M19 25h1v1h-1z"/><path fill="#2F4F4F" d="M20 25h1v1h-1z"/><path fill="#2E8B57" d="M21 25h1v1h-1zm1 0h1v1h-1zm1 0h1v1h-1zm1 0h1v1h-1zm1 0h1v1h-1zm1 0h1v1h-1zm1 0h1v1h-1z"/><path d="M28 25h1v1h-1zm1 0h1v1h-1zM3 26h1v1H3zm1 0h1v1H4z"/><path fill="#2E8B57" d="M5 26h1v1H5zm1 0h1v1H6zm1 0h1v1H7zm1 0h1v1H8zm1 0h1v1H9zm1 0h1v1h-1zm1 0h1v1h-1z"/><path fill="#2F4F4F" d="M12 26h1v1h-1z"/><path d="M13 26h1v1h-1z"/><path fill="#2F4F4F" d="M14 26h1v1h-1zm1 0h1v1h-1zm1 0h1v1h-1zm1 0h1v1h-1zm1 0h1v1h-1z"/><path fill="#708090" d="M19 26h1v1h-1z"/><path fill="#2E8B57" d="M20 26h1v1h-1zm1 0h1v1h-1zm1 0h1v1h-1zm1 0h1v1h-1zm1 0h1v1h-1zm1 0h1v1h-1z"/><path d="M26 26h1v1h-1zm1 0h1v1h-1z"/><path fill="#708090" d="M28 26h1v1h-1z"/><path d="M1 27h1v1H1zm1 0h1v1H2z"/><path fill="#2E8B57" d="M3 27h1v1H3zm1 0h1v1H4zm1 0h1v1H5zm1 0h1v1H6zm1 0h1v1H7zm1 0h1v1H8zm1 0h1v1H9zm1 0h1v1h-1zm1 0h1v1h-1zm1 0h1v1h-1zm1 0h1v1h-1zm1 0h1v1h-1z"/><path fill="#2F4F4F" d="M15 27h1v1h-1zm1 0h1v1h-1zm1 0h1v1h-1z"/><path fill="#2E8B57" d="M18 27h1v1h-1zm1 0h1v1h-1zm1 0h1v1h-1zm1 0h1v1h-1zm1 0h1v1h-1zm1 0h1v1h-1z"/><path d="M24 27h1v1h-1zm1 0h1v1h-1z"/><path fill="#708090" d="M26 27h1v1h-1zm1 0h1v1h-1zm1 0h1v1h-1zm1 0h1v1h-1zm1 0h1v1h-1z"/><path d="M0 28h1v1H0z"/><path fill="#2E8B57" d="M1 28h1v1H1zm1 0h1v1H2zm1 0h1v1H3zm1 0h1v1H4zm1 0h1v1H5zm1 0h1v1H6zm1 0h1v1H7zm1 0h1v1H8zm1 0h1v1H9zm1 0h1v1h-1zm1 0h1v1h-1zm1 0h1v1h-1zm1 0h1v1h-1zm1 0h1v1h-1zm1 0h1v1h-1zm1 0h1v1h-1zm1 0h1v1h-1zm1 0h1v1h-1zm1 0h1v1h-1zm1 0h1v1h-1zm1 0h1v1h-1z"/><path d="M22 28h1v1h-1zm1 0h1v1h-1z"/><path fill="#708090" d="M24 28h1v1h-1zm1 0h1v1h-1zm1 0h1v1h-1zm1 0h1v1h-1zm1 0h1v1h-1z"/><path d="M0 29h1v1H0zm1 0h1v1H1z"/><path fill="#2E8B57" d="M2 29h1v1H2zm1 0h1v1H3zm1 0h1v1H4zm1 0h1v1H5zm1 0h1v1H6zm1 0h1v1H7zm1 0h1v1H8zm1 0h1v1H9zm1 0h1v1h-1zm1 0h1v1h-1zm1 0h1v1h-1zm1 0h1v1h-1zm1 0h1v1h-1zm1 0h1v1h-1zm1 0h1v1h-1zm1 0h1v1h-1zm1 0h1v1h-1zm1 0h1v1h-1z"/><path d="M20 29h1v1h-1zm1 0h1v1h-1z"/><path fill="#708090" d="M22 29h1v1h-1zm1 0h1v1h-1zm1 0h1v1h-1zm1 0h1v1h-1zm1 0h1v1h-1z"/><path d="M2 30h1v1H2zm1 0h1v1H3z"/><path fill="#2E8B57" d="M4 30h1v1H4zm1 0h1v1H5zm1 0h1v1H6zm1 0h1v1H7zm1 0h1v1H8zm1 0h1v1H9zm1 0h1v1h-1zm1 0h1v1h-1zm1 0h1v1h-1zm1 0h1v1h-1zm1 0h1v1h-1zm1 0h1v1h-1zm1 0h1v1h-1zm1 0h1v1h-1z"/><path d="M18 30h1v1h-1zm1 0h1v1h-1z"/><path fill="#708090" d="M20 30h1v1h-1zm1 0h1v1h-1zm1 0h1v1h-1zm1 0h1v1h-1zm1 0h1v1h-1zM1 31h1v1H1zm1 0h1v1H2zm1 0h1v1H3z"/><path d="M4 31h1v1H4zm1 0h1v1H5z"/><path fill="#2E8B57" d="M6 31h1v1H6zm1 0h1v1H7zm1 0h1v1H8zm1 0h1v1H9zm1 0h1v1h-1zm1 0h1v1h-1zm1 0h1v1h-1zm1 0h1v1h-1zm1 0h1v1h-1zm1 0h1v1h-1z"/><path d="M16 31h1v1h-1zm1 0h1v1h-1z"/><path fill="#708090" d="M18 31h1v1h-1zm1 0h1v1h-1zm1 0h1v1h-1zm1 0h1v1h-1zm1 0h1v1h-1zM0 32h1v1H0zm1 0h1v1H1zm1 0h1v1H2zm1 0h1v1H3zm1 0h1v1H4zm1 0h1v1H5z"/><path d="M6 32h1v1H6zm1 0h1v1H7z"/><path fill="#2E8B57" d="M8 32h1v1H8zm1 0h1v1H9zm1 0h1v1h-1zm1 0h1v1h-1zm1 0h1v1h-1zm1 0h1v1h-1z"/><path d="M14 32h1v1h-1zm1 0h1v1h-1z"/><path fill="#708090" d="M16 32h1v1h-1zm1 0h1v1h-1zm1 0h1v1h-1zm1 0h1v1h-1zm1 0h1v1h-1zM1 33h1v1H1zm1 0h1v1H2zm1 0h1v1H3zm1 0h1v1H4zm1 0h1v1H5zm1 0h1v1H6zm1 0h1v1H7z"/><path d="M8 33h1v1H8zm1 0h1v1H9z"/><path fill="#2E8B57" d="M10 33h1v1h-1zm1 0h1v1h-1z"/><path d="M12 33h1v1h-1zm1 0h1v1h-1z"/><path fill="#708090" d="M14 33h1v1h-1zm1 0h1v1h-1zm1 0h1v1h-1zm1 0h1v1h-1zm1 0h1v1h-1zM3 34h1v1H3zm1 0h1v1H4zm1 0h1v1H5zm1 0h1v1H6zm1 0h1v1H7zm1 0h1v1H8zm1 0h1v1H9z"/><path d="M10 34h1v1h-1zm1 0h1v1h-1z"/><path fill="#708090" d="M12 34h1v1h-1zm1 0h1v1h-1zm1 0h1v1h-1zm1 0h1v1h-1zm1 0h1v1h-1zM5 35h1v1H5zm1 0h1v1H6zm1 0h1v1H7zm1 0h1v1H8zm1 0h1v1H9zm1 0h1v1h-1zm1 0h1v1h-1zm1 0h1v1h-1zm1 0h1v1h-1zm1 0h1v1h-1zm-7 1h1v1H7zm1 0h1v1H8zm1 0h1v1H9zm1 0h1v1h-1zm1 0h1v1h-1zm1 0h1v1h-1zm-3 1h1v1H9zm1 0h1v1h-1z"/></svg>
