<svg xmlns="http://www.w3.org/2000/svg" shape-rendering="crispEdges" viewBox="0 0 32 40"><path fill="#2F4F4F" d="M16 0h1v1h-1zm0 1h1v1h-1zm0 1h1v1h-1zm-1 1h1v1h-1zm1 0h1v1h-1zm1 0h1v1h-1z"/><path fill="red" d="M14 4h1v1h-1z"/><path fill="#2F4F4F" d="M15 4h1v1h-1z"/><path fill="red" d="M16 4h1v1h-1z"/><path fill="#BEBEBE" d="M17 4h1v1h-1z"/><path fill="red" d="M18 4h1v1h-1zm-5 1h1v1h-1z"/><path fill="#2F4F4F" d="M14 5h1v1h-1z"/><path fill="red" d="M15 5h1v1h-1zm1 0h1v1h-1zm1 0h1v1h-1z"/><path fill="#BEBEBE" d="M18 5h1v1h-1z"/><path fill="red" d="M19 5h1v1h-1zm-7 1h1v1h-1z"/><path fill="#2F4F4F" d="M13 6h1v1h-1z"/><path fill="red" d="M14 6h1v1h-1zm1 0h1v1h-1zm1 0h1v1h-1zm1 0h1v1h-1zm1 0h1v1h-1z"/><path fill="#BEBEBE" d="M19 6h1v1h-1z"/><path fill="red" d="M20 6h1v1h-1zm-9 1h1v1h-1z"/><path fill="#2F4F4F" d="M12 7h1v1h-1z"/><path fill="red" d="M13 7h1v1h-1zm1 0h1v1h-1zm1 0h1v1h-1zm1 0h1v1h-1zm1 0h1v1h-1zm1 0h1v1h-1zm1 0h1v1h-1z"/><path fill="#BEBEBE" d="M20 7h1v1h-1z"/><path fill="red" d="M21 7h1v1h-1z"/><path fill="#2F4F4F" d="M9 8h1v1H9z"/><path fill="red" d="M10 8h1v1h-1z"/><path fill="#2F4F4F" d="M11 8h1v1h-1z"/><path fill="red" d="M12 8h1v1h-1z"/><path fill="#2F4F4F" d="M13 8h1v1h-1z"/><path fill="red" d="M14 8h1v1h-1zm1 0h1v1h-1zm1 0h1v1h-1zm1 0h1v1h-1zm1 0h1v1h-1z"/><path fill="#BEBEBE" d="M19 8h1v1h-1z"/><path fill="red" d="M20 8h1v1h-1z"/><path fill="#BEBEBE" d="M21 8h1v1h-1z"/><path fill="red" d="M22 8h1v1h-1z"/><path fill="#BEBEBE" d="M23 8h1v1h-1z"/><path fill="#2F4F4F" d="M10 9h1v1h-1zm1 0h1v1h-1zm1 0h1v1h-1z"/><path fill="red" d="M13 9h1v1h-1zm1 0h1v1h-1zm1 0h1v1h-1zm1 0h1v1h-1zm1 0h1v1h-1zm1 0h1v1h-1zm1 0h1v1h-1z"/><path fill="#BEBEBE" d="M20 9h1v1h-1zm1 0h1v1h-1z"/><path fill="#DCDCDC" d="M22 9h1v1h-1z"/><path fill="#2E8B57" d="M9 10h1v1H9z"/><path fill="#FF0" d="M11 10h1v1h-1z"/><path fill="#2F4F4F" d="M13 10h1v1h-1zm1 0h1v1h-1zm1 0h1v1h-1z"/><path fill="#708090" d="M16 10h1v1h-1zm1 0h1v1h-1zm1 0h1v1h-1z"/><path fill="#BEBEBE" d="M19 10h1v1h-1zm1 0h1v1h-1z"/><path fill="#FF0" d="M21 10h1v1h-1zm2 0h1v1h-1zM8 11h1v1H8z"/><path fill="wheat" d="M9 11h1v1H9z"/><path fill="#FF0" d="M10 11h1v1h-1zm2 0h1v1h-1zm2 0h1v1h-1zm2 0h1v1h-1zm2 0h1v1h-1zm2 0h1v1h-1zm2 0h1v1h-1zm2 0h1v1h-1zM7 12h1v1H7z"/><path fill="wheat" d="M9 12h1v1H9z"/><path fill="#FF0" d="M11 12h1v1h-1zm2 0h1v1h-1zm2 0h1v1h-1z"/><path fill="#2F4F4F" d="M17 12h1v1h-1zm1 0h1v1h-1z"/><path fill="#FF0" d="M19 12h1v1h-1zm2 0h1v1h-1zm2 0h1v1h-1zm2 0h1v1h-1zM6 13h1v1H6zm2 0h1v1H8z"/><path fill="wheat" d="M9 13h1v1H9z"/><path fill="#FF0" d="M10 13h1v1h-1zm2 0h1v1h-1zm2 0h1v1h-1z"/><path fill="#2F4F4F" d="M15 13h1v1h-1zm1 0h1v1h-1z"/><path d="M17 13h1v1h-1zm1 0h1v1h-1z"/><path fill="#2F4F4F" d="M19 13h1v1h-1zm1 0h1v1h-1z"/><path fill="#FF0" d="M22 13h1v1h-1zm2 0h1v1h-1zm2 0h1v1h-1zM5 14h1v1H5zm2 0h1v1H7z"/><path fill="wheat" d="M9 14h1v1H9z"/><path fill="#FF0" d="M11 14h1v1h-1z"/><path fill="#2F4F4F" d="M13 14h1v1h-1zm1 0h1v1h-1z"/><path fill="#2E8B57" d="M15 14h1v1h-1zm1 0h1v1h-1z"/><path d="M17 14h1v1h-1zm1 0h1v1h-1z"/><path fill="#2E8B57" d="M19 14h1v1h-1zm1 0h1v1h-1z"/><path fill="#2F4F4F" d="M21 14h1v1h-1zm1 0h1v1h-1z"/><path fill="#FF0" d="M23 14h1v1h-1zm2 0h1v1h-1zm2 0h1v1h-1zM4 15h1v1H4zm2 0h1v1H6zm2 0h1v1H8z"/><path fill="peru" d="M9 15h1v1H9z"/><path fill="#FF0" d="M10 15h1v1h-1z"/><path fill="#2F4F4F" d="M11 15h1v1h-1zm1 0h1v1h-1z"/><path fill="#2E8B57" d="M13 15h1v1h-1zm1 0h1v1h-1z"/><path fill="#32CD32" d="M15 15h1v1h-1zm1 0h1v1h-1zm1 0h1v1h-1zm1 0h1v1h-1zm1 0h1v1h-1zm1 0h1v1h-1z"/><path fill="#2E8B57" d="M21 15h1v1h-1zm1 0h1v1h-1z"/><path fill="#2F4F4F" d="M23 15h1v1h-1zm1 0h1v1h-1z"/><path fill="#FF0" d="M26 15h1v1h-1zm2 0h1v1h-1zM3 16h1v1H3zm2 0h1v1H5zm2 0h1v1H7z"/><path fill="#2F4F4F" d="M9 16h1v1H9zm1 0h1v1h-1z"/><path fill="#2E8B57" d="M11 16h1v1h-1zm1 0h1v1h-1z"/><path fill="#32CD32" d="M13 16h1v1h-1zm1 0h1v1h-1zm1 0h1v1h-1zm1 0h1v1h-1zm1 0h1v1h-1zm1 0h1v1h-1zm1 0h1v1h-1zm1 0h1v1h-1zm1 0h1v1h-1zm1 0h1v1h-1z"/><path fill="#2E8B57" d="M23 16h1v1h-1zm1 0h1v1h-1z"/><path fill="#2F4F4F" d="M25 16h1v1h-1zm1 0h1v1h-1z"/><path fill="#FF0" d="M27 16h1v1h-1zm2 0h1v1h-1zM2 17h1v1H2zm2 0h1v1H4zm2 0h1v1H6z"/><path fill="#2F4F4F" d="M7 17h1v1H7zm1 0h1v1H8z"/><path d="M9 17h1v1H9zm1 0h1v1h-1z"/><path fill="#32CD32" d="M11 17h1v1h-1zm1 0h1v1h-1zm1 0h1v1h-1zm1 0h1v1h-1zm1 0h1v1h-1zm1 0h1v1h-1zm1 0h1v1h-1zm1 0h1v1h-1zm1 0h1v1h-1zm1 0h1v1h-1zm1 0h1v1h-1zm1 0h1v1h-1zm1 0h1v1h-1zm1 0h1v1h-1z"/><path fill="#2E8B57" d="M25 17h1v1h-1z"/><path fill="red" d="M26 17h1v1h-1z"/><path fill="#2F4F4F" d="M27 17h1v1h-1zm1 0h1v1h-1z"/><path fill="#FF0" d="M30 17h1v1h-1zM1 18h1v1H1zm2 0h1v1H3z"/><path fill="#2F4F4F" d="M5 18h1v1H5zm1 0h1v1H6z"/><path fill="#2E8B57" d="M7 18h1v1H7zm1 0h1v1H8z"/><path d="M9 18h1v1H9z"/><path fill="#32CD32" d="M10 18h1v1h-1zm1 0h1v1h-1zm1 0h1v1h-1zm1 0h1v1h-1zm1 0h1v1h-1zm1 0h1v1h-1zm1 0h1v1h-1zm1 0h1v1h-1zm1 0h1v1h-1zm1 0h1v1h-1z"/><path fill="#FFF" d="M20 18h1v1h-1z"/><path fill="#32CD32" d="M21 18h1v1h-1zm1 0h1v1h-1zm1 0h1v1h-1zm1 0h1v1h-1z"/><path fill="red" d="M25 18h1v1h-1zm1 0h1v1h-1zm1 0h1v1h-1z"/><path d="M28 18h1v1h-1z"/><path fill="#2F4F4F" d="M29 18h1v1h-1zm1 0h1v1h-1z"/><path fill="#FF0" d="M0 19h1v1H0z"/><path fill="peru" d="M2 19h1v1H2zm1 0h1v1H3zm1 0h1v1H4zm1 0h1v1H5zm1 0h1v1H6zm1 0h1v1H7z"/><path fill="wheat" d="M8 19h1v1H8zm1 0h1v1H9zm1 0h1v1h-1zm1 0h1v1h-1zm1 0h1v1h-1zm1 0h1v1h-1zm1 0h1v1h-1zm1 0h1v1h-1z"/><path fill="#2E8B57" d="M16 19h1v1h-1z"/><path fill="#32CD32" d="M17 19h1v1h-1zm1 0h1v1h-1z"/><path fill="#FFF" d="M19 19h1v1h-1zm1 0h1v1h-1zm1 0h1v1h-1z"/><path fill="#32CD32" d="M22 19h1v1h-1zm1 0h1v1h-1zm1 0h1v1h-1zm1 0h1v1h-1z"/><path fill="red" d="M26 19h1v1h-1z"/><path fill="#2F4F4F" d="M27 19h1v1h-1z"/><path d="M28 19h1v1h-1z"/><path fill="#708090" d="M29 19h1v1h-1z"/><path fill="#2F4F4F" d="M1 20h1v1H1zm1 0h1v1H2z"/><path fill="#2E8B57" d="M3 20h1v1H3zm1 0h1v1H4z"/><path fill="#32CD32" d="M5 20h1v1H5z"/><path fill="red" d="M6 20h1v1H6z"/><path fill="#32CD32" d="M7 20h1v1H7zm1 0h1v1H8zm1 0h1v1H9zm1 0h1v1h-1zm1 0h1v1h-1zm1 0h1v1h-1zm1 0h1v1h-1zm1 0h1v1h-1zm1 0h1v1h-1zm1 0h1v1h-1zm1 0h1v1h-1zm1 0h1v1h-1zm1 0h1v1h-1z"/><path fill="#FFF" d="M20 20h1v1h-1z"/><path fill="#32CD32" d="M21 20h1v1h-1zm1 0h1v1h-1zm1 0h1v1h-1zm1 0h1v1h-1z"/><path fill="#2F4F4F" d="M25 20h1v1h-1zm1 0h1v1h-1z"/><path fill="#708090" d="M27 20h1v1h-1zm1 0h1v1h-1zm1 0h1v1h-1z"/><path fill="#2F4F4F" d="M0 21h1v1H0zm1 0h1v1H1z"/><path d="M2 21h1v1H2z"/><path fill="#32CD32" d="M3 21h1v1H3zm1 0h1v1H4z"/><path fill="red" d="M5 21h1v1H5zm1 0h1v1H6zm1 0h1v1H7z"/><path fill="#32CD32" d="M8 21h1v1H8zm1 0h1v1H9zm1 0h1v1h-1zm1 0h1v1h-1zm1 0h1v1h-1zm1 0h1v1h-1zm1 0h1v1h-1zm1 0h1v1h-1zm1 0h1v1h-1zm1 0h1v1h-1zm1 0h1v1h-1zm1 0h1v1h-1zm1 0h1v1h-1zm1 0h1v1h-1zm1 0h1v1h-1z"/><path fill="#2F4F4F" d="M23 21h1v1h-1zm1 0h1v1h-1z"/><path fill="#708090" d="M25 21h1v1h-1zm1 0h1v1h-1zm1 0h1v1h-1zm1 0h1v1h-1zm1 0h1v1h-1z"/><path fill="#2F4F4F" d="M0 22h1v1H0z"/><path d="M1 22h1v1H1z"/><path fill="#2F4F4F" d="M2 22h1v1H2z"/><path fill="#32CD32" d="M3 22h1v1H3zm1 0h1v1H4zm1 0h1v1H5z"/><path fill="red" d="M6 22h1v1H6z"/><path fill="#32CD32" d="M7 22h1v1H7zm1 0h1v1H8zm1 0h1v1H9zm1 0h1v1h-1zm1 0h1v1h-1z"/><path fill="#00F" d="M12 22h1v1h-1z"/><path fill="#32CD32" d="M13 22h1v1h-1zm1 0h1v1h-1zm1 0h1v1h-1zm1 0h1v1h-1zm1 0h1v1h-1zm1 0h1v1h-1zm1 0h1v1h-1zm1 0h1v1h-1z"/><path fill="#2F4F4F" d="M21 22h1v1h-1zm1 0h1v1h-1z"/><path fill="#708090" d="M23 22h1v1h-1zm1 0h1v1h-1zm1 0h1v1h-1zm1 0h1v1h-1zm1 0h1v1h-1z"/><path d="M28 22h1v1h-1z"/><path fill="#708090" d="M29 22h1v1h-1z"/><path fill="#2F4F4F" d="M0 23h1v1H0z"/><path d="M1 23h1v1H1zm1 0h1v1H2z"/><path fill="#2F4F4F" d="M3 23h1v1H3zm1 0h1v1H4z"/><path fill="#32CD32" d="M5 23h1v1H5zm1 0h1v1H6zm1 0h1v1H7zm1 0h1v1H8zm1 0h1v1H9zm1 0h1v1h-1z"/><path fill="#00F" d="M11 23h1v1h-1zm1 0h1v1h-1zm1 0h1v1h-1z"/><path fill="#32CD32" d="M14 23h1v1h-1zm1 0h1v1h-1zm1 0h1v1h-1zm1 0h1v1h-1zm1 0h1v1h-1z"/><path fill="#2F4F4F" d="M19 23h1v1h-1z"/><path d="M20 23h1v1h-1z"/><path fill="#708090" d="M21 23h1v1h-1zm1 0h1v1h-1zm1 0h1v1h-1zm1 0h1v1h-1z"/><path fill="#2F4F4F" d="M25 23h1v1h-1z"/><path d="M26 23h1v1h-1zm1 0h1v1h-1zm1 0h1v1h-1z"/><path fill="#708090" d="M29 23h1v1h-1z"/><path fill="#2F4F4F" d="M0 24h1v1H0z"/><path d="M1 24h1v1H1zm2 0h1v1H3zm1 0h1v1H4z"/><path fill="#2F4F4F" d="M5 24h1v1H5zm1 0h1v1H6z"/><path fill="#32CD32" d="M7 24h1v1H7zm1 0h1v1H8zm1 0h1v1H9zm1 0h1v1h-1zm1 0h1v1h-1z"/><path fill="#00F" d="M12 24h1v1h-1z"/><path fill="#32CD32" d="M13 24h1v1h-1zm1 0h1v1h-1zm1 0h1v1h-1zm1 0h1v1h-1z"/><path fill="#2F4F4F" d="M17 24h1v1h-1zm1 0h1v1h-1z"/><path fill="#708090" d="M19 24h1v1h-1zm1 0h1v1h-1zm1 0h1v1h-1zm1 0h1v1h-1z"/><path fill="sienna" d="M23 24h1v1h-1z"/><path fill="#2F4F4F" d="M24 24h1v1h-1z"/><path fill="sienna" d="M25 24h1v1h-1z"/><path fill="#2F4F4F" d="M26 24h1v1h-1z"/><path fill="sienna" d="M27 24h1v1h-1z"/><path d="M28 24h1v1h-1z"/><path fill="#708090" d="M29 24h1v1h-1z"/><path fill="#2F4F4F" d="M0 25h1v1H0z"/><path d="M1 25h1v1H1zm4 0h1v1H5zm1 0h1v1H6z"/><path fill="#2F4F4F" d="M7 25h1v1H7zm1 0h1v1H8z"/><path fill="#32CD32" d="M9 25h1v1H9zm1 0h1v1h-1zm1 0h1v1h-1zm1 0h1v1h-1zm1 0h1v1h-1zm1 0h1v1h-1z"/><path fill="#2F4F4F" d="M15 25h1v1h-1zm1 0h1v1h-1z"/><path fill="#708090" d="M17 25h1v1h-1zm1 0h1v1h-1zm1 0h1v1h-1zm1 0h1v1h-1z"/><path fill="#2F4F4F" d="M21 25h1v1h-1z"/><path fill="sienna" d="M22 25h1v1h-1z"/><path fill="#2F4F4F" d="M23 25h1v1h-1z"/><path fill="sienna" d="M24 25h1v1h-1z"/><path fill="#2F4F4F" d="M25 25h1v1h-1z"/><path fill="sienna" d="M26 25h1v1h-1zm1 0h1v1h-1z"/><path fill="peru" d="M28 25h1v1h-1z"/><path fill="#708090" d="M29 25h1v1h-1z"/><path fill="#2F4F4F" d="M0 26h1v1H0z"/><path d="M1 26h1v1H1zm6 0h1v1H7zm1 0h1v1H8z"/><path fill="#2F4F4F" d="M9 26h1v1H9zm1 0h1v1h-1z"/><path fill="#32CD32" d="M11 26h1v1h-1zm1 0h1v1h-1z"/><path fill="#2F4F4F" d="M13 26h1v1h-1zm1 0h1v1h-1z"/><path fill="#708090" d="M15 26h1v1h-1zm1 0h1v1h-1zm1 0h1v1h-1zm1 0h1v1h-1z"/><path fill="sienna" d="M19 26h1v1h-1z"/><path fill="#2F4F4F" d="M20 26h1v1h-1z"/><path fill="sienna" d="M21 26h1v1h-1z"/><path fill="#2F4F4F" d="M22 26h1v1h-1z"/><path fill="sienna" d="M23 26h1v1h-1zm1 0h1v1h-1zm1 0h1v1h-1z"/><path fill="peru" d="M26 26h1v1h-1zm1 0h1v1h-1zm1 0h1v1h-1zm1 0h1v1h-1z"/><path d="M30 26h1v1h-1zm1 0h1v1h-1z"/><path fill="#2F4F4F" d="M0 27h1v1H0z"/><path d="M1 27h1v1H1zm4 0h1v1H5zm1 0h1v1H6z"/><path fill="#2F4F4F" d="M7 27h1v1H7z"/><path fill="sienna" d="M8 27h1v1H8z"/><path d="M9 27h1v1H9zm1 0h1v1h-1zm1 0h1v1h-1zm1 0h1v1h-1z"/><path fill="#708090" d="M13 27h1v1h-1zm1 0h1v1h-1zm1 0h1v1h-1zm1 0h1v1h-1z"/><path fill="#2F4F4F" d="M17 27h1v1h-1z"/><path fill="sienna" d="M18 27h1v1h-1z"/><path fill="#2F4F4F" d="M19 27h1v1h-1z"/><path fill="sienna" d="M20 27h1v1h-1zm1 0h1v1h-1zm1 0h1v1h-1zm1 0h1v1h-1z"/><path fill="peru" d="M24 27h1v1h-1zm1 0h1v1h-1zm1 0h1v1h-1zm1 0h1v1h-1z"/><path d="M28 27h1v1h-1zm1 0h1v1h-1z"/><path fill="#2F4F4F" d="M0 28h1v1H0z"/><path d="M1 28h1v1H1zm2 0h1v1H3zm1 0h1v1H4z"/><path fill="sienna" d="M5 28h1v1H5z"/><path fill="#2F4F4F" d="M6 28h1v1H6z"/><path fill="sienna" d="M7 28h1v1H7z"/><path fill="#2F4F4F" d="M8 28h1v1H8z"/><path fill="sienna" d="M9 28h1v1H9z"/><path d="M10 28h1v1h-1zm1 0h1v1h-1z"/><path fill="#708090" d="M12 28h1v1h-1zm1 0h1v1h-1zm1 0h1v1h-1z"/><path fill="sienna" d="M15 28h1v1h-1z"/><path fill="#2F4F4F" d="M16 28h1v1h-1z"/><path fill="sienna" d="M17 28h1v1h-1z"/><path fill="#2F4F4F" d="M18 28h1v1h-1z"/><path fill="sienna" d="M19 28h1v1h-1zm1 0h1v1h-1zm1 0h1v1h-1z"/><path fill="peru" d="M22 28h1v1h-1zm1 0h1v1h-1zm1 0h1v1h-1zm1 0h1v1h-1z"/><path d="M26 28h1v1h-1zm1 0h1v1h-1z"/><path fill="#708090" d="M28 28h1v1h-1z"/><path fill="#2F4F4F" d="M0 29h1v1H0z"/><path d="M1 29h1v1H1zm1 0h1v1H2z"/><path fill="sienna" d="M3 29h1v1H3zm1 0h1v1H4z"/><path fill="#2F4F4F" d="M5 29h1v1H5z"/><path fill="sienna" d="M6 29h1v1H6z"/><path fill="#2F4F4F" d="M7 29h1v1H7z"/><path fill="sienna" d="M8 29h1v1H8z"/><path fill="#2F4F4F" d="M9 29h1v1H9z"/><path d="M10 29h1v1h-1zm1 0h1v1h-1z"/><path fill="#708090" d="M12 29h1v1h-1zm1 0h1v1h-1z"/><path fill="sienna" d="M14 29h1v1h-1z"/><path fill="#2F4F4F" d="M15 29h1v1h-1z"/><path fill="sienna" d="M16 29h1v1h-1zm1 0h1v1h-1zm1 0h1v1h-1zm1 0h1v1h-1z"/><path fill="peru" d="M20 29h1v1h-1zm1 0h1v1h-1zm1 0h1v1h-1zm1 0h1v1h-1z"/><path d="M24 29h1v1h-1zm1 0h1v1h-1z"/><path fill="#708090" d="M26 29h1v1h-1zm1 0h1v1h-1zm1 0h1v1h-1zm1 0h1v1h-1zm1 0h1v1h-1z"/><path d="M0 30h1v1H0z"/><path fill="peru" d="M1 30h1v1H1zm1 0h1v1H2z"/><path fill="sienna" d="M3 30h1v1H3zm1 0h1v1H4zm1 0h1v1H5z"/><path fill="#2F4F4F" d="M6 30h1v1H6z"/><path fill="sienna" d="M7 30h1v1H7z"/><path fill="#2F4F4F" d="M8 30h1v1H8z"/><path fill="sienna" d="M9 30h1v1H9z"/><path d="M10 30h1v1h-1zm1 0h1v1h-1z"/><path fill="#708090" d="M12 30h1v1h-1zm1 0h1v1h-1z"/><path fill="#2F4F4F" d="M14 30h1v1h-1z"/><path fill="sienna" d="M15 30h1v1h-1zm1 0h1v1h-1zm1 0h1v1h-1z"/><path fill="peru" d="M18 30h1v1h-1zm1 0h1v1h-1zm1 0h1v1h-1zm1 0h1v1h-1z"/><path d="M22 30h1v1h-1zm1 0h1v1h-1z"/><path fill="#708090" d="M24 30h1v1h-1zm1 0h1v1h-1zm1 0h1v1h-1zm1 0h1v1h-1zm1 0h1v1h-1z"/><path d="M0 31h1v1H0zm1 0h1v1H1z"/><path fill="peru" d="M2 31h1v1H2zm1 0h1v1H3zm1 0h1v1H4z"/><path fill="sienna" d="M5 31h1v1H5zm1 0h1v1H6zm1 0h1v1H7zm1 0h1v1H8z"/><path fill="#2F4F4F" d="M9 31h1v1H9z"/><path d="M10 31h1v1h-1zm1 0h1v1h-1z"/><path fill="#708090" d="M12 31h1v1h-1zm1 0h1v1h-1z"/><path fill="sienna" d="M14 31h1v1h-1zm1 0h1v1h-1z"/><path fill="peru" d="M16 31h1v1h-1zm1 0h1v1h-1zm1 0h1v1h-1zm1 0h1v1h-1z"/><path d="M20 31h1v1h-1zm1 0h1v1h-1z"/><path fill="#708090" d="M22 31h1v1h-1zm1 0h1v1h-1zm1 0h1v1h-1zm1 0h1v1h-1zm1 0h1v1h-1z"/><path d="M2 32h1v1H2zm1 0h1v1H3z"/><path fill="peru" d="M4 32h1v1H4zm1 0h1v1H5zm1 0h1v1H6z"/><path fill="sienna" d="M7 32h1v1H7zm1 0h1v1H8zm1 0h1v1H9z"/><path d="M10 32h1v1h-1zm1 0h1v1h-1z"/><path fill="#708090" d="M12 32h1v1h-1zm1 0h1v1h-1z"/><path fill="peru" d="M14 32h1v1h-1zm1 0h1v1h-1zm1 0h1v1h-1zm1 0h1v1h-1z"/><path d="M18 32h1v1h-1zm1 0h1v1h-1z"/><path fill="#708090" d="M20 32h1v1h-1zm1 0h1v1h-1zm1 0h1v1h-1zm1 0h1v1h-1zm1 0h1v1h-1zM1 33h1v1H1zm1 0h1v1H2zm1 0h1v1H3z"/><path d="M4 33h1v1H4zm1 0h1v1H5z"/><path fill="peru" d="M6 33h1v1H6zm1 0h1v1H7zm1 0h1v1H8z"/><path fill="sienna" d="M9 33h1v1H9z"/><path d="M10 33h1v1h-1zm1 0h1v1h-1z"/><path fill="#708090" d="M12 33h1v1h-1zm1 0h1v1h-1z"/><path fill="peru" d="M14 33h1v1h-1zm1 0h1v1h-1z"/><path d="M16 33h1v1h-1zm1 0h1v1h-1z"/><path fill="#708090" d="M18 33h1v1h-1zm1 0h1v1h-1zm1 0h1v1h-1zm1 0h1v1h-1zm1 0h1v1h-1zM0 34h1v1H0zm1 0h1v1H1zm1 0h1v1H2zm1 0h1v1H3zm1 0h1v1H4zm1 0h1v1H5z"/><path d="M6 34h1v1H6zm1 0h1v1H7z"/><path fill="peru" d="M8 34h1v1H8zm1 0h1v1H9zm1 0h1v1h-1z"/><path d="M11 34h1v1h-1z"/><path fill="#708090" d="M12 34h1v1h-1z"/><path fill="peru" d="M13 34h1v1h-1z"/><path d="M14 34h1v1h-1zm1 0h1v1h-1z"/><path fill="#708090" d="M16 34h1v1h-1zm1 0h1v1h-1zm1 0h1v1h-1zm1 0h1v1h-1zm1 0h1v1h-1zM1 35h1v1H1zm1 0h1v1H2zm1 0h1v1H3zm1 0h1v1H4zm1 0h1v1H5zm1 0h1v1H6zm1 0h1v1H7z"/><path d="M8 35h1v1H8zm1 0h1v1H9z"/><path fill="peru" d="M10 35h1v1h-1zm1 0h1v1h-1z"/><path d="M12 35h1v1h-1zm1 0h1v1h-1z"/><path fill="#708090" d="M14 35h1v1h-1zm1 0h1v1h-1zm1 0h1v1h-1zm1 0h1v1h-1zm1 0h1v1h-1zM3 36h1v1H3zm1 0h1v1H4zm1 0h1v1H5zm1 0h1v1H6zm1 0h1v1H7zm1 0h1v1H8zm1 0h1v1H9z"/><path d="M10 36h1v1h-1zm1 0h1v1h-1z"/><path fill="#708090" d="M12 36h1v1h-1zm1 0h1v1h-1zm1 0h1v1h-1zm1 0h1v1h-1zm1 0h1v1h-1zM5 37h1v1H5zm1 0h1v1H6zm1 0h1v1H7zm1 0h1v1H8zm1 0h1v1H9zm1 0h1v1h-1zm1 0h1v1h-1zm1 0h1v1h-1zm1 0h1v1h-1zm1 0h1v1h-1zm-7 1h1v1H7zm1 0h1v1H8zm1 0h1v1H9zm1 0h1v1h-1zm1 0h1v1h-1zm1 0h1v1h-1zm-3 1h1v1H9zm1 0h1v1h-1z"/></svg>
