<svg xmlns="http://www.w3.org/2000/svg" shape-rendering="crispEdges" viewBox="0 0 33 40"><path d="M5 0h1v1H5zm1 0h1v1H6z"/><path fill="#708090" d="M7 0h1v1H7z"/><path d="M11 0h1v1h-1zm1 0h1v1h-1z"/><path fill="#708090" d="M13 0h1v1h-1z"/><path d="M4 1h1v1H4zm1 0h1v1H5zm2 0h1v1H7z"/><path fill="#708090" d="M8 1h1v1H8z"/><path d="M10 1h1v1h-1zm1 0h1v1h-1zm1 0h1v1h-1zm1 0h1v1h-1z"/><path fill="#708090" d="M14 1h1v1h-1z"/><path d="M3 2h1v1H3zm1 0h1v1H4zm3 0h1v1H7zm1 0h1v1H8zm2 0h1v1h-1zm1 0h1v1h-1zm2 0h1v1h-1zm1 0h1v1h-1z"/><path fill="#708090" d="M15 2h1v1h-1z"/><path d="M2 3h1v1H2zm1 0h1v1H3zm11 0h1v1h-1zm1 0h1v1h-1z"/><path fill="#708090" d="M16 3h1v1h-1zm4 0h1v1h-1zm1 0h1v1h-1z"/><path fill="#FFFACD" d="M22 3h1v1h-1z"/><path fill="peru" d="M23 3h1v1h-1zm1 0h1v1h-1z"/><path d="M1 4h1v1H1zm1 0h1v1H2zm13 0h1v1h-1zm1 0h1v1h-1z"/><path fill="#708090" d="M17 4h1v1h-1z"/><path fill="#FFFACD" d="M20 4h1v1h-1z"/><path fill="#708090" d="M21 4h1v1h-1z"/><path fill="#FFFACD" d="M22 4h1v1h-1zm1 0h1v1h-1z"/><path fill="#708090" d="M24 4h1v1h-1z"/><path fill="peru" d="M25 4h1v1h-1zm1 0h1v1h-1z"/><path d="M0 5h1v1H0zm1 0h1v1H1z"/><path fill="#708090" d="M7 5h1v1H7z"/><path d="M8 5h1v1H8zm1 0h1v1H9z"/><path fill="#708090" d="M10 5h1v1h-1z"/><path d="M16 5h1v1h-1zm1 0h1v1h-1z"/><path fill="#708090" d="M19 5h1v1h-1z"/><path fill="#FFFACD" d="M20 5h1v1h-1zm1 0h1v1h-1z"/><path fill="#708090" d="M22 5h1v1h-1zm1 0h1v1h-1z"/><path fill="#FFFACD" d="M24 5h1v1h-1zm1 0h1v1h-1z"/><path fill="#708090" d="M26 5h1v1h-1z"/><path fill="peru" d="M27 5h1v1h-1zm1 0h1v1h-1z"/><path d="M0 6h1v1H0zm1 0h1v1H1zm1 0h1v1H2zm1 0h1v1H3zm1 0h1v1H4zm1 0h1v1H5zm1 0h1v1H6zm1 0h1v1H7zm1 0h1v1H8zm1 0h1v1H9zm1 0h1v1h-1zm1 0h1v1h-1zm1 0h1v1h-1zm1 0h1v1h-1zm1 0h1v1h-1zm1 0h1v1h-1zm1 0h1v1h-1zm1 0h1v1h-1z"/><path fill="#708090" d="M20 6h1v1h-1zm1 0h1v1h-1z"/><path fill="#FFFACD" d="M22 6h1v1h-1zm1 0h1v1h-1z"/><path fill="#708090" d="M24 6h1v1h-1zm1 0h1v1h-1z"/><path fill="#FFFACD" d="M26 6h1v1h-1zm1 0h1v1h-1z"/><path fill="#708090" d="M28 6h1v1h-1z"/><path fill="peru" d="M29 6h1v1h-1zm1 0h1v1h-1z"/><path d="M1 7h1v1H1zm1 0h1v1H2z"/><path fill="#BEBEBE" d="M4 7h1v1H4zm2 0h1v1H6z"/><path d="M8 7h1v1H8zm2 0h1v1h-1zm1 0h1v1h-1z"/><path fill="#BEBEBE" d="M13 7h1v1h-1zm2 0h1v1h-1z"/><path d="M17 7h1v1h-1zm2 0h1v1h-1zm1 0h1v1h-1z"/><path fill="#FFFACD" d="M21 7h1v1h-1z"/><path fill="#708090" d="M22 7h1v1h-1zm1 0h1v1h-1z"/><path fill="#FFFACD" d="M24 7h1v1h-1zm1 0h1v1h-1z"/><path fill="#708090" d="M26 7h1v1h-1zm1 0h1v1h-1z"/><path fill="#FFFACD" d="M28 7h1v1h-1zm1 0h1v1h-1z"/><path fill="#708090" d="M30 7h1v1h-1z"/><path fill="peru" d="M31 7h1v1h-1z"/><path d="M1 8h1v1H1zm1 0h1v1H2z"/><path fill="#BEBEBE" d="M3 8h1v1H3zm2 0h1v1H5zm2 0h1v1H7z"/><path d="M8 8h1v1H8zm2 0h1v1h-1zm1 0h1v1h-1z"/><path fill="#BEBEBE" d="M12 8h1v1h-1zm2 0h1v1h-1zm2 0h1v1h-1z"/><path d="M17 8h1v1h-1zm2 0h1v1h-1zm1 0h1v1h-1zm1 0h1v1h-1zm1 0h1v1h-1z"/><path fill="#FFFACD" d="M23 8h1v1h-1z"/><path fill="#708090" d="M24 8h1v1h-1zm1 0h1v1h-1z"/><path fill="#FFFACD" d="M26 8h1v1h-1zm1 0h1v1h-1z"/><path fill="#708090" d="M28 8h1v1h-1zm1 0h1v1h-1z"/><path fill="#FFFACD" d="M30 8h1v1h-1z"/><path d="M31 8h1v1h-1zm1 0h1v1h-1zM1 9h1v1H1zm1 0h1v1H2z"/><path fill="#DCDCDC" d="M3 9h1v1H3z"/><path fill="#BEBEBE" d="M4 9h1v1H4zm2 0h1v1H6z"/><path d="M8 9h1v1H8zm2 0h1v1h-1zm1 0h1v1h-1z"/><path fill="#DCDCDC" d="M12 9h1v1h-1z"/><path fill="#BEBEBE" d="M13 9h1v1h-1zm2 0h1v1h-1z"/><path d="M16 9h1v1h-1zm1 0h1v1h-1z"/><path fill="#FFFACD" d="M19 9h1v1h-1z"/><path fill="#708090" d="M20 9h1v1h-1z"/><path d="M21 9h1v1h-1zm1 0h1v1h-1zm1 0h1v1h-1zm1 0h1v1h-1z"/><path fill="#FFFACD" d="M25 9h1v1h-1z"/><path fill="#708090" d="M26 9h1v1h-1zm1 0h1v1h-1z"/><path fill="#FFFACD" d="M28 9h1v1h-1z"/><path d="M29 9h1v1h-1zm1 0h1v1h-1z"/><path fill="#1E90FF" d="M31 9h1v1h-1z"/><path d="M32 9h1v1h-1zM2 10h1v1H2zm1 0h1v1H3z"/><path fill="#BEBEBE" d="M5 10h1v1H5z"/><path d="M6 10h1v1H6zm1 0h1v1H7zm4 0h1v1h-1zm1 0h1v1h-1z"/><path fill="#BEBEBE" d="M14 10h1v1h-1z"/><path d="M15 10h1v1h-1zm1 0h1v1h-1z"/><path fill="#708090" d="M18 10h1v1h-1zm1 0h1v1h-1z"/><path fill="#FFFACD" d="M20 10h1v1h-1z"/><path d="M21 10h1v1h-1zm1 0h1v1h-1z"/><path fill="#00F" d="M23 10h1v1h-1z"/><path fill="#B22222" d="M24 10h1v1h-1z"/><path d="M25 10h1v1h-1zm1 0h1v1h-1zm1 0h1v1h-1zm1 0h1v1h-1z"/><path fill="peru" d="M29 10h1v1h-1z"/><path fill="#1E90FF" d="M30 10h1v1h-1z"/><path fill="peru" d="M31 10h1v1h-1z"/><path d="M32 10h1v1h-1zM3 11h1v1H3zm1 0h1v1H4zm1 0h1v1H5zm1 0h1v1H6z"/><path fill="#FFFACD" d="M8 11h1v1H8z"/><path d="M9 11h1v1H9zm1 0h1v1h-1zm2 0h1v1h-1zm1 0h1v1h-1zm1 0h1v1h-1zm1 0h1v1h-1z"/><path fill="#708090" d="M17 11h1v1h-1z"/><path d="M18 11h1v1h-1zm1 0h1v1h-1zm1 0h1v1h-1z"/><path fill="#B22222" d="M21 11h1v1h-1z"/><path fill="#00F" d="M22 11h1v1h-1z"/><path fill="#B22222" d="M23 11h1v1h-1z"/><path fill="#00F" d="M24 11h1v1h-1z"/><path fill="#B22222" d="M25 11h1v1h-1z"/><path d="M26 11h1v1h-1zm1 0h1v1h-1zm1 0h1v1h-1z"/><path fill="#1E90FF" d="M29 11h1v1h-1z"/><path fill="peru" d="M30 11h1v1h-1z"/><path fill="#1E90FF" d="M31 11h1v1h-1z"/><path d="M32 11h1v1h-1z"/><path fill="#708090" d="M7 12h1v1H7zm1 0h1v1H8z"/><path fill="#FFFACD" d="M9 12h1v1H9z"/><path d="M10 12h1v1h-1zm1 0h1v1h-1z"/><path fill="#708090" d="M16 12h1v1h-1z"/><path d="M17 12h1v1h-1zm1 0h1v1h-1z"/><path fill="#00F" d="M19 12h1v1h-1z"/><path fill="#B22222" d="M20 12h1v1h-1z"/><path fill="#00F" d="M21 12h1v1h-1z"/><path fill="#B22222" d="M22 12h1v1h-1z"/><path fill="#00F" d="M23 12h1v1h-1z"/><path fill="#B22222" d="M24 12h1v1h-1z"/><path fill="#00F" d="M25 12h1v1h-1z"/><path d="M26 12h1v1h-1zm1 0h1v1h-1zm1 0h1v1h-1z"/><path fill="peru" d="M29 12h1v1h-1z"/><path fill="#1E90FF" d="M30 12h1v1h-1z"/><path fill="peru" d="M31 12h1v1h-1z"/><path d="M32 12h1v1h-1zM2 13h1v1H2z"/><path fill="#708090" d="M3 13h1v1H3z"/><path fill="#FFFACD" d="M4 13h1v1H4zm1 0h1v1H5z"/><path fill="#708090" d="M6 13h1v1H6zm1 0h1v1H7z"/><path fill="#FFFACD" d="M8 13h1v1H8z"/><path fill="#708090" d="M9 13h1v1H9zm1 0h1v1h-1z"/><path fill="#FFFACD" d="M11 13h1v1h-1z"/><path d="M12 13h1v1h-1zm1 0h1v1h-1zm1 0h1v1h-1zm1 0h1v1h-1zm1 0h1v1h-1z"/><path fill="#B22222" d="M17 13h1v1h-1z"/><path fill="#00F" d="M18 13h1v1h-1z"/><path fill="#B22222" d="M19 13h1v1h-1z"/><path fill="#00F" d="M20 13h1v1h-1z"/><path fill="#B22222" d="M21 13h1v1h-1z"/><path fill="peru" d="M22 13h1v1h-1zm1 0h1v1h-1z"/><path fill="#00F" d="M24 13h1v1h-1z"/><path fill="#B22222" d="M25 13h1v1h-1z"/><path fill="#00F" d="M26 13h1v1h-1z"/><path d="M27 13h1v1h-1zm1 0h1v1h-1z"/><path fill="#1E90FF" d="M29 13h1v1h-1z"/><path fill="peru" d="M30 13h1v1h-1z"/><path fill="#1E90FF" d="M31 13h1v1h-1z"/><path d="M32 13h1v1h-1z"/><path fill="#BEBEBE" d="M0 14h1v1H0z"/><path fill="#708090" d="M1 14h1v1H1z"/><path d="M2 14h1v1H2zm1 0h1v1H3zm1 0h1v1H4z"/><path fill="#708090" d="M5 14h1v1H5z"/><path fill="#FFFACD" d="M6 14h1v1H6zm1 0h1v1H7z"/><path fill="#708090" d="M8 14h1v1H8zm1 0h1v1H9z"/><path fill="#FFFACD" d="M10 14h1v1h-1z"/><path fill="#708090" d="M11 14h1v1h-1zm1 0h1v1h-1z"/><path fill="#FFFACD" d="M13 14h1v1h-1z"/><path d="M14 14h1v1h-1z"/><path fill="#00F" d="M15 14h1v1h-1z"/><path fill="#B22222" d="M16 14h1v1h-1z"/><path fill="#00F" d="M17 14h1v1h-1z"/><path fill="#B22222" d="M18 14h1v1h-1z"/><path fill="#00F" d="M19 14h1v1h-1z"/><path fill="peru" d="M20 14h1v1h-1zm1 0h1v1h-1z"/><path fill="#2F4F4F" d="M22 14h1v1h-1zm1 0h1v1h-1z"/><path fill="peru" d="M24 14h1v1h-1z"/><path fill="#00F" d="M25 14h1v1h-1z"/><path fill="#B22222" d="M26 14h1v1h-1z"/><path fill="#00F" d="M27 14h1v1h-1z"/><path d="M28 14h1v1h-1z"/><path fill="peru" d="M29 14h1v1h-1z"/><path fill="#1E90FF" d="M30 14h1v1h-1z"/><path fill="peru" d="M31 14h1v1h-1z"/><path d="M32 14h1v1h-1z"/><path fill="#BEBEBE" d="M0 15h1v1H0zm1 0h1v1H1zm1 0h1v1H2z"/><path fill="#708090" d="M3 15h1v1H3z"/><path d="M4 15h1v1H4zm1 0h1v1H5zm1 0h1v1H6z"/><path fill="#708090" d="M7 15h1v1H7z"/><path fill="#FFFACD" d="M8 15h1v1H8zm1 0h1v1H9z"/><path fill="#708090" d="M10 15h1v1h-1zm1 0h1v1h-1z"/><path fill="#FFFACD" d="M12 15h1v1h-1z"/><path d="M13 15h1v1h-1z"/><path fill="#00F" d="M14 15h1v1h-1z"/><path fill="#B22222" d="M15 15h1v1h-1z"/><path fill="#00F" d="M16 15h1v1h-1z"/><path fill="#B22222" d="M17 15h1v1h-1z"/><path fill="peru" d="M18 15h1v1h-1zm1 0h1v1h-1z"/><path fill="#2F4F4F" d="M20 15h1v1h-1zm1 0h1v1h-1z"/><path fill="peru" d="M22 15h1v1h-1zm1 0h1v1h-1zm1 0h1v1h-1zm1 0h1v1h-1z"/><path fill="#00F" d="M26 15h1v1h-1z"/><path fill="#B22222" d="M27 15h1v1h-1z"/><path d="M28 15h1v1h-1z"/><path fill="#1E90FF" d="M29 15h1v1h-1z"/><path fill="peru" d="M30 15h1v1h-1z"/><path fill="#1E90FF" d="M31 15h1v1h-1z"/><path d="M32 15h1v1h-1zM0 16h1v1H0z"/><path fill="#708090" d="M1 16h1v1H1z"/><path fill="#BEBEBE" d="M2 16h1v1H2zm1 0h1v1H3zm1 0h1v1H4z"/><path fill="#708090" d="M5 16h1v1H5z"/><path d="M6 16h1v1H6zm1 0h1v1H7zm1 0h1v1H8z"/><path fill="#708090" d="M9 16h1v1H9z"/><path fill="#FFFACD" d="M10 16h1v1h-1zm1 0h1v1h-1z"/><path d="M12 16h1v1h-1zm1 0h1v1h-1z"/><path fill="#B22222" d="M14 16h1v1h-1z"/><path fill="#00F" d="M15 16h1v1h-1z"/><path fill="peru" d="M16 16h1v1h-1zm1 0h1v1h-1z"/><path fill="#2F4F4F" d="M18 16h1v1h-1zm1 0h1v1h-1z"/><path fill="peru" d="M20 16h1v1h-1zm1 0h1v1h-1zm1 0h1v1h-1z"/><path fill="#2F4F4F" d="M23 16h1v1h-1zm1 0h1v1h-1z"/><path fill="peru" d="M25 16h1v1h-1z"/><path fill="#B22222" d="M26 16h1v1h-1z"/><path fill="#00F" d="M27 16h1v1h-1z"/><path fill="#B22222" d="M28 16h1v1h-1z"/><path d="M29 16h1v1h-1z"/><path fill="#1E90FF" d="M30 16h1v1h-1z"/><path fill="peru" d="M31 16h1v1h-1z"/><path d="M32 16h1v1h-1zM0 17h1v1H0zm1 0h1v1H1zm1 0h1v1H2z"/><path fill="#708090" d="M3 17h1v1H3z"/><path fill="#BEBEBE" d="M4 17h1v1H4zm1 0h1v1H5zm1 0h1v1H6z"/><path fill="#708090" d="M7 17h1v1H7z"/><path d="M8 17h1v1H8zm1 0h1v1H9zm1 0h1v1h-1z"/><path fill="#708090" d="M11 17h1v1h-1z"/><path d="M12 17h1v1h-1z"/><path fill="#1E90FF" d="M13 17h1v1h-1z"/><path d="M14 17h1v1h-1z"/><path fill="#B22222" d="M15 17h1v1h-1z"/><path fill="#00F" d="M16 17h1v1h-1z"/><path fill="peru" d="M17 17h1v1h-1zm1 0h1v1h-1zm1 0h1v1h-1zm1 0h1v1h-1z"/><path fill="#2F4F4F" d="M21 17h1v1h-1zm1 0h1v1h-1z"/><path fill="peru" d="M23 17h1v1h-1zm1 0h1v1h-1zm1 0h1v1h-1zm1 0h1v1h-1z"/><path fill="#B22222" d="M27 17h1v1h-1z"/><path fill="#00F" d="M28 17h1v1h-1z"/><path fill="#B22222" d="M29 17h1v1h-1z"/><path d="M30 17h1v1h-1z"/><path fill="#1E90FF" d="M31 17h1v1h-1z"/><path d="M32 17h1v1h-1z"/><path fill="#B22222" d="M0 18h1v1H0zm1 0h1v1H1z"/><path d="M2 18h1v1H2zm1 0h1v1H3zm1 0h1v1H4z"/><path fill="#708090" d="M5 18h1v1H5z"/><path fill="#BEBEBE" d="M6 18h1v1H6zm1 0h1v1H7zm1 0h1v1H8z"/><path fill="#708090" d="M9 18h1v1H9z"/><path d="M10 18h1v1h-1zm1 0h1v1h-1zm1 0h1v1h-1z"/><path fill="#00F" d="M13 18h1v1h-1z"/><path d="M14 18h1v1h-1z"/><path fill="#00F" d="M15 18h1v1h-1z"/><path fill="#B22222" d="M16 18h1v1h-1z"/><path fill="#00F" d="M17 18h1v1h-1z"/><path fill="peru" d="M18 18h1v1h-1zm1 0h1v1h-1z"/><path fill="#2F4F4F" d="M20 18h1v1h-1z"/><path fill="peru" d="M21 18h1v1h-1zm1 0h1v1h-1zm1 0h1v1h-1zm1 0h1v1h-1z"/><path fill="#00F" d="M25 18h1v1h-1z"/><path fill="#B22222" d="M26 18h1v1h-1z"/><path fill="#00F" d="M27 18h1v1h-1z"/><path fill="#B22222" d="M28 18h1v1h-1z"/><path fill="#00F" d="M29 18h1v1h-1z"/><path d="M30 18h1v1h-1z"/><path fill="peru" d="M31 18h1v1h-1z"/><path d="M32 18h1v1h-1z"/><path fill="#DCDCDC" d="M0 19h1v1H0zm1 0h1v1H1z"/><path fill="#B22222" d="M2 19h1v1H2zm1 0h1v1H3z"/><path d="M4 19h1v1H4zm1 0h1v1H5zm1 0h1v1H6z"/><path fill="#708090" d="M7 19h1v1H7zm1 0h1v1H8z"/><path d="M9 19h1v1H9zm1 0h1v1h-1zm1 0h1v1h-1zm1 0h1v1h-1z"/><path fill="#1E90FF" d="M13 19h1v1h-1z"/><path fill="#00F" d="M14 19h1v1h-1z"/><path d="M15 19h1v1h-1z"/><path fill="#00F" d="M16 19h1v1h-1z"/><path fill="#B22222" d="M17 19h1v1h-1z"/><path fill="peru" d="M18 19h1v1h-1zm1 0h1v1h-1zm1 0h1v1h-1zm1 0h1v1h-1zm1 0h1v1h-1z"/><path fill="#B22222" d="M23 19h1v1h-1z"/><path fill="#00F" d="M24 19h1v1h-1z"/><path fill="#B22222" d="M25 19h1v1h-1z"/><path fill="#00F" d="M26 19h1v1h-1z"/><path fill="#B22222" d="M27 19h1v1h-1z"/><path fill="#00F" d="M28 19h1v1h-1z"/><path fill="#B22222" d="M29 19h1v1h-1z"/><path fill="#00F" d="M30 19h1v1h-1z"/><path d="M31 19h1v1h-1zm1 0h1v1h-1z"/><path fill="#708090" d="M0 20h1v1H0zm1 0h1v1H1z"/><path fill="#DCDCDC" d="M2 20h1v1H2zm1 0h1v1H3z"/><path fill="#B22222" d="M4 20h1v1H4zm1 0h1v1H5z"/><path d="M6 20h1v1H6zm1 0h1v1H7zm1 0h1v1H8z"/><path fill="#BEBEBE" d="M9 20h1v1H9z"/><path fill="#B22222" d="M10 20h1v1h-1z"/><path d="M11 20h1v1h-1z"/><path fill="#F0F" d="M12 20h1v1h-1z"/><path d="M13 20h1v1h-1z"/><path fill="#1E90FF" d="M14 20h1v1h-1z"/><path fill="#00F" d="M15 20h1v1h-1z"/><path d="M16 20h1v1h-1z"/><path fill="#00F" d="M17 20h1v1h-1z"/><path fill="#B22222" d="M18 20h1v1h-1z"/><path fill="peru" d="M19 20h1v1h-1zm1 0h1v1h-1z"/><path fill="#00F" d="M21 20h1v1h-1z"/><path fill="#B22222" d="M22 20h1v1h-1z"/><path fill="#00F" d="M23 20h1v1h-1z"/><path fill="#B22222" d="M24 20h1v1h-1z"/><path fill="#00F" d="M25 20h1v1h-1z"/><path fill="#B22222" d="M26 20h1v1h-1z"/><path fill="#00F" d="M27 20h1v1h-1z"/><path fill="#B22222" d="M28 20h1v1h-1z"/><path fill="#00F" d="M29 20h1v1h-1z"/><path fill="#B22222" d="M30 20h1v1h-1z"/><path fill="#00F" d="M31 20h1v1h-1z"/><path d="M32 20h1v1h-1z"/><path fill="#DCDCDC" d="M0 21h1v1H0zm1 0h1v1H1z"/><path fill="#708090" d="M2 21h1v1H2z"/><path fill="#DCDCDC" d="M3 21h1v1H3zm1 0h1v1H4z"/><path d="M5 21h1v1H5zm1 0h1v1H6zm1 0h1v1H7z"/><path fill="#B22222" d="M8 21h1v1H8zm1 0h1v1H9z"/><path fill="#BEBEBE" d="M10 21h1v1h-1z"/><path d="M11 21h1v1h-1z"/><path fill="#F0F" d="M12 21h1v1h-1z"/><path fill="purple" d="M13 21h1v1h-1z"/><path d="M14 21h1v1h-1z"/><path fill="#1E90FF" d="M15 21h1v1h-1z"/><path d="M16 21h1v1h-1z"/><path fill="#B22222" d="M17 21h1v1h-1z"/><path fill="#00F" d="M18 21h1v1h-1z"/><path fill="#B22222" d="M19 21h1v1h-1z"/><path fill="#00F" d="M20 21h1v1h-1z"/><path fill="#B22222" d="M21 21h1v1h-1z"/><path fill="#00F" d="M22 21h1v1h-1z"/><path fill="#B22222" d="M23 21h1v1h-1z"/><path fill="#00F" d="M24 21h1v1h-1z"/><path fill="#B22222" d="M25 21h1v1h-1z"/><path fill="#00F" d="M26 21h1v1h-1z"/><path fill="#B22222" d="M27 21h1v1h-1z"/><path fill="#00F" d="M28 21h1v1h-1z"/><path fill="#B22222" d="M29 21h1v1h-1z"/><path fill="#00F" d="M30 21h1v1h-1z"/><path fill="#B22222" d="M31 21h1v1h-1z"/><path d="M32 21h1v1h-1z"/><path fill="#708090" d="M0 22h1v1H0z"/><path fill="#DCDCDC" d="M1 22h1v1H1z"/><path fill="#BEBEBE" d="M2 22h1v1H2z"/><path d="M3 22h1v1H3zm1 0h1v1H4z"/><path fill="#B22222" d="M5 22h1v1H5z"/><path d="M6 22h1v1H6zm1 0h1v1H7z"/><path fill="#BEBEBE" d="M8 22h1v1H8zm1 0h1v1H9z"/><path d="M10 22h1v1h-1zm1 0h1v1h-1z"/><path fill="#F0F" d="M12 22h1v1h-1z"/><path fill="purple" d="M13 22h1v1h-1z"/><path d="M14 22h1v1h-1z"/><path fill="#00F" d="M15 22h1v1h-1z"/><path fill="#1E90FF" d="M16 22h1v1h-1z"/><path d="M17 22h1v1h-1z"/><path fill="#B22222" d="M18 22h1v1h-1z"/><path fill="#00F" d="M19 22h1v1h-1z"/><path fill="#B22222" d="M20 22h1v1h-1z"/><path fill="#00F" d="M21 22h1v1h-1z"/><path fill="#B22222" d="M22 22h1v1h-1z"/><path fill="#00F" d="M23 22h1v1h-1z"/><path fill="#B22222" d="M24 22h1v1h-1z"/><path fill="#00F" d="M25 22h1v1h-1z"/><path fill="#B22222" d="M26 22h1v1h-1z"/><path fill="#00F" d="M27 22h1v1h-1z"/><path fill="#B22222" d="M28 22h1v1h-1z"/><path fill="#00F" d="M29 22h1v1h-1z"/><path d="M30 22h1v1h-1zm1 0h1v1h-1zM0 23h1v1H0zm1 0h1v1H1zm1 0h1v1H2z"/><path fill="#B22222" d="M3 23h1v1H3zm1 0h1v1H4z"/><path d="M5 23h1v1H5zm1 0h1v1H6zm1 0h1v1H7zm1 0h1v1H8z"/><path fill="#B22222" d="M9 23h1v1H9z"/><path fill="#BEBEBE" d="M10 23h1v1h-1z"/><path d="M11 23h1v1h-1z"/><path fill="#F0F" d="M12 23h1v1h-1z"/><path fill="purple" d="M13 23h1v1h-1zm1 0h1v1h-1z"/><path d="M15 23h1v1h-1z"/><path fill="#00F" d="M16 23h1v1h-1z"/><path fill="#1E90FF" d="M17 23h1v1h-1z"/><path d="M18 23h1v1h-1z"/><path fill="#B22222" d="M19 23h1v1h-1z"/><path fill="#00F" d="M20 23h1v1h-1z"/><path fill="#B22222" d="M21 23h1v1h-1z"/><path fill="#00F" d="M22 23h1v1h-1z"/><path fill="#B22222" d="M23 23h1v1h-1z"/><path fill="#00F" d="M24 23h1v1h-1z"/><path fill="#B22222" d="M25 23h1v1h-1z"/><path fill="#00F" d="M26 23h1v1h-1z"/><path fill="#B22222" d="M27 23h1v1h-1z"/><path d="M28 23h1v1h-1zm1 0h1v1h-1z"/><path fill="#FFFACD" d="M30 23h1v1h-1zm1 0h1v1h-1z"/><path fill="#2F4F4F" d="M32 23h1v1h-1z"/><path d="M0 24h1v1H0z"/><path fill="#B22222" d="M1 24h1v1H1zm1 0h1v1H2z"/><path d="M3 24h1v1H3z"/><path fill="#B22222" d="M4 24h1v1H4zm1 0h1v1H5z"/><path d="M6 24h1v1H6zm1 0h1v1H7z"/><path fill="#BEBEBE" d="M8 24h1v1H8zm1 0h1v1H9z"/><path fill="#B22222" d="M10 24h1v1h-1z"/><path d="M11 24h1v1h-1z"/><path fill="#F0F" d="M12 24h1v1h-1z"/><path fill="purple" d="M13 24h1v1h-1zm1 0h1v1h-1zm1 0h1v1h-1z"/><path d="M16 24h1v1h-1z"/><path fill="#00F" d="M17 24h1v1h-1z"/><path d="M18 24h1v1h-1z"/><path fill="#1E90FF" d="M19 24h1v1h-1z"/><path fill="#B22222" d="M20 24h1v1h-1z"/><path fill="#00F" d="M21 24h1v1h-1z"/><path fill="#B22222" d="M22 24h1v1h-1z"/><path fill="#00F" d="M23 24h1v1h-1z"/><path fill="#B22222" d="M24 24h1v1h-1z"/><path fill="#00F" d="M25 24h1v1h-1z"/><path d="M26 24h1v1h-1zm1 0h1v1h-1z"/><path fill="#FFFACD" d="M28 24h1v1h-1zm1 0h1v1h-1zm1 0h1v1h-1z"/><path fill="#1E90FF" d="M31 24h1v1h-1z"/><path d="M32 24h1v1h-1z"/><path fill="#B22222" d="M0 25h1v1H0z"/><path d="M1 25h1v1H1z"/><path fill="#B22222" d="M2 25h1v1H2zm1 0h1v1H3z"/><path fill="peru" d="M4 25h1v1H4zm1 0h1v1H5z"/><path d="M6 25h1v1H6zm1 0h1v1H7z"/><path fill="#B22222" d="M8 25h1v1H8zm1 0h1v1H9z"/><path fill="#BEBEBE" d="M10 25h1v1h-1z"/><path d="M11 25h1v1h-1z"/><path fill="#F0F" d="M12 25h1v1h-1z"/><path fill="purple" d="M13 25h1v1h-1zm1 0h1v1h-1zm1 0h1v1h-1z"/><path d="M16 25h1v1h-1z"/><path fill="#1E90FF" d="M17 25h1v1h-1z"/><path fill="#00F" d="M18 25h1v1h-1z"/><path d="M19 25h1v1h-1z"/><path fill="#00F" d="M20 25h1v1h-1z"/><path fill="#B22222" d="M21 25h1v1h-1z"/><path fill="#00F" d="M22 25h1v1h-1z"/><path fill="#B22222" d="M23 25h1v1h-1z"/><path d="M24 25h1v1h-1zm1 0h1v1h-1z"/><path fill="#FFFACD" d="M26 25h1v1h-1zm1 0h1v1h-1zm1 0h1v1h-1z"/><path fill="#1E90FF" d="M29 25h1v1h-1z"/><path d="M30 25h1v1h-1zm1 0h1v1h-1z"/><path fill="#2F4F4F" d="M32 25h1v1h-1z"/><path fill="#B22222" d="M0 26h1v1H0z"/><path d="M1 26h1v1H1z"/><path fill="peru" d="M2 26h1v1H2zm1 0h1v1H3zm1 0h1v1H4zm1 0h1v1H5z"/><path d="M6 26h1v1H6zm1 0h1v1H7z"/><path fill="#BEBEBE" d="M8 26h1v1H8zm1 0h1v1H9z"/><path fill="#B22222" d="M10 26h1v1h-1z"/><path d="M11 26h1v1h-1z"/><path fill="#F0F" d="M12 26h1v1h-1z"/><path fill="purple" d="M13 26h1v1h-1zm1 0h1v1h-1zm1 0h1v1h-1zm1 0h1v1h-1z"/><path d="M17 26h1v1h-1z"/><path fill="#1E90FF" d="M18 26h1v1h-1z"/><path fill="#00F" d="M19 26h1v1h-1z"/><path d="M20 26h1v1h-1z"/><path fill="#00F" d="M21 26h1v1h-1z"/><path d="M22 26h1v1h-1zm1 0h1v1h-1z"/><path fill="#FFFACD" d="M24 26h1v1h-1zm1 0h1v1h-1zm1 0h1v1h-1z"/><path fill="#1E90FF" d="M27 26h1v1h-1z"/><path d="M28 26h1v1h-1zm1 0h1v1h-1z"/><path fill="#2F4F4F" d="M30 26h1v1h-1zm1 0h1v1h-1z"/><path fill="#B22222" d="M0 27h1v1H0z"/><path d="M1 27h1v1H1z"/><path fill="peru" d="M2 27h1v1H2zm1 0h1v1H3z"/><path fill="#B22222" d="M4 27h1v1H4zm1 0h1v1H5z"/><path d="M6 27h1v1H6zm1 0h1v1H7z"/><path fill="#B22222" d="M8 27h1v1H8zm1 0h1v1H9z"/><path fill="#BEBEBE" d="M10 27h1v1h-1z"/><path d="M11 27h1v1h-1z"/><path fill="#F0F" d="M12 27h1v1h-1z"/><path fill="purple" d="M13 27h1v1h-1zm1 0h1v1h-1zm1 0h1v1h-1zm1 0h1v1h-1z"/><path d="M17 27h1v1h-1zm1 0h1v1h-1z"/><path fill="#1E90FF" d="M19 27h1v1h-1z"/><path d="M20 27h1v1h-1zm1 0h1v1h-1z"/><path fill="#FFFACD" d="M22 27h1v1h-1zm1 0h1v1h-1zm1 0h1v1h-1z"/><path fill="#1E90FF" d="M25 27h1v1h-1z"/><path d="M26 27h1v1h-1zm1 0h1v1h-1z"/><path fill="#2F4F4F" d="M28 27h1v1h-1zm1 0h1v1h-1z"/><path fill="#B22222" d="M0 28h1v1H0z"/><path d="M1 28h1v1H1z"/><path fill="#B22222" d="M2 28h1v1H2zm1 0h1v1H3zm1 0h1v1H4zm1 0h1v1H5z"/><path d="M6 28h1v1H6zm1 0h1v1H7z"/><path fill="#BEBEBE" d="M8 28h1v1H8zm1 0h1v1H9z"/><path fill="#B22222" d="M10 28h1v1h-1z"/><path d="M11 28h1v1h-1z"/><path fill="#F0F" d="M12 28h1v1h-1zm1 0h1v1h-1z"/><path fill="purple" d="M14 28h1v1h-1zm1 0h1v1h-1z"/><path d="M16 28h1v1h-1zm1 0h1v1h-1zm1 0h1v1h-1z"/><path fill="#00F" d="M19 28h1v1h-1z"/><path fill="#1E90FF" d="M20 28h1v1h-1z"/><path d="M21 28h1v1h-1z"/><path fill="#FFFACD" d="M22 28h1v1h-1z"/><path fill="#1E90FF" d="M23 28h1v1h-1z"/><path d="M24 28h1v1h-1zm1 0h1v1h-1z"/><path fill="#2F4F4F" d="M26 28h1v1h-1zm1 0h1v1h-1z"/><path fill="#708090" d="M28 28h1v1h-1z"/><path fill="#B22222" d="M0 29h1v1H0z"/><path d="M1 29h1v1H1z"/><path fill="#B22222" d="M2 29h1v1H2zm1 0h1v1H3zm1 0h1v1H4zm1 0h1v1H5z"/><path d="M6 29h1v1H6zm1 0h1v1H7z"/><path fill="#B22222" d="M8 29h1v1H8zm1 0h1v1H9z"/><path fill="#BEBEBE" d="M10 29h1v1h-1z"/><path d="M11 29h1v1h-1z"/><path fill="#F0F" d="M12 29h1v1h-1zm1 0h1v1h-1z"/><path d="M14 29h1v1h-1zm1 0h1v1h-1z"/><path fill="#2F4F4F" d="M16 29h1v1h-1zm1 0h1v1h-1zm1 0h1v1h-1z"/><path d="M19 29h1v1h-1z"/><path fill="#00F" d="M20 29h1v1h-1z"/><path d="M21 29h1v1h-1zm1 0h1v1h-1zm1 0h1v1h-1z"/><path fill="#2F4F4F" d="M24 29h1v1h-1zm1 0h1v1h-1z"/><path fill="#708090" d="M26 29h1v1h-1zm1 0h1v1h-1zm1 0h1v1h-1zm1 0h1v1h-1zm1 0h1v1h-1z"/><path fill="#B22222" d="M0 30h1v1H0z"/><path d="M1 30h1v1H1z"/><path fill="#B22222" d="M2 30h1v1H2zm1 0h1v1H3zm1 0h1v1H4zm1 0h1v1H5z"/><path d="M6 30h1v1H6zm1 0h1v1H7z"/><path fill="#BEBEBE" d="M8 30h1v1H8zm1 0h1v1H9z"/><path d="M10 30h1v1h-1zm1 0h1v1h-1zm1 0h1v1h-1zm1 0h1v1h-1z"/><path fill="#2E8B57" d="M14 30h1v1h-1zm1 0h1v1h-1zm1 0h1v1h-1z"/><path fill="#2F4F4F" d="M17 30h1v1h-1zm1 0h1v1h-1zm1 0h1v1h-1z"/><path d="M20 30h1v1h-1zm1 0h1v1h-1z"/><path fill="#2F4F4F" d="M22 30h1v1h-1zm1 0h1v1h-1z"/><path fill="#708090" d="M24 30h1v1h-1zm1 0h1v1h-1zm1 0h1v1h-1zm1 0h1v1h-1zm1 0h1v1h-1z"/><path fill="#B22222" d="M0 31h1v1H0z"/><path d="M1 31h1v1H1z"/><path fill="#B22222" d="M2 31h1v1H2zm1 0h1v1H3zm1 0h1v1H4z"/><path d="M5 31h1v1H5zm1 0h1v1H6zm1 0h1v1H7zm1 0h1v1H8z"/><path fill="#B22222" d="M9 31h1v1H9z"/><path d="M10 31h1v1h-1zm1 0h1v1h-1z"/><path fill="#2E8B57" d="M12 31h1v1h-1zm1 0h1v1h-1zm1 0h1v1h-1zm1 0h1v1h-1zm1 0h1v1h-1zm1 0h1v1h-1zm1 0h1v1h-1z"/><path fill="#2F4F4F" d="M19 31h1v1h-1zm1 0h1v1h-1zm1 0h1v1h-1z"/><path fill="#708090" d="M22 31h1v1h-1zm1 0h1v1h-1zm1 0h1v1h-1zm1 0h1v1h-1zm1 0h1v1h-1z"/><path fill="#B22222" d="M0 32h1v1H0z"/><path d="M1 32h1v1H1z"/><path fill="#B22222" d="M2 32h1v1H2z"/><path d="M3 32h1v1H3z"/><path fill="#B22222" d="M4 32h1v1H4zm1 0h1v1H5z"/><path d="M6 32h1v1H6zm1 0h1v1H7zm1 0h1v1H8zm1 0h1v1H9z"/><path fill="#2E8B57" d="M10 32h1v1h-1zm1 0h1v1h-1zm1 0h1v1h-1zm1 0h1v1h-1zm1 0h1v1h-1zm1 0h1v1h-1zm1 0h1v1h-1zm1 0h1v1h-1z"/><path d="M18 32h1v1h-1zm1 0h1v1h-1z"/><path fill="#708090" d="M20 32h1v1h-1zm1 0h1v1h-1zm1 0h1v1h-1zm1 0h1v1h-1zm1 0h1v1h-1z"/><path fill="#B22222" d="M0 33h1v1H0z"/><path d="M1 33h1v1H1z"/><path fill="#B22222" d="M2 33h1v1H2zm1 0h1v1H3zm1 0h1v1H4zm1 0h1v1H5z"/><path d="M6 33h1v1H6zm1 0h1v1H7z"/><path fill="#2E8B57" d="M8 33h1v1H8zm1 0h1v1H9zm1 0h1v1h-1zm1 0h1v1h-1zm1 0h1v1h-1zm1 0h1v1h-1zm1 0h1v1h-1zm1 0h1v1h-1z"/><path d="M16 33h1v1h-1zm1 0h1v1h-1z"/><path fill="#708090" d="M18 33h1v1h-1zm1 0h1v1h-1zm1 0h1v1h-1zm1 0h1v1h-1zm1 0h1v1h-1z"/><path d="M0 34h1v1H0zm1 0h1v1H1z"/><path fill="#B22222" d="M2 34h1v1H2zm1 0h1v1H3z"/><path d="M4 34h1v1H4zm1 0h1v1H5z"/><path fill="#708090" d="M6 34h1v1H6z"/><path d="M7 34h1v1H7z"/><path fill="#2E8B57" d="M8 34h1v1H8zm1 0h1v1H9zm1 0h1v1h-1zm1 0h1v1h-1zm1 0h1v1h-1zm1 0h1v1h-1z"/><path d="M14 34h1v1h-1zm1 0h1v1h-1z"/><path fill="#708090" d="M16 34h1v1h-1zm1 0h1v1h-1zm1 0h1v1h-1zm1 0h1v1h-1zm1 0h1v1h-1z"/><path d="M1 35h1v1H1zm1 0h1v1H2zm1 0h1v1H3z"/><path fill="#708090" d="M4 35h1v1H4zm1 0h1v1H5zm1 0h1v1H6zm1 0h1v1H7z"/><path d="M8 35h1v1H8zm1 0h1v1H9z"/><path fill="#2E8B57" d="M10 35h1v1h-1zm1 0h1v1h-1z"/><path d="M12 35h1v1h-1zm1 0h1v1h-1z"/><path fill="#708090" d="M14 35h1v1h-1zm1 0h1v1h-1zm1 0h1v1h-1zm1 0h1v1h-1zm1 0h1v1h-1zM3 36h1v1H3zm1 0h1v1H4zm1 0h1v1H5zm1 0h1v1H6zm1 0h1v1H7zm1 0h1v1H8zm1 0h1v1H9z"/><path d="M10 36h1v1h-1zm1 0h1v1h-1z"/><path fill="#708090" d="M12 36h1v1h-1zm1 0h1v1h-1zm1 0h1v1h-1zm1 0h1v1h-1zm1 0h1v1h-1zM5 37h1v1H5zm1 0h1v1H6zm1 0h1v1H7zm1 0h1v1H8zm1 0h1v1H9zm1 0h1v1h-1zm1 0h1v1h-1zm1 0h1v1h-1zm1 0h1v1h-1zm1 0h1v1h-1zm-7 1h1v1H7zm1 0h1v1H8zm1 0h1v1H9zm1 0h1v1h-1zm1 0h1v1h-1zm1 0h1v1h-1zm-3 1h1v1H9zm1 0h1v1h-1z"/></svg>
