<svg xmlns="http://www.w3.org/2000/svg" shape-rendering="crispEdges" viewBox="0 0 34 40"><path d="M12 0h1v1h-1zm1 0h1v1h-1zm1 0h1v1h-1zm1 0h1v1h-1zm1 0h1v1h-1zm1 0h1v1h-1zm1 0h1v1h-1zm1 0h1v1h-1zm1 0h1v1h-1zm1 0h1v1h-1zM10 1h1v1h-1zm1 0h1v1h-1z"/><path fill="sienna" d="M12 1h1v1h-1zm1 0h1v1h-1zm1 0h1v1h-1zm1 0h1v1h-1zm1 0h1v1h-1zm1 0h1v1h-1zm1 0h1v1h-1zm1 0h1v1h-1zm1 0h1v1h-1zm1 0h1v1h-1z"/><path d="M22 1h1v1h-1zM9 2h1v1H9z"/><path fill="sienna" d="M10 2h1v1h-1zm1 0h1v1h-1zm1 0h1v1h-1zm1 0h1v1h-1zm1 0h1v1h-1zm1 0h1v1h-1zm1 0h1v1h-1zm1 0h1v1h-1zm1 0h1v1h-1zm1 0h1v1h-1zm1 0h1v1h-1z"/><path d="M21 2h1v1h-1zm1 0h1v1h-1zM7 3h1v1H7zm1 0h1v1H8z"/><path fill="sienna" d="M9 3h1v1H9zm1 0h1v1h-1zm1 0h1v1h-1z"/><path d="M12 3h1v1h-1zm1 0h1v1h-1zm1 0h1v1h-1z"/><path fill="sienna" d="M15 3h1v1h-1zm1 0h1v1h-1zm1 0h1v1h-1zm1 0h1v1h-1z"/><path d="M19 3h1v1h-1zm1 0h1v1h-1zM6 4h1v1H6z"/><path fill="sienna" d="M7 4h1v1H7zm1 0h1v1H8zm1 0h1v1H9z"/><path d="M10 4h1v1h-1zm1 0h1v1h-1z"/><path fill="peru" d="M12 4h1v1h-1zm1 0h1v1h-1z"/><path d="M14 4h1v1h-1z"/><path fill="sienna" d="M15 4h1v1h-1zm1 0h1v1h-1z"/><path d="M17 4h1v1h-1zm1 0h1v1h-1zM5 5h1v1H5z"/><path fill="sienna" d="M6 5h1v1H6zm1 0h1v1H7z"/><path d="M8 5h1v1H8zm1 0h1v1H9z"/><path fill="peru" d="M10 5h1v1h-1zm1 0h1v1h-1z"/><path d="M12 5h1v1h-1z"/><path fill="peru" d="M13 5h1v1h-1z"/><path d="M14 5h1v1h-1zm1 0h1v1h-1zm1 0h1v1h-1zM3 6h1v1H3zm1 0h1v1H4z"/><path fill="sienna" d="M5 6h1v1H5zm1 0h1v1H6zm1 0h1v1H7z"/><path d="M8 6h1v1H8z"/><path fill="peru" d="M9 6h1v1H9z"/><path d="M10 6h1v1h-1z"/><path fill="peru" d="M11 6h1v1h-1zm1 0h1v1h-1zm1 0h1v1h-1z"/><path d="M14 6h1v1h-1zM2 7h1v1H2z"/><path fill="sienna" d="M3 7h1v1H3zm1 0h1v1H4zm1 0h1v1H5zm1 0h1v1H6zm1 0h1v1H7z"/><path d="M8 7h1v1H8z"/><path fill="peru" d="M9 7h1v1H9zm1 0h1v1h-1zm1 0h1v1h-1zm1 0h1v1h-1zm1 0h1v1h-1z"/><path d="M14 7h1v1h-1zM1 8h1v1H1z"/><path fill="sienna" d="M2 8h1v1H2zm1 0h1v1H3zm1 0h1v1H4zm1 0h1v1H5zm1 0h1v1H6z"/><path d="M7 8h1v1H7zm1 0h1v1H8z"/><path fill="peru" d="M9 8h1v1H9zm1 0h1v1h-1zm1 0h1v1h-1zm1 0h1v1h-1zm1 0h1v1h-1z"/><path d="M14 8h1v1h-1zM0 9h1v1H0z"/><path fill="sienna" d="M1 9h1v1H1zm1 0h1v1H2zm1 0h1v1H3zm1 0h1v1H4z"/><path d="M5 9h1v1H5zm1 0h1v1H6zm2 0h1v1H8z"/><path fill="peru" d="M9 9h1v1H9zm1 0h1v1h-1zm1 0h1v1h-1zm1 0h1v1h-1zm1 0h1v1h-1z"/><path d="M14 9h1v1h-1zM0 10h1v1H0z"/><path fill="sienna" d="M1 10h1v1H1zm1 0h1v1H2z"/><path d="M3 10h1v1H3zm1 0h1v1H4zm4 0h1v1H8z"/><path fill="peru" d="M9 10h1v1H9zm1 0h1v1h-1zm1 0h1v1h-1zm1 0h1v1h-1zm1 0h1v1h-1z"/><path d="M14 10h1v1h-1zM0 11h1v1H0zm1 0h1v1H1zm1 0h1v1H2zm6 0h1v1H8z"/><path fill="peru" d="M9 11h1v1H9zm1 0h1v1h-1zm1 0h1v1h-1zm1 0h1v1h-1zm1 0h1v1h-1z"/><path d="M14 11h1v1h-1zm-6 1h1v1H8z"/><path fill="peru" d="M9 12h1v1H9zm1 0h1v1h-1zm1 0h1v1h-1zm1 0h1v1h-1zm1 0h1v1h-1z"/><path d="M14 12h1v1h-1zm-6 1h1v1H8z"/><path fill="peru" d="M9 13h1v1H9zm1 0h1v1h-1zm1 0h1v1h-1zm1 0h1v1h-1zm1 0h1v1h-1z"/><path d="M14 13h1v1h-1zm-6 1h1v1H8z"/><path fill="peru" d="M9 14h1v1H9zm1 0h1v1h-1zm1 0h1v1h-1zm1 0h1v1h-1zm1 0h1v1h-1z"/><path d="M14 14h1v1h-1zm2 0h1v1h-1zm1 0h1v1h-1zm-9 1h1v1H8z"/><path fill="peru" d="M9 15h1v1H9zm1 0h1v1h-1zm1 0h1v1h-1zm1 0h1v1h-1zm1 0h1v1h-1z"/><path d="M14 15h1v1h-1zm2 0h1v1h-1z"/><path fill="#87CEEB" d="M17 15h1v1h-1z"/><path d="M18 15h1v1h-1zm1 0h1v1h-1zM8 16h1v1H8z"/><path fill="peru" d="M9 16h1v1H9zm1 0h1v1h-1zm1 0h1v1h-1zm1 0h1v1h-1zm1 0h1v1h-1z"/><path d="M14 16h1v1h-1zm2 0h1v1h-1z"/><path fill="#87CEEB" d="M17 16h1v1h-1zm1 0h1v1h-1zm1 0h1v1h-1z"/><path d="M20 16h1v1h-1zm1 0h1v1h-1zM8 17h1v1H8z"/><path fill="peru" d="M9 17h1v1H9zm1 0h1v1h-1zm1 0h1v1h-1zm1 0h1v1h-1zm1 0h1v1h-1z"/><path d="M14 17h1v1h-1zm2 0h1v1h-1z"/><path fill="#87CEEB" d="M17 17h1v1h-1zm1 0h1v1h-1zm1 0h1v1h-1zm1 0h1v1h-1zm1 0h1v1h-1z"/><path d="M22 17h1v1h-1zm1 0h1v1h-1zM8 18h1v1H8z"/><path fill="peru" d="M9 18h1v1H9zm1 0h1v1h-1zm1 0h1v1h-1zm1 0h1v1h-1zm1 0h1v1h-1z"/><path d="M14 18h1v1h-1zm2 0h1v1h-1z"/><path fill="#87CEEB" d="M17 18h1v1h-1z"/><path d="M18 18h1v1h-1zm1 0h1v1h-1z"/><path fill="#87CEEB" d="M20 18h1v1h-1zm1 0h1v1h-1zm1 0h1v1h-1zm1 0h1v1h-1z"/><path d="M24 18h1v1h-1zm1 0h1v1h-1zM8 19h1v1H8z"/><path fill="peru" d="M9 19h1v1H9zm1 0h1v1h-1zm1 0h1v1h-1zm1 0h1v1h-1zm1 0h1v1h-1z"/><path d="M14 19h1v1h-1zm2 0h1v1h-1z"/><path fill="#87CEEB" d="M17 19h1v1h-1z"/><path d="M18 19h1v1h-1zm2 0h1v1h-1zm1 0h1v1h-1z"/><path fill="#87CEEB" d="M22 19h1v1h-1zm1 0h1v1h-1zm1 0h1v1h-1zm1 0h1v1h-1z"/><path d="M26 19h1v1h-1zm1 0h1v1h-1zM8 20h1v1H8z"/><path fill="peru" d="M9 20h1v1H9zm1 0h1v1h-1zm1 0h1v1h-1zm1 0h1v1h-1zm1 0h1v1h-1z"/><path d="M14 20h1v1h-1zm2 0h1v1h-1z"/><path fill="#87CEEB" d="M17 20h1v1h-1z"/><path d="M18 20h1v1h-1zm2 0h1v1h-1zm1 0h1v1h-1zm1 0h1v1h-1zm1 0h1v1h-1z"/><path fill="#87CEEB" d="M24 20h1v1h-1zm1 0h1v1h-1zm1 0h1v1h-1zm1 0h1v1h-1z"/><path d="M28 20h1v1h-1zm1 0h1v1h-1zM8 21h1v1H8z"/><path fill="peru" d="M9 21h1v1H9zm1 0h1v1h-1zm1 0h1v1h-1zm1 0h1v1h-1zm1 0h1v1h-1z"/><path d="M14 21h1v1h-1zm2 0h1v1h-1z"/><path fill="#87CEEB" d="M17 21h1v1h-1z"/><path d="M18 21h1v1h-1zm1 0h1v1h-1z"/><path fill="#2E8B57" d="M20 21h1v1h-1zm1 0h1v1h-1z"/><path fill="#2F4F4F" d="M22 21h1v1h-1zm1 0h1v1h-1z"/><path d="M24 21h1v1h-1zm1 0h1v1h-1z"/><path fill="#87CEEB" d="M26 21h1v1h-1zm1 0h1v1h-1zm1 0h1v1h-1zm1 0h1v1h-1z"/><path d="M30 21h1v1h-1zm1 0h1v1h-1zM8 22h1v1H8z"/><path fill="peru" d="M9 22h1v1H9zm1 0h1v1h-1zm1 0h1v1h-1zm1 0h1v1h-1zm1 0h1v1h-1z"/><path d="M14 22h1v1h-1zm2 0h1v1h-1z"/><path fill="#87CEEB" d="M17 22h1v1h-1z"/><path d="M18 22h1v1h-1z"/><path fill="#2E8B57" d="M19 22h1v1h-1z"/><path fill="#2F4F4F" d="M20 22h1v1h-1zm1 0h1v1h-1zm1 0h1v1h-1z"/><path d="M23 22h1v1h-1zm1 0h1v1h-1z"/><path fill="#87CEEB" d="M25 22h1v1h-1zm1 0h1v1h-1zm1 0h1v1h-1z"/><path d="M28 22h1v1h-1zm1 0h1v1h-1zM8 23h1v1H8z"/><path fill="peru" d="M9 23h1v1H9zm1 0h1v1h-1zm1 0h1v1h-1zm1 0h1v1h-1zm1 0h1v1h-1z"/><path d="M14 23h1v1h-1zm1 0h1v1h-1zm1 0h1v1h-1z"/><path fill="#87CEEB" d="M17 23h1v1h-1z"/><path d="M18 23h1v1h-1z"/><path fill="#2F4F4F" d="M19 23h1v1h-1zm1 0h1v1h-1z"/><path d="M21 23h1v1h-1zm1 0h1v1h-1z"/><path fill="#87CEEB" d="M23 23h1v1h-1zm1 0h1v1h-1zm1 0h1v1h-1z"/><path d="M26 23h1v1h-1zm1 0h1v1h-1z"/><path fill="#2E8B57" d="M28 23h1v1h-1z"/><path d="M29 23h1v1h-1zm1 0h1v1h-1zM8 24h1v1H8z"/><path fill="peru" d="M9 24h1v1H9zm1 0h1v1h-1zm1 0h1v1h-1zm1 0h1v1h-1zm1 0h1v1h-1z"/><path d="M14 24h1v1h-1z"/><path fill="#2E8B57" d="M15 24h1v1h-1z"/><path d="M16 24h1v1h-1z"/><path fill="#87CEEB" d="M17 24h1v1h-1z"/><path d="M18 24h1v1h-1zm1 0h1v1h-1zm1 0h1v1h-1z"/><path fill="#87CEEB" d="M21 24h1v1h-1zm1 0h1v1h-1zm1 0h1v1h-1z"/><path d="M24 24h1v1h-1zm1 0h1v1h-1z"/><path fill="#2E8B57" d="M26 24h1v1h-1zm1 0h1v1h-1zm1 0h1v1h-1zm1 0h1v1h-1zm1 0h1v1h-1z"/><path d="M31 24h1v1h-1zm1 0h1v1h-1zM8 25h1v1H8z"/><path fill="peru" d="M9 25h1v1H9zm1 0h1v1h-1zm1 0h1v1h-1zm1 0h1v1h-1zm1 0h1v1h-1z"/><path d="M14 25h1v1h-1z"/><path fill="#2E8B57" d="M15 25h1v1h-1z"/><path d="M16 25h1v1h-1z"/><path fill="#87CEEB" d="M17 25h1v1h-1zm1 0h1v1h-1zm1 0h1v1h-1zm1 0h1v1h-1zm1 0h1v1h-1z"/><path d="M22 25h1v1h-1zm1 0h1v1h-1z"/><path fill="#2E8B57" d="M24 25h1v1h-1zm1 0h1v1h-1zm1 0h1v1h-1zm1 0h1v1h-1zm1 0h1v1h-1zm1 0h1v1h-1zm1 0h1v1h-1zm1 0h1v1h-1zm1 0h1v1h-1z"/><path d="M33 25h1v1h-1zM8 26h1v1H8z"/><path fill="peru" d="M9 26h1v1H9zm1 0h1v1h-1zm1 0h1v1h-1zm1 0h1v1h-1zm1 0h1v1h-1z"/><path d="M14 26h1v1h-1z"/><path fill="#2E8B57" d="M15 26h1v1h-1z"/><path d="M16 26h1v1h-1z"/><path fill="#87CEEB" d="M17 26h1v1h-1zm1 0h1v1h-1zm1 0h1v1h-1z"/><path d="M20 26h1v1h-1zm1 0h1v1h-1z"/><path fill="#2E8B57" d="M22 26h1v1h-1zm1 0h1v1h-1zm1 0h1v1h-1zm1 0h1v1h-1zm1 0h1v1h-1zm1 0h1v1h-1zm1 0h1v1h-1zm1 0h1v1h-1zm1 0h1v1h-1z"/><path d="M31 26h1v1h-1zm1 0h1v1h-1zM6 27h1v1H6zm1 0h1v1H7zm1 0h1v1H8z"/><path fill="peru" d="M9 27h1v1H9zm1 0h1v1h-1zm1 0h1v1h-1zm1 0h1v1h-1zm1 0h1v1h-1z"/><path d="M14 27h1v1h-1z"/><path fill="#2E8B57" d="M15 27h1v1h-1z"/><path d="M16 27h1v1h-1z"/><path fill="#87CEEB" d="M17 27h1v1h-1z"/><path d="M18 27h1v1h-1zm1 0h1v1h-1z"/><path fill="#2E8B57" d="M20 27h1v1h-1zm1 0h1v1h-1zm1 0h1v1h-1zm1 0h1v1h-1zm1 0h1v1h-1zm1 0h1v1h-1zm1 0h1v1h-1zm1 0h1v1h-1zm1 0h1v1h-1z"/><path d="M29 27h1v1h-1zm1 0h1v1h-1zM4 28h1v1H4zm1 0h1v1H5z"/><path fill="#2F4F4F" d="M6 28h1v1H6zm1 0h1v1H7z"/><path d="M8 28h1v1H8z"/><path fill="peru" d="M9 28h1v1H9zm1 0h1v1h-1z"/><path d="M11 28h1v1h-1z"/><path fill="peru" d="M12 28h1v1h-1zm1 0h1v1h-1z"/><path d="M14 28h1v1h-1z"/><path fill="#2E8B57" d="M15 28h1v1h-1z"/><path d="M16 28h1v1h-1zm1 0h1v1h-1z"/><path fill="#2E8B57" d="M18 28h1v1h-1zm1 0h1v1h-1zm1 0h1v1h-1zm1 0h1v1h-1zm1 0h1v1h-1zm1 0h1v1h-1zm1 0h1v1h-1zm1 0h1v1h-1zm1 0h1v1h-1z"/><path d="M27 28h1v1h-1zm1 0h1v1h-1z"/><path fill="#708090" d="M29 28h1v1h-1z"/><path d="M2 29h1v1H2zm1 0h1v1H3z"/><path fill="#2F4F4F" d="M4 29h1v1H4zm1 0h1v1H5zm1 0h1v1H6zm1 0h1v1H7z"/><path d="M8 29h1v1H8z"/><path fill="peru" d="M9 29h1v1H9zm1 0h1v1h-1z"/><path d="M11 29h1v1h-1zm1 0h1v1h-1zm1 0h1v1h-1z"/><path fill="#2E8B57" d="M14 29h1v1h-1zm1 0h1v1h-1zm1 0h1v1h-1zm1 0h1v1h-1zm1 0h1v1h-1zm1 0h1v1h-1zm1 0h1v1h-1zm1 0h1v1h-1zm1 0h1v1h-1zm1 0h1v1h-1zm1 0h1v1h-1z"/><path d="M25 29h1v1h-1zm1 0h1v1h-1z"/><path fill="#708090" d="M27 29h1v1h-1zm1 0h1v1h-1zm1 0h1v1h-1zm1 0h1v1h-1zm1 0h1v1h-1z"/><path d="M1 30h1v1H1z"/><path fill="#2E8B57" d="M2 30h1v1H2zm1 0h1v1H3zm1 0h1v1H4z"/><path fill="#2F4F4F" d="M5 30h1v1H5zm1 0h1v1H6zm1 0h1v1H7z"/><path d="M8 30h1v1H8z"/><path fill="peru" d="M9 30h1v1H9z"/><path d="M10 30h1v1h-1zm1 0h1v1h-1z"/><path fill="#2E8B57" d="M12 30h1v1h-1zm1 0h1v1h-1zm1 0h1v1h-1zm1 0h1v1h-1zm1 0h1v1h-1zm1 0h1v1h-1zm1 0h1v1h-1zm1 0h1v1h-1zm1 0h1v1h-1zm1 0h1v1h-1zm1 0h1v1h-1z"/><path d="M23 30h1v1h-1zm1 0h1v1h-1z"/><path fill="#708090" d="M25 30h1v1h-1zm1 0h1v1h-1zm1 0h1v1h-1zm1 0h1v1h-1zm1 0h1v1h-1z"/><path d="M1 31h1v1H1zm1 0h1v1H2z"/><path fill="#2E8B57" d="M3 31h1v1H3zm1 0h1v1H4zm1 0h1v1H5zm1 0h1v1H6z"/><path fill="#2F4F4F" d="M7 31h1v1H7z"/><path d="M8 31h1v1H8zm1 0h1v1H9z"/><path fill="#2E8B57" d="M10 31h1v1h-1zm1 0h1v1h-1zm1 0h1v1h-1zm1 0h1v1h-1zm1 0h1v1h-1zm1 0h1v1h-1zm1 0h1v1h-1zm1 0h1v1h-1zm1 0h1v1h-1zm1 0h1v1h-1zm1 0h1v1h-1z"/><path d="M21 31h1v1h-1zm1 0h1v1h-1z"/><path fill="#708090" d="M23 31h1v1h-1zm1 0h1v1h-1zm1 0h1v1h-1zm1 0h1v1h-1zm1 0h1v1h-1z"/><path d="M3 32h1v1H3zm1 0h1v1H4z"/><path fill="#2E8B57" d="M5 32h1v1H5zm1 0h1v1H6zm1 0h1v1H7zm1 0h1v1H8zm1 0h1v1H9zm1 0h1v1h-1zm1 0h1v1h-1zm1 0h1v1h-1zm1 0h1v1h-1zm1 0h1v1h-1zm1 0h1v1h-1zm1 0h1v1h-1zm1 0h1v1h-1zm1 0h1v1h-1z"/><path d="M19 32h1v1h-1zm1 0h1v1h-1z"/><path fill="#708090" d="M21 32h1v1h-1zm1 0h1v1h-1zm1 0h1v1h-1zm1 0h1v1h-1zm1 0h1v1h-1zM2 33h1v1H2zm1 0h1v1H3zm1 0h1v1H4z"/><path d="M5 33h1v1H5zm1 0h1v1H6z"/><path fill="#2E8B57" d="M7 33h1v1H7zm1 0h1v1H8zm1 0h1v1H9zm1 0h1v1h-1zm1 0h1v1h-1zm1 0h1v1h-1zm1 0h1v1h-1zm1 0h1v1h-1zm1 0h1v1h-1zm1 0h1v1h-1z"/><path d="M17 33h1v1h-1zm1 0h1v1h-1z"/><path fill="#708090" d="M19 33h1v1h-1zm1 0h1v1h-1zm1 0h1v1h-1zm1 0h1v1h-1zm1 0h1v1h-1zM1 34h1v1H1zm1 0h1v1H2zm1 0h1v1H3zm1 0h1v1H4zm1 0h1v1H5zm1 0h1v1H6z"/><path d="M7 34h1v1H7zm1 0h1v1H8z"/><path fill="#2E8B57" d="M9 34h1v1H9zm1 0h1v1h-1zm1 0h1v1h-1zm1 0h1v1h-1zm1 0h1v1h-1zm1 0h1v1h-1z"/><path d="M15 34h1v1h-1zm1 0h1v1h-1z"/><path fill="#708090" d="M17 34h1v1h-1zm1 0h1v1h-1zm1 0h1v1h-1zm1 0h1v1h-1zm1 0h1v1h-1zM2 35h1v1H2zm1 0h1v1H3zm1 0h1v1H4zm1 0h1v1H5zm1 0h1v1H6zm1 0h1v1H7zm1 0h1v1H8z"/><path d="M9 35h1v1H9zm1 0h1v1h-1z"/><path fill="#2E8B57" d="M11 35h1v1h-1zm1 0h1v1h-1z"/><path d="M13 35h1v1h-1zm1 0h1v1h-1z"/><path fill="#708090" d="M15 35h1v1h-1zm1 0h1v1h-1zm1 0h1v1h-1zm1 0h1v1h-1zm1 0h1v1h-1zM4 36h1v1H4zm1 0h1v1H5zm1 0h1v1H6zm1 0h1v1H7zm1 0h1v1H8zm1 0h1v1H9zm1 0h1v1h-1z"/><path d="M11 36h1v1h-1zm1 0h1v1h-1z"/><path fill="#708090" d="M13 36h1v1h-1zm1 0h1v1h-1zm1 0h1v1h-1zm1 0h1v1h-1zm1 0h1v1h-1zM6 37h1v1H6zm1 0h1v1H7zm1 0h1v1H8zm1 0h1v1H9zm1 0h1v1h-1zm1 0h1v1h-1zm1 0h1v1h-1zm1 0h1v1h-1zm1 0h1v1h-1zm1 0h1v1h-1zm-7 1h1v1H8zm1 0h1v1H9zm1 0h1v1h-1zm1 0h1v1h-1zm1 0h1v1h-1zm1 0h1v1h-1zm-3 1h1v1h-1zm1 0h1v1h-1z"/></svg>
