<svg xmlns="http://www.w3.org/2000/svg" shape-rendering="crispEdges" viewBox="0 0 33 40"><path fill="#2F4F4F" d="M23 0h1v1h-1zm1 0h1v1h-1zm-3 1h1v1h-1zm1 0h1v1h-1z"/><path fill="#FFFACD" d="M23 1h1v1h-1z"/><path fill="#2F4F4F" d="M24 1h1v1h-1zm-5 1h1v1h-1zm1 0h1v1h-1z"/><path fill="#FFFACD" d="M21 2h1v1h-1zm1 0h1v1h-1zm1 0h1v1h-1z"/><path fill="#2F4F4F" d="M24 2h1v1h-1zm-7 1h1v1h-1zm1 0h1v1h-1z"/><path fill="#FFFACD" d="M19 3h1v1h-1zm1 0h1v1h-1zm1 0h1v1h-1zm1 0h1v1h-1zm1 0h1v1h-1z"/><path fill="#2F4F4F" d="M24 3h1v1h-1zm-9 1h1v1h-1zm1 0h1v1h-1z"/><path fill="#FFFACD" d="M17 4h1v1h-1zm1 0h1v1h-1zm1 0h1v1h-1zm1 0h1v1h-1z"/><path fill="#2F4F4F" d="M21 4h1v1h-1zm1 0h1v1h-1z"/><path fill="#FFFACD" d="M23 4h1v1h-1z"/><path fill="#2F4F4F" d="M24 4h1v1h-1zM13 5h1v1h-1zm1 0h1v1h-1z"/><path fill="#FFFACD" d="M15 5h1v1h-1zm1 0h1v1h-1zm1 0h1v1h-1zm1 0h1v1h-1z"/><path fill="#2F4F4F" d="M19 5h1v1h-1zm1 0h1v1h-1z"/><path fill="#FFFACD" d="M21 5h1v1h-1zm1 0h1v1h-1zm1 0h1v1h-1z"/><path fill="#2F4F4F" d="M24 5h1v1h-1zM11 6h1v1h-1zm1 0h1v1h-1z"/><path fill="#FFFACD" d="M13 6h1v1h-1zm1 0h1v1h-1z"/><path d="M15 6h1v1h-1zm1 0h1v1h-1zm1 0h1v1h-1zm1 0h1v1h-1zm1 0h1v1h-1zm1 0h1v1h-1zm1 0h1v1h-1z"/><path fill="#2F4F4F" d="M22 6h1v1h-1z"/><path fill="#FFFACD" d="M23 6h1v1h-1z"/><path fill="#2F4F4F" d="M24 6h1v1h-1zM9 7h1v1H9zm1 0h1v1h-1z"/><path fill="#FFFACD" d="M11 7h1v1h-1zm1 0h1v1h-1z"/><path d="M13 7h1v1h-1zm1 0h1v1h-1z"/><path fill="#2F4F4F" d="M15 7h1v1h-1zm1 0h1v1h-1zm1 0h1v1h-1zm1 0h1v1h-1zm1 0h1v1h-1zm1 0h1v1h-1zm1 0h1v1h-1z"/><path d="M22 7h1v1h-1zm1 0h1v1h-1z"/><path fill="#2F4F4F" d="M24 7h1v1h-1zM7 8h1v1H7zm1 0h1v1H8z"/><path fill="#FFFACD" d="M9 8h1v1H9zm1 0h1v1h-1zm1 0h1v1h-1z"/><path d="M12 8h1v1h-1z"/><path fill="#2F4F4F" d="M13 8h1v1h-1zm1 0h1v1h-1zm1 0h1v1h-1z"/><path d="M16 8h1v1h-1z"/><path fill="wheat" d="M17 8h1v1h-1zm1 0h1v1h-1zm1 0h1v1h-1z"/><path fill="#2F4F4F" d="M20 8h1v1h-1zm1 0h1v1h-1zm1 0h1v1h-1zm1 0h1v1h-1z"/><path d="M24 8h1v1h-1z"/><path fill="#2F4F4F" d="M6 9h1v1H6z"/><path fill="#FFFACD" d="M7 9h1v1H7zm1 0h1v1H8zm1 0h1v1H9zm1 0h1v1h-1z"/><path d="M11 9h1v1h-1z"/><path fill="#2F4F4F" d="M12 9h1v1h-1zm1 0h1v1h-1z"/><path d="M14 9h1v1h-1zm1 0h1v1h-1z"/><path fill="wheat" d="M16 9h1v1h-1zm1 0h1v1h-1zm1 0h1v1h-1zm1 0h1v1h-1zm1 0h1v1h-1zm1 0h1v1h-1z"/><path fill="#2F4F4F" d="M22 9h1v1h-1zm1 0h1v1h-1zm1 0h1v1h-1z"/><path d="M25 9h1v1h-1z"/><path fill="#2F4F4F" d="M6 10h1v1H6z"/><path fill="#FFFACD" d="M7 10h1v1H7zm1 0h1v1H8z"/><path fill="#2F4F4F" d="M9 10h1v1H9z"/><path d="M10 10h1v1h-1z"/><path fill="#2F4F4F" d="M11 10h1v1h-1zm1 0h1v1h-1z"/><path d="M13 10h1v1h-1z"/><path fill="wheat" d="M14 10h1v1h-1zm1 0h1v1h-1zm1 0h1v1h-1zm1 0h1v1h-1zm1 0h1v1h-1zm1 0h1v1h-1zm1 0h1v1h-1z"/><path fill="#FFFACD" d="M21 10h1v1h-1z"/><path fill="wheat" d="M22 10h1v1h-1z"/><path fill="#2F4F4F" d="M23 10h1v1h-1zm1 0h1v1h-1zm1 0h1v1h-1z"/><path d="M26 10h1v1h-1z"/><path fill="#2F4F4F" d="M6 11h1v1H6z"/><path fill="#FFFACD" d="M7 11h1v1H7z"/><path fill="#2F4F4F" d="M8 11h1v1H8z"/><path d="M9 11h1v1H9z"/><path fill="#2F4F4F" d="M10 11h1v1h-1zm1 0h1v1h-1zm1 0h1v1h-1z"/><path d="M13 11h1v1h-1z"/><path fill="wheat" d="M14 11h1v1h-1zm1 0h1v1h-1zm1 0h1v1h-1zm1 0h1v1h-1z"/><path d="M18 11h1v1h-1z"/><path fill="wheat" d="M19 11h1v1h-1zm1 0h1v1h-1zm1 0h1v1h-1z"/><path fill="#FFFACD" d="M22 11h1v1h-1z"/><path fill="wheat" d="M23 11h1v1h-1z"/><path fill="#2F4F4F" d="M24 11h1v1h-1zm1 0h1v1h-1zm1 0h1v1h-1z"/><path d="M27 11h1v1h-1z"/><path fill="#2F4F4F" d="M6 12h1v1H6z"/><path fill="#FFFACD" d="M7 12h1v1H7zm1 0h1v1H8z"/><path d="M9 12h1v1H9z"/><path fill="#2F4F4F" d="M10 12h1v1h-1zm1 0h1v1h-1z"/><path d="M12 12h1v1h-1z"/><path fill="wheat" d="M13 12h1v1h-1zm1 0h1v1h-1zm1 0h1v1h-1z"/><path d="M16 12h1v1h-1z"/><path fill="wheat" d="M17 12h1v1h-1z"/><path d="M18 12h1v1h-1z"/><path fill="wheat" d="M19 12h1v1h-1z"/><path d="M20 12h1v1h-1z"/><path fill="wheat" d="M21 12h1v1h-1z"/><path fill="#FFFACD" d="M22 12h1v1h-1z"/><path fill="wheat" d="M23 12h1v1h-1z"/><path fill="#2F4F4F" d="M24 12h1v1h-1zm1 0h1v1h-1zm1 0h1v1h-1z"/><path d="M27 12h1v1h-1z"/><path fill="#2F4F4F" d="M6 13h1v1H6z"/><path fill="#FFFACD" d="M7 13h1v1H7z"/><path d="M8 13h1v1H8z"/><path fill="#2F4F4F" d="M9 13h1v1H9zm1 0h1v1h-1zm1 0h1v1h-1z"/><path d="M12 13h1v1h-1z"/><path fill="wheat" d="M13 13h1v1h-1z"/><path d="M14 13h1v1h-1z"/><path fill="wheat" d="M15 13h1v1h-1z"/><path d="M16 13h1v1h-1z"/><path fill="wheat" d="M17 13h1v1h-1z"/><path d="M18 13h1v1h-1zm1 0h1v1h-1z"/><path fill="wheat" d="M20 13h1v1h-1zm1 0h1v1h-1zm1 0h1v1h-1z"/><path fill="#FFFACD" d="M23 13h1v1h-1z"/><path fill="#2F4F4F" d="M24 13h1v1h-1zm1 0h1v1h-1zm1 0h1v1h-1zm1 0h1v1h-1z"/><path d="M28 13h1v1h-1z"/><path fill="#2F4F4F" d="M6 14h1v1H6z"/><path fill="#FFFACD" d="M7 14h1v1H7z"/><path d="M8 14h1v1H8z"/><path fill="#2F4F4F" d="M9 14h1v1H9zm1 0h1v1h-1z"/><path d="M11 14h1v1h-1z"/><path fill="wheat" d="M12 14h1v1h-1zm1 0h1v1h-1z"/><path d="M14 14h1v1h-1zm1 0h1v1h-1z"/><path fill="wheat" d="M16 14h1v1h-1zm1 0h1v1h-1zm1 0h1v1h-1zm1 0h1v1h-1zm1 0h1v1h-1zm1 0h1v1h-1zm1 0h1v1h-1z"/><path fill="#FFFACD" d="M23 14h1v1h-1z"/><path fill="#2F4F4F" d="M24 14h1v1h-1zm1 0h1v1h-1zm1 0h1v1h-1zm1 0h1v1h-1z"/><path d="M28 14h1v1h-1z"/><path fill="#2F4F4F" d="M6 15h1v1H6z"/><path fill="#FFFACD" d="M7 15h1v1H7z"/><path d="M8 15h1v1H8z"/><path fill="#2F4F4F" d="M9 15h1v1H9zm1 0h1v1h-1z"/><path d="M11 15h1v1h-1z"/><path fill="wheat" d="M12 15h1v1h-1zm1 0h1v1h-1z"/><path d="M14 15h1v1h-1z"/><path fill="wheat" d="M15 15h1v1h-1zm1 0h1v1h-1zm1 0h1v1h-1zm1 0h1v1h-1zm1 0h1v1h-1zm1 0h1v1h-1z"/><path d="M21 15h1v1h-1z"/><path fill="wheat" d="M22 15h1v1h-1z"/><path fill="#FFFACD" d="M23 15h1v1h-1z"/><path fill="#2F4F4F" d="M24 15h1v1h-1zm1 0h1v1h-1zm1 0h1v1h-1zm1 0h1v1h-1z"/><path d="M28 15h1v1h-1z"/><path fill="#2F4F4F" d="M6 16h1v1H6z"/><path fill="#FFFACD" d="M7 16h1v1H7z"/><path d="M8 16h1v1H8z"/><path fill="#2F4F4F" d="M9 16h1v1H9zm1 0h1v1h-1z"/><path d="M11 16h1v1h-1z"/><path fill="wheat" d="M12 16h1v1h-1zm1 0h1v1h-1zm1 0h1v1h-1zm1 0h1v1h-1zm1 0h1v1h-1zm1 0h1v1h-1z"/><path d="M18 16h1v1h-1z"/><path fill="wheat" d="M19 16h1v1h-1z"/><path d="M20 16h1v1h-1z"/><path fill="wheat" d="M21 16h1v1h-1zm1 0h1v1h-1z"/><path fill="#FFFACD" d="M23 16h1v1h-1z"/><path fill="#2F4F4F" d="M24 16h1v1h-1zm1 0h1v1h-1zm1 0h1v1h-1zm1 0h1v1h-1z"/><path d="M28 16h1v1h-1z"/><path fill="#2F4F4F" d="M6 17h1v1H6z"/><path fill="#FFFACD" d="M7 17h1v1H7z"/><path d="M8 17h1v1H8z"/><path fill="#2F4F4F" d="M9 17h1v1H9zm1 0h1v1h-1z"/><path d="M11 17h1v1h-1z"/><path fill="wheat" d="M12 17h1v1h-1zm1 0h1v1h-1zm1 0h1v1h-1zm1 0h1v1h-1z"/><path d="M16 17h1v1h-1z"/><path fill="wheat" d="M17 17h1v1h-1z"/><path d="M18 17h1v1h-1z"/><path fill="wheat" d="M19 17h1v1h-1z"/><path d="M20 17h1v1h-1z"/><path fill="wheat" d="M21 17h1v1h-1zm1 0h1v1h-1z"/><path fill="#FFFACD" d="M23 17h1v1h-1z"/><path fill="#2F4F4F" d="M24 17h1v1h-1zm1 0h1v1h-1zm1 0h1v1h-1zm1 0h1v1h-1z"/><path d="M28 17h1v1h-1z"/><path fill="#2F4F4F" d="M6 18h1v1H6z"/><path fill="#FFFACD" d="M7 18h1v1H7z"/><path d="M8 18h1v1H8z"/><path fill="#2F4F4F" d="M9 18h1v1H9zm1 0h1v1h-1z"/><path d="M11 18h1v1h-1z"/><path fill="wheat" d="M12 18h1v1h-1zm1 0h1v1h-1z"/><path d="M14 18h1v1h-1z"/><path fill="wheat" d="M15 18h1v1h-1z"/><path d="M16 18h1v1h-1zm1 0h1v1h-1zm1 0h1v1h-1z"/><path fill="wheat" d="M19 18h1v1h-1zm1 0h1v1h-1zm1 0h1v1h-1zm1 0h1v1h-1z"/><path fill="#FFFACD" d="M23 18h1v1h-1z"/><path fill="#2F4F4F" d="M24 18h1v1h-1zm1 0h1v1h-1zm1 0h1v1h-1zm1 0h1v1h-1z"/><path d="M28 18h1v1h-1z"/><path fill="#2F4F4F" d="M6 19h1v1H6z"/><path fill="#FFFACD" d="M7 19h1v1H7z"/><path d="M8 19h1v1H8z"/><path fill="#2F4F4F" d="M9 19h1v1H9zm1 0h1v1h-1zm1 0h1v1h-1z"/><path d="M12 19h1v1h-1z"/><path fill="wheat" d="M13 19h1v1h-1z"/><path d="M14 19h1v1h-1zm1 0h1v1h-1zm1 0h1v1h-1z"/><path fill="wheat" d="M17 19h1v1h-1zm1 0h1v1h-1zm1 0h1v1h-1zm1 0h1v1h-1zm1 0h1v1h-1zm1 0h1v1h-1z"/><path fill="#FFFACD" d="M23 19h1v1h-1z"/><path fill="#2F4F4F" d="M24 19h1v1h-1zm1 0h1v1h-1zm1 0h1v1h-1zm1 0h1v1h-1z"/><path d="M28 19h1v1h-1z"/><path fill="#2F4F4F" d="M6 20h1v1H6z"/><path fill="#FFFACD" d="M7 20h1v1H7zm1 0h1v1H8z"/><path d="M9 20h1v1H9z"/><path fill="#2F4F4F" d="M10 20h1v1h-1zm1 0h1v1h-1z"/><path d="M12 20h1v1h-1z"/><path fill="wheat" d="M13 20h1v1h-1z"/><path d="M14 20h1v1h-1z"/><path fill="wheat" d="M15 20h1v1h-1zm1 0h1v1h-1zm1 0h1v1h-1zm1 0h1v1h-1zm1 0h1v1h-1z"/><path d="M20 20h1v1h-1zm1 0h1v1h-1z"/><path fill="#FFFACD" d="M22 20h1v1h-1z"/><path fill="wheat" d="M23 20h1v1h-1z"/><path fill="#2F4F4F" d="M24 20h1v1h-1zm1 0h1v1h-1zm1 0h1v1h-1z"/><path d="M27 20h1v1h-1z"/><path fill="#2F4F4F" d="M6 21h1v1H6z"/><path fill="#FFFACD" d="M7 21h1v1H7zm1 0h1v1H8z"/><path d="M9 21h1v1H9z"/><path fill="#2F4F4F" d="M10 21h1v1h-1zm1 0h1v1h-1zm1 0h1v1h-1z"/><path d="M13 21h1v1h-1z"/><path fill="wheat" d="M14 21h1v1h-1zm1 0h1v1h-1zm1 0h1v1h-1zm1 0h1v1h-1z"/><path d="M18 21h1v1h-1zm1 0h1v1h-1z"/><path fill="wheat" d="M20 21h1v1h-1zm1 0h1v1h-1z"/><path fill="#FFFACD" d="M22 21h1v1h-1z"/><path fill="wheat" d="M23 21h1v1h-1z"/><path fill="#2F4F4F" d="M24 21h1v1h-1zm1 0h1v1h-1zm1 0h1v1h-1z"/><path d="M27 21h1v1h-1z"/><path fill="#2F4F4F" d="M6 22h1v1H6z"/><path fill="#FFFACD" d="M7 22h1v1H7zm1 0h1v1H8zm1 0h1v1H9z"/><path d="M10 22h1v1h-1z"/><path fill="#2F4F4F" d="M11 22h1v1h-1zm1 0h1v1h-1z"/><path d="M13 22h1v1h-1z"/><path fill="wheat" d="M14 22h1v1h-1zm1 0h1v1h-1zm1 0h1v1h-1z"/><path d="M17 22h1v1h-1z"/><path fill="wheat" d="M18 22h1v1h-1z"/><path d="M19 22h1v1h-1zm1 0h1v1h-1z"/><path fill="#FFFACD" d="M21 22h1v1h-1z"/><path fill="wheat" d="M22 22h1v1h-1z"/><path fill="#2F4F4F" d="M23 22h1v1h-1zm1 0h1v1h-1zm1 0h1v1h-1z"/><path d="M26 22h1v1h-1zm1 0h1v1h-1z"/><path fill="#2F4F4F" d="M6 23h1v1H6z"/><path fill="#FFFACD" d="M7 23h1v1H7zm1 0h1v1H8z"/><path fill="#2F4F4F" d="M9 23h1v1H9zm1 0h1v1h-1z"/><path d="M11 23h1v1h-1z"/><path fill="#2F4F4F" d="M12 23h1v1h-1zm1 0h1v1h-1z"/><path d="M14 23h1v1h-1zm1 0h1v1h-1z"/><path fill="#708090" d="M16 23h1v1h-1z"/><path d="M17 23h1v1h-1zm1 0h1v1h-1z"/><path fill="wheat" d="M19 23h1v1h-1zm1 0h1v1h-1z"/><path fill="#2F4F4F" d="M21 23h1v1h-1zm1 0h1v1h-1zm1 0h1v1h-1zm1 0h1v1h-1z"/><path d="M25 23h1v1h-1z"/><path fill="#2E8B57" d="M26 23h1v1h-1zm1 0h1v1h-1z"/><path d="M28 23h1v1h-1zm1 0h1v1h-1z"/><path fill="#2F4F4F" d="M6 24h1v1H6z"/><path fill="#FFFACD" d="M7 24h1v1H7zm1 0h1v1H8zm1 0h1v1H9zm1 0h1v1h-1zm1 0h1v1h-1z"/><path d="M12 24h1v1h-1z"/><path fill="#2F4F4F" d="M13 24h1v1h-1zm1 0h1v1h-1zm1 0h1v1h-1z"/><path d="M16 24h1v1h-1z"/><path fill="#708090" d="M17 24h1v1h-1z"/><path d="M18 24h1v1h-1z"/><path fill="#2F4F4F" d="M19 24h1v1h-1zm1 0h1v1h-1zm1 0h1v1h-1zm1 0h1v1h-1zm1 0h1v1h-1z"/><path d="M24 24h1v1h-1z"/><path fill="#2E8B57" d="M25 24h1v1h-1zm1 0h1v1h-1zm1 0h1v1h-1zm1 0h1v1h-1zm1 0h1v1h-1z"/><path d="M30 24h1v1h-1zm1 0h1v1h-1z"/><path fill="#2F4F4F" d="M6 25h1v1H6z"/><path fill="#FFFACD" d="M7 25h1v1H7zm1 0h1v1H8zm1 0h1v1H9zm1 0h1v1h-1zm1 0h1v1h-1zm1 0h1v1h-1z"/><path d="M13 25h1v1h-1zm1 0h1v1h-1z"/><path fill="#2F4F4F" d="M15 25h1v1h-1zm1 0h1v1h-1zm1 0h1v1h-1z"/><path d="M18 25h1v1h-1zm1 0h1v1h-1zm1 0h1v1h-1z"/><path fill="#2F4F4F" d="M21 25h1v1h-1z"/><path d="M22 25h1v1h-1zm1 0h1v1h-1z"/><path fill="#2E8B57" d="M24 25h1v1h-1zm1 0h1v1h-1zm1 0h1v1h-1zm1 0h1v1h-1zm1 0h1v1h-1zm1 0h1v1h-1zm1 0h1v1h-1zm1 0h1v1h-1z"/><path d="M32 25h1v1h-1z"/><path fill="#2F4F4F" d="M6 26h1v1H6z"/><path fill="#FFFACD" d="M7 26h1v1H7zm1 0h1v1H8zm1 0h1v1H9zm1 0h1v1h-1zm1 0h1v1h-1zm1 0h1v1h-1zm1 0h1v1h-1zm1 0h1v1h-1z"/><path d="M15 26h1v1h-1zm1 0h1v1h-1zm1 0h1v1h-1z"/><path fill="#B22222" d="M18 26h1v1h-1zm1 0h1v1h-1z"/><path d="M20 26h1v1h-1zm1 0h1v1h-1z"/><path fill="#2E8B57" d="M22 26h1v1h-1zm1 0h1v1h-1zm1 0h1v1h-1zm1 0h1v1h-1zm1 0h1v1h-1zm1 0h1v1h-1zm1 0h1v1h-1zm1 0h1v1h-1z"/><path d="M30 26h1v1h-1zm1 0h1v1h-1zM5 27h1v1H5z"/><path fill="#2F4F4F" d="M6 27h1v1H6z"/><path fill="#FFFACD" d="M7 27h1v1H7zm1 0h1v1H8zm1 0h1v1H9zm1 0h1v1h-1zm1 0h1v1h-1zm1 0h1v1h-1z"/><path fill="#2F4F4F" d="M13 27h1v1h-1zm1 0h1v1h-1z"/><path fill="#2E8B57" d="M15 27h1v1h-1z"/><path d="M16 27h1v1h-1z"/><path fill="#B22222" d="M17 27h1v1h-1z"/><path fill="#2F4F4F" d="M18 27h1v1h-1z"/><path fill="#B22222" d="M19 27h1v1h-1zm1 0h1v1h-1z"/><path d="M21 27h1v1h-1z"/><path fill="#2E8B57" d="M22 27h1v1h-1zm1 0h1v1h-1zm1 0h1v1h-1zm1 0h1v1h-1zm1 0h1v1h-1zm1 0h1v1h-1z"/><path d="M28 27h1v1h-1zm1 0h1v1h-1zM3 28h1v1H3zm1 0h1v1H4z"/><path fill="#2E8B57" d="M5 28h1v1H5z"/><path fill="#2F4F4F" d="M6 28h1v1H6z"/><path fill="#FFFACD" d="M7 28h1v1H7zm1 0h1v1H8zm1 0h1v1H9zm1 0h1v1h-1z"/><path fill="#2F4F4F" d="M11 28h1v1h-1zm1 0h1v1h-1z"/><path fill="#2E8B57" d="M13 28h1v1h-1zm1 0h1v1h-1zm1 0h1v1h-1z"/><path d="M16 28h1v1h-1z"/><path fill="#2F4F4F" d="M17 28h1v1h-1z"/><path fill="#B22222" d="M18 28h1v1h-1zm1 0h1v1h-1z"/><path fill="#708090" d="M20 28h1v1h-1z"/><path d="M21 28h1v1h-1z"/><path fill="#2E8B57" d="M22 28h1v1h-1zm1 0h1v1h-1zm1 0h1v1h-1zm1 0h1v1h-1z"/><path d="M26 28h1v1h-1zm1 0h1v1h-1z"/><path fill="#708090" d="M28 28h1v1h-1z"/><path d="M1 29h1v1H1zm1 0h1v1H2z"/><path fill="#2E8B57" d="M3 29h1v1H3zm1 0h1v1H4zm1 0h1v1H5z"/><path fill="#2F4F4F" d="M6 29h1v1H6z"/><path fill="#FFFACD" d="M7 29h1v1H7zm1 0h1v1H8z"/><path fill="#2F4F4F" d="M9 29h1v1H9zm1 0h1v1h-1z"/><path fill="#2E8B57" d="M11 29h1v1h-1zm1 0h1v1h-1zm1 0h1v1h-1zm1 0h1v1h-1zm1 0h1v1h-1z"/><path d="M16 29h1v1h-1z"/><path fill="#B22222" d="M17 29h1v1h-1z"/><path fill="#2F4F4F" d="M18 29h1v1h-1z"/><path fill="#B22222" d="M19 29h1v1h-1zm1 0h1v1h-1z"/><path d="M21 29h1v1h-1z"/><path fill="#2E8B57" d="M22 29h1v1h-1zm1 0h1v1h-1z"/><path d="M24 29h1v1h-1zm1 0h1v1h-1z"/><path fill="#708090" d="M26 29h1v1h-1zm1 0h1v1h-1zm1 0h1v1h-1zm1 0h1v1h-1zm1 0h1v1h-1z"/><path d="M0 30h1v1H0z"/><path fill="#2E8B57" d="M1 30h1v1H1zm1 0h1v1H2zm1 0h1v1H3zm1 0h1v1H4zm1 0h1v1H5z"/><path fill="#2F4F4F" d="M6 30h1v1H6zm1 0h1v1H7zm1 0h1v1H8z"/><path fill="#2E8B57" d="M9 30h1v1H9zm1 0h1v1h-1zm1 0h1v1h-1zm1 0h1v1h-1zm1 0h1v1h-1zm1 0h1v1h-1zm1 0h1v1h-1z"/><path d="M16 30h1v1h-1z"/><path fill="#2F4F4F" d="M17 30h1v1h-1z"/><path fill="#B22222" d="M18 30h1v1h-1zm1 0h1v1h-1z"/><path fill="#708090" d="M20 30h1v1h-1z"/><path d="M21 30h1v1h-1zm1 0h1v1h-1zm1 0h1v1h-1z"/><path fill="#708090" d="M24 30h1v1h-1zm1 0h1v1h-1zm1 0h1v1h-1zm1 0h1v1h-1zm1 0h1v1h-1z"/><path d="M0 31h1v1H0zm1 0h1v1H1z"/><path fill="#2E8B57" d="M2 31h1v1H2zm1 0h1v1H3zm1 0h1v1H4zm1 0h1v1H5z"/><path fill="#2F4F4F" d="M6 31h1v1H6z"/><path fill="#2E8B57" d="M7 31h1v1H7zm1 0h1v1H8zm1 0h1v1H9zm1 0h1v1h-1zm1 0h1v1h-1zm1 0h1v1h-1zm1 0h1v1h-1zm1 0h1v1h-1zm1 0h1v1h-1z"/><path d="M16 31h1v1h-1z"/><path fill="#B22222" d="M17 31h1v1h-1z"/><path fill="#2F4F4F" d="M18 31h1v1h-1z"/><path fill="#B22222" d="M19 31h1v1h-1zm1 0h1v1h-1z"/><path d="M21 31h1v1h-1z"/><path fill="#708090" d="M22 31h1v1h-1zm1 0h1v1h-1zm1 0h1v1h-1zm1 0h1v1h-1zm1 0h1v1h-1z"/><path d="M2 32h1v1H2zm1 0h1v1H3z"/><path fill="#2E8B57" d="M4 32h1v1H4zm1 0h1v1H5zm1 0h1v1H6zm1 0h1v1H7zm1 0h1v1H8zm1 0h1v1H9zm1 0h1v1h-1zm1 0h1v1h-1zm1 0h1v1h-1zm1 0h1v1h-1zm1 0h1v1h-1zm1 0h1v1h-1z"/><path d="M16 32h1v1h-1z"/><path fill="#2F4F4F" d="M17 32h1v1h-1z"/><path fill="#B22222" d="M18 32h1v1h-1zm1 0h1v1h-1z"/><path fill="#708090" d="M20 32h1v1h-1z"/><path d="M21 32h1v1h-1z"/><path fill="#708090" d="M22 32h1v1h-1zm1 0h1v1h-1zm1 0h1v1h-1zM1 33h1v1H1zm1 0h1v1H2zm1 0h1v1H3z"/><path d="M4 33h1v1H4zm1 0h1v1H5z"/><path fill="#2E8B57" d="M6 33h1v1H6zm1 0h1v1H7zm1 0h1v1H8zm1 0h1v1H9zm1 0h1v1h-1zm1 0h1v1h-1zm1 0h1v1h-1zm1 0h1v1h-1zm1 0h1v1h-1zm1 0h1v1h-1z"/><path d="M16 33h1v1h-1z"/><path fill="#B22222" d="M17 33h1v1h-1z"/><path fill="#2F4F4F" d="M18 33h1v1h-1z"/><path fill="#B22222" d="M19 33h1v1h-1zm1 0h1v1h-1z"/><path d="M21 33h1v1h-1z"/><path fill="#708090" d="M22 33h1v1h-1zM0 34h1v1H0zm1 0h1v1H1zm1 0h1v1H2zm1 0h1v1H3zm1 0h1v1H4zm1 0h1v1H5z"/><path d="M6 34h1v1H6zm1 0h1v1H7z"/><path fill="#2E8B57" d="M8 34h1v1H8zm1 0h1v1H9zm1 0h1v1h-1zm1 0h1v1h-1zm1 0h1v1h-1zm1 0h1v1h-1z"/><path d="M14 34h1v1h-1zm1 0h1v1h-1zm1 0h1v1h-1z"/><path fill="#2F4F4F" d="M17 34h1v1h-1z"/><path fill="#B22222" d="M18 34h1v1h-1zm1 0h1v1h-1z"/><path fill="#708090" d="M20 34h1v1h-1z"/><path d="M21 34h1v1h-1z"/><path fill="#708090" d="M1 35h1v1H1zm1 0h1v1H2zm1 0h1v1H3zm1 0h1v1H4zm1 0h1v1H5zm1 0h1v1H6zm1 0h1v1H7z"/><path d="M8 35h1v1H8zm1 0h1v1H9z"/><path fill="#2E8B57" d="M10 35h1v1h-1zm1 0h1v1h-1z"/><path d="M12 35h1v1h-1zm1 0h1v1h-1z"/><path fill="#708090" d="M14 35h1v1h-1zm1 0h1v1h-1z"/><path d="M16 35h1v1h-1z"/><path fill="#B22222" d="M17 35h1v1h-1z"/><path fill="#2F4F4F" d="M18 35h1v1h-1z"/><path fill="#B22222" d="M19 35h1v1h-1zm1 0h1v1h-1z"/><path d="M21 35h1v1h-1z"/><path fill="#708090" d="M3 36h1v1H3zm1 0h1v1H4zm1 0h1v1H5zm1 0h1v1H6zm1 0h1v1H7zm1 0h1v1H8zm1 0h1v1H9z"/><path d="M10 36h1v1h-1zm1 0h1v1h-1z"/><path fill="#708090" d="M12 36h1v1h-1zm1 0h1v1h-1zm1 0h1v1h-1zm1 0h1v1h-1zm1 0h1v1h-1z"/><path d="M17 36h1v1h-1z"/><path fill="#B22222" d="M18 36h1v1h-1zm1 0h1v1h-1z"/><path d="M20 36h1v1h-1z"/><path fill="#708090" d="M5 37h1v1H5zm1 0h1v1H6zm1 0h1v1H7zm1 0h1v1H8zm1 0h1v1H9zm1 0h1v1h-1zm1 0h1v1h-1zm1 0h1v1h-1zm1 0h1v1h-1zm1 0h1v1h-1z"/><path d="M18 37h1v1h-1zm1 0h1v1h-1z"/><path fill="#708090" d="M7 38h1v1H7zm1 0h1v1H8zm1 0h1v1H9zm1 0h1v1h-1zm1 0h1v1h-1zm1 0h1v1h-1zm-3 1h1v1H9zm1 0h1v1h-1z"/></svg>
