<svg xmlns="http://www.w3.org/2000/svg" shape-rendering="crispEdges" viewBox="0 0 41 47"><path fill="#FFF" d="M0 0h1v1H0zm1 0h1v1H1z"/><path d="M2 0h1v1H2zm1 0h1v1H3zm1 0h1v1H4zm1 0h1v1H5zm1 0h1v1H6zm1 0h1v1H7zm1 0h1v1H8zm1 0h1v1H9zm1 0h1v1h-1zm1 0h1v1h-1zm1 0h1v1h-1zm1 0h1v1h-1zm1 0h1v1h-1zm1 0h1v1h-1zm1 0h1v1h-1zm1 0h1v1h-1zm1 0h1v1h-1zm1 0h1v1h-1zm1 0h1v1h-1zm1 0h1v1h-1zm1 0h1v1h-1zm1 0h1v1h-1zm1 0h1v1h-1zm1 0h1v1h-1zm1 0h1v1h-1zm1 0h1v1h-1zm1 0h1v1h-1zm1 0h1v1h-1zm1 0h1v1h-1zm1 0h1v1h-1zm1 0h1v1h-1zm1 0h1v1h-1zm1 0h1v1h-1zm1 0h1v1h-1zm1 0h1v1h-1zm1 0h1v1h-1z"/><path fill="#FFF" d="M38 0h1v1h-1zm1 0h1v1h-1zm1 0h1v1h-1zM0 1h1v1H0z"/><path d="M1 1h1v1H1zm1 0h1v1H2zm1 0h1v1H3z"/><path fill="#FFF" d="M4 1h1v1H4zm1 0h1v1H5zm1 0h1v1H6zm1 0h1v1H7zm1 0h1v1H8z"/><path d="M9 1h1v1H9z"/><path fill="#FFF" d="M10 1h1v1h-1zm1 0h1v1h-1zm1 0h1v1h-1zm1 0h1v1h-1zm1 0h1v1h-1zm1 0h1v1h-1zm1 0h1v1h-1zm1 0h1v1h-1zm1 0h1v1h-1zm1 0h1v1h-1zm1 0h1v1h-1zm1 0h1v1h-1zm1 0h1v1h-1z"/><path d="M23 1h1v1h-1z"/><path fill="#FFF" d="M24 1h1v1h-1zm1 0h1v1h-1zm1 0h1v1h-1zm1 0h1v1h-1zm1 0h1v1h-1zm1 0h1v1h-1zm1 0h1v1h-1zm1 0h1v1h-1zm1 0h1v1h-1zm1 0h1v1h-1z"/><path d="M34 1h1v1h-1z"/><path fill="#FFF" d="M35 1h1v1h-1zm1 0h1v1h-1z"/><path d="M37 1h1v1h-1zm1 0h1v1h-1z"/><path fill="#FFF" d="M39 1h1v1h-1zm1 0h1v1h-1z"/><path d="M0 2h1v1H0zm1 0h1v1H1z"/><path fill="#FFF" d="M2 2h1v1H2z"/><path d="M3 2h1v1H3zm1 0h1v1H4zm1 0h1v1H5zm1 0h1v1H6zm1 0h1v1H7zm1 0h1v1H8zm1 0h1v1H9z"/><path fill="#FFF" d="M10 2h1v1h-1z"/><path d="M11 2h1v1h-1z"/><path fill="#FFF" d="M12 2h1v1h-1z"/><path d="M13 2h1v1h-1z"/><path fill="#FFF" d="M14 2h1v1h-1z"/><path d="M15 2h1v1h-1z"/><path fill="#FFF" d="M16 2h1v1h-1z"/><path d="M17 2h1v1h-1z"/><path fill="#FFF" d="M18 2h1v1h-1z"/><path d="M19 2h1v1h-1z"/><path fill="#FFF" d="M20 2h1v1h-1z"/><path d="M21 2h1v1h-1zm1 0h1v1h-1zm1 0h1v1h-1zm1 0h1v1h-1zm1 0h1v1h-1zm1 0h1v1h-1zm1 0h1v1h-1zm1 0h1v1h-1zm1 0h1v1h-1zm1 0h1v1h-1zm1 0h1v1h-1zm1 0h1v1h-1zm1 0h1v1h-1z"/><path fill="#FFF" d="M34 2h1v1h-1zm1 0h1v1h-1zm1 0h1v1h-1zm1 0h1v1h-1z"/><path d="M38 2h1v1h-1zm1 0h1v1h-1z"/><path fill="#FFF" d="M40 2h1v1h-1z"/><path d="M0 3h1v1H0zm1 0h1v1H1zm1 0h1v1H2zm1 0h1v1H3z"/><path fill="#FFF" d="M4 3h1v1H4zm1 0h1v1H5zm1 0h1v1H6zm1 0h1v1H7z"/><path d="M8 3h1v1H8z"/><path fill="#FFF" d="M9 3h1v1H9zm1 0h1v1h-1zm1 0h1v1h-1zm1 0h1v1h-1zm1 0h1v1h-1zm1 0h1v1h-1zm1 0h1v1h-1zm1 0h1v1h-1zm1 0h1v1h-1zm1 0h1v1h-1zm1 0h1v1h-1zm1 0h1v1h-1zm1 0h1v1h-1z"/><path d="M22 3h1v1h-1zm1 0h1v1h-1zm1 0h1v1h-1z"/><path fill="#FFF" d="M25 3h1v1h-1zm1 0h1v1h-1zm1 0h1v1h-1zm1 0h1v1h-1zm1 0h1v1h-1zm1 0h1v1h-1zm1 0h1v1h-1zm1 0h1v1h-1z"/><path d="M33 3h1v1h-1zm1 0h1v1h-1zm1 0h1v1h-1zm1 0h1v1h-1zm1 0h1v1h-1zm1 0h1v1h-1zm1 0h1v1h-1zm1 0h1v1h-1zM0 4h1v1H0z"/><path fill="#FFF" d="M1 4h1v1H1z"/><path d="M2 4h1v1H2z"/><path fill="#FFF" d="M3 4h1v1H3zm1 0h1v1H4zm1 0h1v1H5zm1 0h1v1H6z"/><path d="M7 4h1v1H7z"/><path fill="#FFF" d="M8 4h1v1H8z"/><path d="M9 4h1v1H9z"/><path fill="#FFF" d="M10 4h1v1h-1z"/><path d="M11 4h1v1h-1z"/><path fill="#FFF" d="M12 4h1v1h-1z"/><path d="M13 4h1v1h-1z"/><path fill="#FFF" d="M14 4h1v1h-1z"/><path d="M15 4h1v1h-1z"/><path fill="#FFF" d="M16 4h1v1h-1z"/><path d="M17 4h1v1h-1z"/><path fill="#FFF" d="M18 4h1v1h-1z"/><path d="M19 4h1v1h-1z"/><path fill="#FFF" d="M20 4h1v1h-1z"/><path d="M21 4h1v1h-1zm1 0h1v1h-1zm1 0h1v1h-1zm1 0h1v1h-1zm1 0h1v1h-1z"/><path fill="#FFF" d="M26 4h1v1h-1zm1 0h1v1h-1zm1 0h1v1h-1zm1 0h1v1h-1zm1 0h1v1h-1zm1 0h1v1h-1zm1 0h1v1h-1zm1 0h1v1h-1z"/><path d="M34 4h1v1h-1z"/><path fill="#FFF" d="M35 4h1v1h-1zm1 0h1v1h-1zm1 0h1v1h-1z"/><path d="M38 4h1v1h-1zm1 0h1v1h-1zm1 0h1v1h-1zM0 5h1v1H0z"/><path fill="#FFF" d="M1 5h1v1H1z"/><path d="M2 5h1v1H2z"/><path fill="#FFF" d="M3 5h1v1H3zm1 0h1v1H4z"/><path d="M5 5h1v1H5z"/><path fill="#FFF" d="M6 5h1v1H6z"/><path d="M7 5h1v1H7z"/><path fill="#FFF" d="M8 5h1v1H8zm1 0h1v1H9zm1 0h1v1h-1zm1 0h1v1h-1zm1 0h1v1h-1zm1 0h1v1h-1zm1 0h1v1h-1zm1 0h1v1h-1zm1 0h1v1h-1zm1 0h1v1h-1zm1 0h1v1h-1zm1 0h1v1h-1zm1 0h1v1h-1z"/><path d="M21 5h1v1h-1zm1 0h1v1h-1zm1 0h1v1h-1zm1 0h1v1h-1zm1 0h1v1h-1z"/><path fill="#FFF" d="M26 5h1v1h-1zm1 0h1v1h-1zm1 0h1v1h-1zm1 0h1v1h-1zm1 0h1v1h-1z"/><path d="M31 5h1v1h-1z"/><path fill="#FFF" d="M32 5h1v1h-1zm1 0h1v1h-1z"/><path d="M34 5h1v1h-1z"/><path fill="#FFF" d="M35 5h1v1h-1zm1 0h1v1h-1zm1 0h1v1h-1z"/><path d="M38 5h1v1h-1zm1 0h1v1h-1zm1 0h1v1h-1zM0 6h1v1H0z"/><path fill="#FFF" d="M1 6h1v1H1z"/><path d="M2 6h1v1H2z"/><path fill="#FFF" d="M3 6h1v1H3zm1 0h1v1H4zm1 0h1v1H5zm1 0h1v1H6z"/><path d="M7 6h1v1H7zm1 0h1v1H8zm1 0h1v1H9zm1 0h1v1h-1zm1 0h1v1h-1zm1 0h1v1h-1zm1 0h1v1h-1zm1 0h1v1h-1zm1 0h1v1h-1zm1 0h1v1h-1zm1 0h1v1h-1zm1 0h1v1h-1zm1 0h1v1h-1zm1 0h1v1h-1zm1 0h1v1h-1zm1 0h1v1h-1zm1 0h1v1h-1zm1 0h1v1h-1zm1 0h1v1h-1z"/><path fill="#FFF" d="M26 6h1v1h-1zm1 0h1v1h-1zm1 0h1v1h-1zm1 0h1v1h-1zm1 0h1v1h-1zm1 0h1v1h-1zm1 0h1v1h-1zm1 0h1v1h-1z"/><path d="M34 6h1v1h-1z"/><path fill="#FFF" d="M35 6h1v1h-1zm1 0h1v1h-1zm1 0h1v1h-1z"/><path d="M38 6h1v1h-1zm1 0h1v1h-1zm1 0h1v1h-1zM0 7h1v1H0z"/><path fill="#FFF" d="M1 7h1v1H1z"/><path d="M2 7h1v1H2z"/><path fill="#FFF" d="M3 7h1v1H3zm1 0h1v1H4zm1 0h1v1H5zm1 0h1v1H6z"/><path d="M7 7h1v1H7z"/><path fill="#FFF" d="M8 7h1v1H8z"/><path d="M9 7h1v1H9z"/><path fill="#FFF" d="M10 7h1v1h-1z"/><path d="M11 7h1v1h-1z"/><path fill="#FFF" d="M12 7h1v1h-1z"/><path d="M13 7h1v1h-1z"/><path fill="#FFF" d="M14 7h1v1h-1z"/><path d="M15 7h1v1h-1z"/><path fill="#FFF" d="M16 7h1v1h-1z"/><path d="M17 7h1v1h-1z"/><path fill="#FFF" d="M18 7h1v1h-1z"/><path d="M19 7h1v1h-1z"/><path fill="#FFF" d="M20 7h1v1h-1z"/><path d="M21 7h1v1h-1zm1 0h1v1h-1zm1 0h1v1h-1zm1 0h1v1h-1zm1 0h1v1h-1z"/><path fill="#FFF" d="M26 7h1v1h-1zm1 0h1v1h-1zm1 0h1v1h-1zm1 0h1v1h-1zm1 0h1v1h-1zm1 0h1v1h-1zm1 0h1v1h-1zm1 0h1v1h-1z"/><path d="M34 7h1v1h-1z"/><path fill="#FFF" d="M35 7h1v1h-1zm1 0h1v1h-1zm1 0h1v1h-1z"/><path d="M38 7h1v1h-1zm1 0h1v1h-1zm1 0h1v1h-1zM0 8h1v1H0z"/><path fill="#FFF" d="M1 8h1v1H1z"/><path d="M2 8h1v1H2z"/><path fill="#FFF" d="M3 8h1v1H3zm1 0h1v1H4zm1 0h1v1H5zm1 0h1v1H6zm1 0h1v1H7z"/><path d="M8 8h1v1H8z"/><path fill="#FFF" d="M9 8h1v1H9z"/><path d="M10 8h1v1h-1z"/><path fill="#FFF" d="M11 8h1v1h-1z"/><path d="M12 8h1v1h-1z"/><path fill="#FFF" d="M13 8h1v1h-1z"/><path d="M14 8h1v1h-1z"/><path fill="#FFF" d="M15 8h1v1h-1z"/><path d="M16 8h1v1h-1z"/><path fill="#FFF" d="M17 8h1v1h-1z"/><path d="M18 8h1v1h-1z"/><path fill="#FFF" d="M19 8h1v1h-1z"/><path d="M20 8h1v1h-1z"/><path fill="#FFF" d="M21 8h1v1h-1z"/><path d="M22 8h1v1h-1zm1 0h1v1h-1zm1 0h1v1h-1zm1 0h1v1h-1z"/><path fill="#FFF" d="M26 8h1v1h-1zm1 0h1v1h-1zm1 0h1v1h-1zm1 0h1v1h-1zm1 0h1v1h-1zm1 0h1v1h-1zm1 0h1v1h-1zm1 0h1v1h-1z"/><path d="M34 8h1v1h-1z"/><path fill="#FFF" d="M35 8h1v1h-1zm1 0h1v1h-1zm1 0h1v1h-1z"/><path d="M38 8h1v1h-1zm1 0h1v1h-1zm1 0h1v1h-1zM0 9h1v1H0z"/><path fill="#FFF" d="M1 9h1v1H1z"/><path d="M2 9h1v1H2z"/><path fill="#FFF" d="M3 9h1v1H3zm1 0h1v1H4zm1 0h1v1H5zm1 0h1v1H6zm1 0h1v1H7z"/><path d="M8 9h1v1H8z"/><path fill="#FFF" d="M9 9h1v1H9z"/><path d="M10 9h1v1h-1z"/><path fill="#FFF" d="M11 9h1v1h-1z"/><path d="M12 9h1v1h-1z"/><path fill="#FFF" d="M13 9h1v1h-1z"/><path d="M14 9h1v1h-1z"/><path fill="#FFF" d="M15 9h1v1h-1z"/><path d="M16 9h1v1h-1z"/><path fill="#FFF" d="M17 9h1v1h-1z"/><path d="M18 9h1v1h-1z"/><path fill="#FFF" d="M19 9h1v1h-1z"/><path d="M20 9h1v1h-1z"/><path fill="#FFF" d="M21 9h1v1h-1z"/><path d="M22 9h1v1h-1zm1 0h1v1h-1zm1 0h1v1h-1zm1 0h1v1h-1z"/><path fill="#FFF" d="M26 9h1v1h-1zm1 0h1v1h-1zm1 0h1v1h-1zm1 0h1v1h-1zm1 0h1v1h-1zm1 0h1v1h-1zm1 0h1v1h-1zm1 0h1v1h-1z"/><path d="M34 9h1v1h-1z"/><path fill="#FFF" d="M35 9h1v1h-1zm1 0h1v1h-1zm1 0h1v1h-1z"/><path d="M38 9h1v1h-1zm1 0h1v1h-1zm1 0h1v1h-1zM0 10h1v1H0z"/><path fill="#FFF" d="M1 10h1v1H1z"/><path d="M2 10h1v1H2z"/><path fill="#FFF" d="M3 10h1v1H3zm1 0h1v1H4zm1 0h1v1H5zm1 0h1v1H6zm1 0h1v1H7zm1 0h1v1H8z"/><path d="M9 10h1v1H9z"/><path fill="#FFF" d="M10 10h1v1h-1z"/><path d="M11 10h1v1h-1z"/><path fill="#FFF" d="M12 10h1v1h-1z"/><path d="M13 10h1v1h-1z"/><path fill="#FFF" d="M14 10h1v1h-1z"/><path d="M15 10h1v1h-1z"/><path fill="#FFF" d="M16 10h1v1h-1z"/><path d="M17 10h1v1h-1z"/><path fill="#FFF" d="M18 10h1v1h-1z"/><path d="M19 10h1v1h-1z"/><path fill="#FFF" d="M20 10h1v1h-1z"/><path d="M21 10h1v1h-1z"/><path fill="#FFF" d="M22 10h1v1h-1z"/><path d="M23 10h1v1h-1zm1 0h1v1h-1zm1 0h1v1h-1z"/><path fill="#FFF" d="M26 10h1v1h-1zm1 0h1v1h-1zm1 0h1v1h-1zm1 0h1v1h-1zm1 0h1v1h-1zm1 0h1v1h-1zm1 0h1v1h-1zm1 0h1v1h-1z"/><path d="M34 10h1v1h-1z"/><path fill="#FFF" d="M35 10h1v1h-1zm1 0h1v1h-1zm1 0h1v1h-1z"/><path d="M38 10h1v1h-1zm1 0h1v1h-1zm1 0h1v1h-1zM0 11h1v1H0z"/><path fill="#FFF" d="M1 11h1v1H1z"/><path d="M2 11h1v1H2z"/><path fill="#FFF" d="M3 11h1v1H3zm1 0h1v1H4zm1 0h1v1H5zm1 0h1v1H6zm1 0h1v1H7zm1 0h1v1H8z"/><path d="M9 11h1v1H9z"/><path fill="#FFF" d="M10 11h1v1h-1z"/><path d="M11 11h1v1h-1z"/><path fill="#FFF" d="M12 11h1v1h-1z"/><path d="M13 11h1v1h-1z"/><path fill="#FFF" d="M14 11h1v1h-1z"/><path d="M15 11h1v1h-1z"/><path fill="#FFF" d="M16 11h1v1h-1z"/><path d="M17 11h1v1h-1z"/><path fill="#FFF" d="M18 11h1v1h-1z"/><path d="M19 11h1v1h-1z"/><path fill="#FFF" d="M20 11h1v1h-1z"/><path d="M21 11h1v1h-1z"/><path fill="#FFF" d="M22 11h1v1h-1z"/><path d="M23 11h1v1h-1zm1 0h1v1h-1zm1 0h1v1h-1z"/><path fill="#FFF" d="M26 11h1v1h-1zm1 0h1v1h-1zm1 0h1v1h-1zm1 0h1v1h-1zm1 0h1v1h-1zm1 0h1v1h-1zm1 0h1v1h-1zm1 0h1v1h-1z"/><path d="M34 11h1v1h-1z"/><path fill="#FFF" d="M35 11h1v1h-1zm1 0h1v1h-1zm1 0h1v1h-1z"/><path d="M38 11h1v1h-1zm1 0h1v1h-1zm1 0h1v1h-1zM0 12h1v1H0z"/><path fill="#FFF" d="M1 12h1v1H1z"/><path d="M2 12h1v1H2z"/><path fill="#FFF" d="M3 12h1v1H3zm1 0h1v1H4zm1 0h1v1H5zm1 0h1v1H6zm1 0h1v1H7zm1 0h1v1H8zm1 0h1v1H9z"/><path d="M10 12h1v1h-1z"/><path fill="#FFF" d="M11 12h1v1h-1z"/><path d="M12 12h1v1h-1z"/><path fill="#FFF" d="M13 12h1v1h-1z"/><path d="M14 12h1v1h-1z"/><path fill="#FFF" d="M15 12h1v1h-1z"/><path d="M16 12h1v1h-1z"/><path fill="#FFF" d="M17 12h1v1h-1z"/><path d="M18 12h1v1h-1z"/><path fill="#FFF" d="M19 12h1v1h-1z"/><path d="M20 12h1v1h-1z"/><path fill="#FFF" d="M21 12h1v1h-1z"/><path d="M22 12h1v1h-1z"/><path fill="#FFF" d="M23 12h1v1h-1z"/><path d="M24 12h1v1h-1zm1 0h1v1h-1z"/><path fill="#FFF" d="M26 12h1v1h-1zm1 0h1v1h-1zm1 0h1v1h-1zm1 0h1v1h-1zm1 0h1v1h-1zm1 0h1v1h-1zm1 0h1v1h-1zm1 0h1v1h-1z"/><path d="M34 12h1v1h-1z"/><path fill="#FFF" d="M35 12h1v1h-1zm1 0h1v1h-1zm1 0h1v1h-1z"/><path d="M38 12h1v1h-1zm1 0h1v1h-1zm1 0h1v1h-1zM0 13h1v1H0z"/><path fill="#FFF" d="M1 13h1v1H1z"/><path d="M2 13h1v1H2z"/><path fill="#FFF" d="M3 13h1v1H3zm1 0h1v1H4zm1 0h1v1H5zm1 0h1v1H6zm1 0h1v1H7zm1 0h1v1H8zm1 0h1v1H9z"/><path d="M10 13h1v1h-1z"/><path fill="#FFF" d="M11 13h1v1h-1z"/><path d="M12 13h1v1h-1z"/><path fill="#FFF" d="M13 13h1v1h-1z"/><path d="M14 13h1v1h-1z"/><path fill="#FFF" d="M15 13h1v1h-1z"/><path d="M16 13h1v1h-1z"/><path fill="#FFF" d="M17 13h1v1h-1z"/><path d="M18 13h1v1h-1z"/><path fill="#FFF" d="M19 13h1v1h-1z"/><path d="M20 13h1v1h-1z"/><path fill="#FFF" d="M21 13h1v1h-1z"/><path d="M22 13h1v1h-1z"/><path fill="#FFF" d="M23 13h1v1h-1z"/><path d="M24 13h1v1h-1zm1 0h1v1h-1z"/><path fill="#FFF" d="M26 13h1v1h-1zm1 0h1v1h-1zm1 0h1v1h-1zm1 0h1v1h-1zm1 0h1v1h-1zm1 0h1v1h-1zm1 0h1v1h-1zm1 0h1v1h-1z"/><path d="M34 13h1v1h-1z"/><path fill="#FFF" d="M35 13h1v1h-1zm1 0h1v1h-1zm1 0h1v1h-1z"/><path d="M38 13h1v1h-1zm1 0h1v1h-1zm1 0h1v1h-1zM0 14h1v1H0z"/><path fill="#FFF" d="M1 14h1v1H1z"/><path d="M2 14h1v1H2z"/><path fill="#FFF" d="M3 14h1v1H3zm1 0h1v1H4zm1 0h1v1H5zm1 0h1v1H6zm1 0h1v1H7zm1 0h1v1H8zm1 0h1v1H9zm1 0h1v1h-1z"/><path d="M11 14h1v1h-1z"/><path fill="#FFF" d="M12 14h1v1h-1z"/><path d="M13 14h1v1h-1z"/><path fill="#FFF" d="M14 14h1v1h-1z"/><path d="M15 14h1v1h-1z"/><path fill="#FFF" d="M16 14h1v1h-1z"/><path d="M17 14h1v1h-1z"/><path fill="#FFF" d="M18 14h1v1h-1z"/><path d="M19 14h1v1h-1z"/><path fill="#FFF" d="M20 14h1v1h-1z"/><path d="M21 14h1v1h-1z"/><path fill="#FFF" d="M22 14h1v1h-1z"/><path d="M23 14h1v1h-1z"/><path fill="#FFF" d="M24 14h1v1h-1z"/><path d="M25 14h1v1h-1z"/><path fill="#FFF" d="M26 14h1v1h-1zm1 0h1v1h-1zm1 0h1v1h-1zm1 0h1v1h-1zm1 0h1v1h-1zm1 0h1v1h-1zm1 0h1v1h-1zm1 0h1v1h-1z"/><path d="M34 14h1v1h-1z"/><path fill="#FFF" d="M35 14h1v1h-1zm1 0h1v1h-1zm1 0h1v1h-1z"/><path d="M38 14h1v1h-1zm1 0h1v1h-1zm1 0h1v1h-1zM0 15h1v1H0z"/><path fill="#FFF" d="M1 15h1v1H1z"/><path d="M2 15h1v1H2z"/><path fill="#FFF" d="M3 15h1v1H3zm1 0h1v1H4zm1 0h1v1H5zm1 0h1v1H6zm1 0h1v1H7zm1 0h1v1H8zm1 0h1v1H9zm1 0h1v1h-1z"/><path d="M11 15h1v1h-1zm1 0h1v1h-1zm1 0h1v1h-1zm1 0h1v1h-1zm1 0h1v1h-1zm1 0h1v1h-1zm1 0h1v1h-1zm1 0h1v1h-1zm1 0h1v1h-1zm1 0h1v1h-1zm1 0h1v1h-1zm1 0h1v1h-1zm1 0h1v1h-1zm1 0h1v1h-1zm1 0h1v1h-1z"/><path fill="#FFF" d="M26 15h1v1h-1zm1 0h1v1h-1zm1 0h1v1h-1zm1 0h1v1h-1zm1 0h1v1h-1zm1 0h1v1h-1zm1 0h1v1h-1zm1 0h1v1h-1z"/><path d="M34 15h1v1h-1z"/><path fill="#FFF" d="M35 15h1v1h-1zm1 0h1v1h-1zm1 0h1v1h-1z"/><path d="M38 15h1v1h-1zm1 0h1v1h-1zm1 0h1v1h-1zM0 16h1v1H0z"/><path fill="#FFF" d="M1 16h1v1H1z"/><path d="M2 16h1v1H2z"/><path fill="#FFF" d="M3 16h1v1H3zm1 0h1v1H4zm1 0h1v1H5zm1 0h1v1H6zm1 0h1v1H7zm1 0h1v1H8zm1 0h1v1H9z"/><path d="M10 16h1v1h-1z"/><path fill="#FFF" d="M11 16h1v1h-1zm1 0h1v1h-1zm1 0h1v1h-1zm1 0h1v1h-1zm1 0h1v1h-1zm1 0h1v1h-1zm1 0h1v1h-1zm1 0h1v1h-1zm1 0h1v1h-1zm1 0h1v1h-1zm1 0h1v1h-1zm1 0h1v1h-1zm1 0h1v1h-1z"/><path d="M24 16h1v1h-1zm1 0h1v1h-1z"/><path fill="#FFF" d="M26 16h1v1h-1zm1 0h1v1h-1zm1 0h1v1h-1zm1 0h1v1h-1zm1 0h1v1h-1zm1 0h1v1h-1zm1 0h1v1h-1zm1 0h1v1h-1z"/><path d="M34 16h1v1h-1z"/><path fill="#FFF" d="M35 16h1v1h-1zm1 0h1v1h-1zm1 0h1v1h-1z"/><path d="M38 16h1v1h-1zm1 0h1v1h-1zm1 0h1v1h-1zM0 17h1v1H0z"/><path fill="#FFF" d="M1 17h1v1H1z"/><path d="M2 17h1v1H2z"/><path fill="#FFF" d="M3 17h1v1H3zm1 0h1v1H4zm1 0h1v1H5zm1 0h1v1H6zm1 0h1v1H7zm1 0h1v1H8zm1 0h1v1H9z"/><path d="M10 17h1v1h-1z"/><path fill="#FFF" d="M11 17h1v1h-1z"/><path d="M12 17h1v1h-1z"/><path fill="#FFF" d="M13 17h1v1h-1z"/><path d="M14 17h1v1h-1z"/><path fill="#FFF" d="M15 17h1v1h-1z"/><path d="M16 17h1v1h-1z"/><path fill="#FFF" d="M17 17h1v1h-1z"/><path d="M18 17h1v1h-1z"/><path fill="#FFF" d="M19 17h1v1h-1z"/><path d="M20 17h1v1h-1z"/><path fill="#FFF" d="M21 17h1v1h-1z"/><path d="M22 17h1v1h-1z"/><path fill="#FFF" d="M23 17h1v1h-1z"/><path d="M24 17h1v1h-1zm1 0h1v1h-1z"/><path fill="#FFF" d="M26 17h1v1h-1zm1 0h1v1h-1zm1 0h1v1h-1zm1 0h1v1h-1zm1 0h1v1h-1zm1 0h1v1h-1zm1 0h1v1h-1zm1 0h1v1h-1z"/><path d="M34 17h1v1h-1z"/><path fill="#FFF" d="M35 17h1v1h-1zm1 0h1v1h-1zm1 0h1v1h-1z"/><path d="M38 17h1v1h-1zm1 0h1v1h-1zm1 0h1v1h-1zM0 18h1v1H0z"/><path fill="#FFF" d="M1 18h1v1H1z"/><path d="M2 18h1v1H2z"/><path fill="#FFF" d="M3 18h1v1H3zm1 0h1v1H4zm1 0h1v1H5zm1 0h1v1H6zm1 0h1v1H7zm1 0h1v1H8zm1 0h1v1H9z"/><path d="M10 18h1v1h-1z"/><path fill="#FFF" d="M11 18h1v1h-1zm1 0h1v1h-1zm1 0h1v1h-1zm1 0h1v1h-1zm1 0h1v1h-1zm1 0h1v1h-1zm1 0h1v1h-1zm1 0h1v1h-1zm1 0h1v1h-1zm1 0h1v1h-1zm1 0h1v1h-1zm1 0h1v1h-1zm1 0h1v1h-1z"/><path d="M24 18h1v1h-1zm1 0h1v1h-1z"/><path fill="#FFF" d="M26 18h1v1h-1zm1 0h1v1h-1zm1 0h1v1h-1zm1 0h1v1h-1zm1 0h1v1h-1zm1 0h1v1h-1zm1 0h1v1h-1zm1 0h1v1h-1z"/><path d="M34 18h1v1h-1z"/><path fill="#FFF" d="M35 18h1v1h-1zm1 0h1v1h-1zm1 0h1v1h-1z"/><path d="M38 18h1v1h-1zm1 0h1v1h-1zm1 0h1v1h-1zM0 19h1v1H0z"/><path fill="#FFF" d="M1 19h1v1H1z"/><path d="M2 19h1v1H2z"/><path fill="#FFF" d="M3 19h1v1H3zm1 0h1v1H4zm1 0h1v1H5zm1 0h1v1H6zm1 0h1v1H7zm1 0h1v1H8zm1 0h1v1H9z"/><path d="M10 19h1v1h-1zm1 0h1v1h-1z"/><path fill="#FFF" d="M12 19h1v1h-1z"/><path d="M13 19h1v1h-1z"/><path fill="#FFF" d="M14 19h1v1h-1z"/><path d="M15 19h1v1h-1z"/><path fill="#FFF" d="M16 19h1v1h-1z"/><path d="M17 19h1v1h-1z"/><path fill="#FFF" d="M18 19h1v1h-1z"/><path d="M19 19h1v1h-1z"/><path fill="#FFF" d="M20 19h1v1h-1z"/><path d="M21 19h1v1h-1z"/><path fill="#FFF" d="M22 19h1v1h-1z"/><path d="M23 19h1v1h-1zm1 0h1v1h-1zm1 0h1v1h-1z"/><path fill="#FFF" d="M26 19h1v1h-1zm1 0h1v1h-1zm1 0h1v1h-1zm1 0h1v1h-1zm1 0h1v1h-1zm1 0h1v1h-1zm1 0h1v1h-1zm1 0h1v1h-1z"/><path d="M34 19h1v1h-1z"/><path fill="#FFF" d="M35 19h1v1h-1zm1 0h1v1h-1zm1 0h1v1h-1z"/><path d="M38 19h1v1h-1zm1 0h1v1h-1zm1 0h1v1h-1zM0 20h1v1H0z"/><path fill="#FFF" d="M1 20h1v1H1z"/><path d="M2 20h1v1H2z"/><path fill="#FFF" d="M3 20h1v1H3zm1 0h1v1H4zm1 0h1v1H5zm1 0h1v1H6zm1 0h1v1H7zm1 0h1v1H8zm1 0h1v1H9z"/><path d="M10 20h1v1h-1z"/><path fill="#FFF" d="M11 20h1v1h-1zm1 0h1v1h-1zm1 0h1v1h-1zm1 0h1v1h-1zm1 0h1v1h-1zm1 0h1v1h-1zm1 0h1v1h-1zm1 0h1v1h-1zm1 0h1v1h-1zm1 0h1v1h-1zm1 0h1v1h-1zm1 0h1v1h-1zm1 0h1v1h-1z"/><path d="M24 20h1v1h-1zm1 0h1v1h-1z"/><path fill="#FFF" d="M26 20h1v1h-1zm1 0h1v1h-1zm1 0h1v1h-1zm1 0h1v1h-1zm1 0h1v1h-1zm1 0h1v1h-1zm1 0h1v1h-1zm1 0h1v1h-1z"/><path d="M34 20h1v1h-1z"/><path fill="#FFF" d="M35 20h1v1h-1zm1 0h1v1h-1zm1 0h1v1h-1z"/><path d="M38 20h1v1h-1zm1 0h1v1h-1zm1 0h1v1h-1zM0 21h1v1H0z"/><path fill="#FFF" d="M1 21h1v1H1z"/><path d="M2 21h1v1H2z"/><path fill="#FFF" d="M3 21h1v1H3zm1 0h1v1H4zm1 0h1v1H5zm1 0h1v1H6zm1 0h1v1H7zm1 0h1v1H8zm1 0h1v1H9z"/><path d="M10 21h1v1h-1z"/><path fill="#FFF" d="M11 21h1v1h-1z"/><path d="M12 21h1v1h-1z"/><path fill="#FFF" d="M13 21h1v1h-1z"/><path d="M14 21h1v1h-1z"/><path fill="#FFF" d="M15 21h1v1h-1z"/><path d="M16 21h1v1h-1z"/><path fill="#FFF" d="M17 21h1v1h-1z"/><path d="M18 21h1v1h-1z"/><path fill="#FFF" d="M19 21h1v1h-1z"/><path d="M20 21h1v1h-1z"/><path fill="#FFF" d="M21 21h1v1h-1z"/><path d="M22 21h1v1h-1z"/><path fill="#FFF" d="M23 21h1v1h-1z"/><path d="M24 21h1v1h-1zm1 0h1v1h-1z"/><path fill="#FFF" d="M26 21h1v1h-1zm1 0h1v1h-1zm1 0h1v1h-1zm1 0h1v1h-1zm1 0h1v1h-1zm1 0h1v1h-1zm1 0h1v1h-1zm1 0h1v1h-1z"/><path d="M34 21h1v1h-1z"/><path fill="#FFF" d="M35 21h1v1h-1zm1 0h1v1h-1zm1 0h1v1h-1z"/><path d="M38 21h1v1h-1zm1 0h1v1h-1zm1 0h1v1h-1zM0 22h1v1H0z"/><path fill="#FFF" d="M1 22h1v1H1z"/><path d="M2 22h1v1H2z"/><path fill="#FFF" d="M3 22h1v1H3zm1 0h1v1H4zm1 0h1v1H5zm1 0h1v1H6zm1 0h1v1H7zm1 0h1v1H8zm1 0h1v1H9z"/><path d="M10 22h1v1h-1z"/><path fill="#FFF" d="M11 22h1v1h-1zm1 0h1v1h-1zm1 0h1v1h-1zm1 0h1v1h-1zm1 0h1v1h-1zm1 0h1v1h-1zm1 0h1v1h-1zm1 0h1v1h-1zm1 0h1v1h-1zm1 0h1v1h-1zm1 0h1v1h-1zm1 0h1v1h-1zm1 0h1v1h-1z"/><path d="M24 22h1v1h-1zm1 0h1v1h-1z"/><path fill="#FFF" d="M26 22h1v1h-1zm1 0h1v1h-1zm1 0h1v1h-1zm1 0h1v1h-1zm1 0h1v1h-1zm1 0h1v1h-1zm1 0h1v1h-1zm1 0h1v1h-1z"/><path d="M34 22h1v1h-1z"/><path fill="#FFF" d="M35 22h1v1h-1zm1 0h1v1h-1zm1 0h1v1h-1z"/><path d="M38 22h1v1h-1zm1 0h1v1h-1zm1 0h1v1h-1zM0 23h1v1H0z"/><path fill="#FFF" d="M1 23h1v1H1z"/><path d="M2 23h1v1H2z"/><path fill="#FFF" d="M3 23h1v1H3zm1 0h1v1H4zm1 0h1v1H5zm1 0h1v1H6zm1 0h1v1H7zm1 0h1v1H8zm1 0h1v1H9z"/><path d="M10 23h1v1h-1zm1 0h1v1h-1z"/><path fill="#FFF" d="M12 23h1v1h-1z"/><path d="M13 23h1v1h-1z"/><path fill="#FFF" d="M14 23h1v1h-1z"/><path d="M15 23h1v1h-1z"/><path fill="#FFF" d="M16 23h1v1h-1z"/><path d="M17 23h1v1h-1z"/><path fill="#FFF" d="M18 23h1v1h-1z"/><path d="M19 23h1v1h-1z"/><path fill="#FFF" d="M20 23h1v1h-1z"/><path d="M21 23h1v1h-1z"/><path fill="#FFF" d="M22 23h1v1h-1z"/><path d="M23 23h1v1h-1zm1 0h1v1h-1zm1 0h1v1h-1z"/><path fill="#FFF" d="M26 23h1v1h-1zm1 0h1v1h-1zm1 0h1v1h-1zm1 0h1v1h-1zm1 0h1v1h-1zm1 0h1v1h-1zm1 0h1v1h-1zm1 0h1v1h-1z"/><path d="M34 23h1v1h-1z"/><path fill="#FFF" d="M35 23h1v1h-1zm1 0h1v1h-1zm1 0h1v1h-1z"/><path d="M38 23h1v1h-1zm1 0h1v1h-1zm1 0h1v1h-1zM0 24h1v1H0z"/><path fill="#FFF" d="M1 24h1v1H1z"/><path d="M2 24h1v1H2z"/><path fill="#FFF" d="M3 24h1v1H3zm1 0h1v1H4zm1 0h1v1H5zm1 0h1v1H6zm1 0h1v1H7zm1 0h1v1H8zm1 0h1v1H9z"/><path d="M10 24h1v1h-1z"/><path fill="#FFF" d="M11 24h1v1h-1zm1 0h1v1h-1zm1 0h1v1h-1zm1 0h1v1h-1zm1 0h1v1h-1zm1 0h1v1h-1zm1 0h1v1h-1zm1 0h1v1h-1zm1 0h1v1h-1zm1 0h1v1h-1zm1 0h1v1h-1zm1 0h1v1h-1zm1 0h1v1h-1z"/><path d="M24 24h1v1h-1zm1 0h1v1h-1z"/><path fill="#FFF" d="M26 24h1v1h-1zm1 0h1v1h-1zm1 0h1v1h-1zm1 0h1v1h-1zm1 0h1v1h-1zm1 0h1v1h-1zm1 0h1v1h-1zm1 0h1v1h-1z"/><path d="M34 24h1v1h-1z"/><path fill="#FFF" d="M35 24h1v1h-1zm1 0h1v1h-1zm1 0h1v1h-1z"/><path d="M38 24h1v1h-1zm1 0h1v1h-1zm1 0h1v1h-1zM0 25h1v1H0z"/><path fill="#FFF" d="M1 25h1v1H1z"/><path d="M2 25h1v1H2z"/><path fill="#FFF" d="M3 25h1v1H3zm1 0h1v1H4zm1 0h1v1H5zm1 0h1v1H6zm1 0h1v1H7zm1 0h1v1H8zm1 0h1v1H9z"/><path d="M10 25h1v1h-1z"/><path fill="#FFF" d="M11 25h1v1h-1z"/><path d="M12 25h1v1h-1z"/><path fill="#FFF" d="M13 25h1v1h-1z"/><path d="M14 25h1v1h-1z"/><path fill="#FFF" d="M15 25h1v1h-1z"/><path d="M16 25h1v1h-1z"/><path fill="#FFF" d="M17 25h1v1h-1z"/><path d="M18 25h1v1h-1z"/><path fill="#FFF" d="M19 25h1v1h-1z"/><path d="M20 25h1v1h-1z"/><path fill="#FFF" d="M21 25h1v1h-1z"/><path d="M22 25h1v1h-1z"/><path fill="#FFF" d="M23 25h1v1h-1z"/><path d="M24 25h1v1h-1zm1 0h1v1h-1z"/><path fill="#FFF" d="M26 25h1v1h-1zm1 0h1v1h-1zm1 0h1v1h-1zm1 0h1v1h-1zm1 0h1v1h-1zm1 0h1v1h-1zm1 0h1v1h-1zm1 0h1v1h-1z"/><path d="M34 25h1v1h-1z"/><path fill="#FFF" d="M35 25h1v1h-1zm1 0h1v1h-1zm1 0h1v1h-1z"/><path d="M38 25h1v1h-1zm1 0h1v1h-1zm1 0h1v1h-1zM0 26h1v1H0z"/><path fill="#FFF" d="M1 26h1v1H1z"/><path d="M2 26h1v1H2z"/><path fill="#FFF" d="M3 26h1v1H3zm1 0h1v1H4zm1 0h1v1H5zm1 0h1v1H6zm1 0h1v1H7zm1 0h1v1H8zm1 0h1v1H9z"/><path d="M10 26h1v1h-1z"/><path fill="#FFF" d="M11 26h1v1h-1zm1 0h1v1h-1zm1 0h1v1h-1zm1 0h1v1h-1zm1 0h1v1h-1zm1 0h1v1h-1zm1 0h1v1h-1zm1 0h1v1h-1zm1 0h1v1h-1zm1 0h1v1h-1zm1 0h1v1h-1zm1 0h1v1h-1zm1 0h1v1h-1z"/><path d="M24 26h1v1h-1zm1 0h1v1h-1z"/><path fill="#FFF" d="M26 26h1v1h-1zm1 0h1v1h-1zm1 0h1v1h-1zm1 0h1v1h-1zm1 0h1v1h-1zm1 0h1v1h-1zm1 0h1v1h-1zm1 0h1v1h-1z"/><path d="M34 26h1v1h-1z"/><path fill="#FFF" d="M35 26h1v1h-1zm1 0h1v1h-1zm1 0h1v1h-1z"/><path d="M38 26h1v1h-1zm1 0h1v1h-1zm1 0h1v1h-1zM0 27h1v1H0z"/><path fill="#FFF" d="M1 27h1v1H1z"/><path d="M2 27h1v1H2z"/><path fill="#FFF" d="M3 27h1v1H3zm1 0h1v1H4zm1 0h1v1H5zm1 0h1v1H6zm1 0h1v1H7zm1 0h1v1H8zm1 0h1v1H9z"/><path d="M10 27h1v1h-1zm1 0h1v1h-1z"/><path fill="#FFF" d="M12 27h1v1h-1z"/><path d="M13 27h1v1h-1z"/><path fill="#FFF" d="M14 27h1v1h-1z"/><path d="M15 27h1v1h-1z"/><path fill="#FFF" d="M16 27h1v1h-1z"/><path d="M17 27h1v1h-1z"/><path fill="#FFF" d="M18 27h1v1h-1z"/><path d="M19 27h1v1h-1z"/><path fill="#FFF" d="M20 27h1v1h-1z"/><path d="M21 27h1v1h-1z"/><path fill="#FFF" d="M22 27h1v1h-1z"/><path d="M23 27h1v1h-1zm1 0h1v1h-1zm1 0h1v1h-1z"/><path fill="#FFF" d="M26 27h1v1h-1zm1 0h1v1h-1zm1 0h1v1h-1zm1 0h1v1h-1zm1 0h1v1h-1zm1 0h1v1h-1zm1 0h1v1h-1zm1 0h1v1h-1z"/><path d="M34 27h1v1h-1z"/><path fill="#FFF" d="M35 27h1v1h-1zm1 0h1v1h-1zm1 0h1v1h-1z"/><path d="M38 27h1v1h-1zm1 0h1v1h-1zm1 0h1v1h-1zM0 28h1v1H0z"/><path fill="#FFF" d="M1 28h1v1H1z"/><path d="M2 28h1v1H2z"/><path fill="#FFF" d="M3 28h1v1H3zm1 0h1v1H4zm1 0h1v1H5zm1 0h1v1H6zm1 0h1v1H7zm1 0h1v1H8zm1 0h1v1H9z"/><path d="M10 28h1v1h-1z"/><path fill="#FFF" d="M11 28h1v1h-1zm1 0h1v1h-1zm1 0h1v1h-1zm1 0h1v1h-1zm1 0h1v1h-1zm1 0h1v1h-1zm1 0h1v1h-1zm1 0h1v1h-1zm1 0h1v1h-1zm1 0h1v1h-1zm1 0h1v1h-1zm1 0h1v1h-1zm1 0h1v1h-1z"/><path d="M24 28h1v1h-1zm1 0h1v1h-1z"/><path fill="#FFF" d="M26 28h1v1h-1zm1 0h1v1h-1zm1 0h1v1h-1zm1 0h1v1h-1zm1 0h1v1h-1zm1 0h1v1h-1zm1 0h1v1h-1zm1 0h1v1h-1z"/><path d="M34 28h1v1h-1z"/><path fill="#FFF" d="M35 28h1v1h-1zm1 0h1v1h-1zm1 0h1v1h-1z"/><path d="M38 28h1v1h-1zm1 0h1v1h-1zm1 0h1v1h-1zM0 29h1v1H0z"/><path fill="#FFF" d="M1 29h1v1H1z"/><path d="M2 29h1v1H2z"/><path fill="#FFF" d="M3 29h1v1H3zm1 0h1v1H4zm1 0h1v1H5zm1 0h1v1H6zm1 0h1v1H7zm1 0h1v1H8zm1 0h1v1H9zm1 0h1v1h-1z"/><path d="M11 29h1v1h-1z"/><path fill="#FFF" d="M12 29h1v1h-1z"/><path d="M13 29h1v1h-1z"/><path fill="#FFF" d="M14 29h1v1h-1z"/><path d="M15 29h1v1h-1z"/><path fill="#FFF" d="M16 29h1v1h-1z"/><path d="M17 29h1v1h-1z"/><path fill="#FFF" d="M18 29h1v1h-1z"/><path d="M19 29h1v1h-1z"/><path fill="#FFF" d="M20 29h1v1h-1z"/><path d="M21 29h1v1h-1z"/><path fill="#FFF" d="M22 29h1v1h-1z"/><path d="M23 29h1v1h-1z"/><path fill="#FFF" d="M24 29h1v1h-1z"/><path d="M25 29h1v1h-1z"/><path fill="#FFF" d="M26 29h1v1h-1zm1 0h1v1h-1zm1 0h1v1h-1zm1 0h1v1h-1zm1 0h1v1h-1zm1 0h1v1h-1zm1 0h1v1h-1zm1 0h1v1h-1z"/><path d="M34 29h1v1h-1z"/><path fill="#FFF" d="M35 29h1v1h-1zm1 0h1v1h-1zm1 0h1v1h-1z"/><path d="M38 29h1v1h-1zm1 0h1v1h-1zm1 0h1v1h-1zM0 30h1v1H0z"/><path fill="#FFF" d="M1 30h1v1H1z"/><path d="M2 30h1v1H2z"/><path fill="#FFF" d="M3 30h1v1H3zm1 0h1v1H4zm1 0h1v1H5zm1 0h1v1H6zm1 0h1v1H7zm1 0h1v1H8zm1 0h1v1H9zm1 0h1v1h-1z"/><path d="M11 30h1v1h-1z"/><path fill="#FFF" d="M12 30h1v1h-1zm1 0h1v1h-1zm1 0h1v1h-1zm1 0h1v1h-1zm1 0h1v1h-1zm1 0h1v1h-1zm1 0h1v1h-1zm1 0h1v1h-1zm1 0h1v1h-1zm1 0h1v1h-1zm1 0h1v1h-1zm1 0h1v1h-1zm1 0h1v1h-1z"/><path d="M25 30h1v1h-1z"/><path fill="#FFF" d="M26 30h1v1h-1zm1 0h1v1h-1zm1 0h1v1h-1zm1 0h1v1h-1zm1 0h1v1h-1zm1 0h1v1h-1zm1 0h1v1h-1zm1 0h1v1h-1z"/><path d="M34 30h1v1h-1z"/><path fill="#FFF" d="M35 30h1v1h-1zm1 0h1v1h-1zm1 0h1v1h-1z"/><path d="M38 30h1v1h-1zm1 0h1v1h-1zm1 0h1v1h-1zM0 31h1v1H0z"/><path fill="#FFF" d="M1 31h1v1H1z"/><path d="M2 31h1v1H2z"/><path fill="#FFF" d="M3 31h1v1H3zm1 0h1v1H4zm1 0h1v1H5zm1 0h1v1H6zm1 0h1v1H7zm1 0h1v1H8zm1 0h1v1H9zm1 0h1v1h-1z"/><path d="M11 31h1v1h-1zm1 0h1v1h-1z"/><path fill="#FFF" d="M13 31h1v1h-1z"/><path d="M14 31h1v1h-1z"/><path fill="#FFF" d="M15 31h1v1h-1z"/><path d="M16 31h1v1h-1z"/><path fill="#FFF" d="M17 31h1v1h-1z"/><path d="M18 31h1v1h-1z"/><path fill="#FFF" d="M19 31h1v1h-1z"/><path d="M20 31h1v1h-1z"/><path fill="#FFF" d="M21 31h1v1h-1z"/><path d="M22 31h1v1h-1z"/><path fill="#FFF" d="M23 31h1v1h-1z"/><path d="M24 31h1v1h-1zm1 0h1v1h-1z"/><path fill="#FFF" d="M26 31h1v1h-1zm1 0h1v1h-1zm1 0h1v1h-1zm1 0h1v1h-1zm1 0h1v1h-1zm1 0h1v1h-1zm1 0h1v1h-1zm1 0h1v1h-1z"/><path d="M34 31h1v1h-1z"/><path fill="#FFF" d="M35 31h1v1h-1zm1 0h1v1h-1zm1 0h1v1h-1z"/><path d="M38 31h1v1h-1zm1 0h1v1h-1zm1 0h1v1h-1zM0 32h1v1H0z"/><path fill="#FFF" d="M1 32h1v1H1z"/><path d="M2 32h1v1H2z"/><path fill="#FFF" d="M3 32h1v1H3zm1 0h1v1H4zm1 0h1v1H5zm1 0h1v1H6zm1 0h1v1H7zm1 0h1v1H8zm1 0h1v1H9zm1 0h1v1h-1z"/><path d="M11 32h1v1h-1z"/><path fill="#FFF" d="M12 32h1v1h-1zm1 0h1v1h-1zm1 0h1v1h-1zm1 0h1v1h-1zm1 0h1v1h-1zm1 0h1v1h-1zm1 0h1v1h-1zm1 0h1v1h-1zm1 0h1v1h-1zm1 0h1v1h-1zm1 0h1v1h-1zm1 0h1v1h-1zm1 0h1v1h-1z"/><path d="M25 32h1v1h-1z"/><path fill="#FFF" d="M26 32h1v1h-1zm1 0h1v1h-1zm1 0h1v1h-1zm1 0h1v1h-1zm1 0h1v1h-1zm1 0h1v1h-1zm1 0h1v1h-1zm1 0h1v1h-1z"/><path d="M34 32h1v1h-1z"/><path fill="#FFF" d="M35 32h1v1h-1zm1 0h1v1h-1zm1 0h1v1h-1z"/><path d="M38 32h1v1h-1zm1 0h1v1h-1zm1 0h1v1h-1zM0 33h1v1H0z"/><path fill="#FFF" d="M1 33h1v1H1z"/><path d="M2 33h1v1H2z"/><path fill="#FFF" d="M3 33h1v1H3zm1 0h1v1H4zm1 0h1v1H5zm1 0h1v1H6zm1 0h1v1H7zm1 0h1v1H8zm1 0h1v1H9zm1 0h1v1h-1z"/><path d="M11 33h1v1h-1zm1 0h1v1h-1z"/><path fill="#FFF" d="M13 33h1v1h-1z"/><path d="M14 33h1v1h-1z"/><path fill="#FFF" d="M15 33h1v1h-1z"/><path d="M16 33h1v1h-1z"/><path fill="#FFF" d="M17 33h1v1h-1z"/><path d="M18 33h1v1h-1z"/><path fill="#FFF" d="M19 33h1v1h-1z"/><path d="M20 33h1v1h-1z"/><path fill="#FFF" d="M21 33h1v1h-1z"/><path d="M22 33h1v1h-1z"/><path fill="#FFF" d="M23 33h1v1h-1z"/><path d="M24 33h1v1h-1zm1 0h1v1h-1z"/><path fill="#FFF" d="M26 33h1v1h-1zm1 0h1v1h-1zm1 0h1v1h-1zm1 0h1v1h-1zm1 0h1v1h-1zm1 0h1v1h-1zm1 0h1v1h-1zm1 0h1v1h-1z"/><path d="M34 33h1v1h-1z"/><path fill="#FFF" d="M35 33h1v1h-1zm1 0h1v1h-1zm1 0h1v1h-1z"/><path d="M38 33h1v1h-1zm1 0h1v1h-1zm1 0h1v1h-1zM0 34h1v1H0z"/><path fill="#FFF" d="M1 34h1v1H1z"/><path d="M2 34h1v1H2z"/><path fill="#FFF" d="M3 34h1v1H3zm1 0h1v1H4zm1 0h1v1H5zm1 0h1v1H6zm1 0h1v1H7zm1 0h1v1H8zm1 0h1v1H9zm1 0h1v1h-1z"/><path d="M11 34h1v1h-1zm1 0h1v1h-1z"/><path fill="#FFF" d="M13 34h1v1h-1zm1 0h1v1h-1zm1 0h1v1h-1zm1 0h1v1h-1zm1 0h1v1h-1zm1 0h1v1h-1zm1 0h1v1h-1zm1 0h1v1h-1zm1 0h1v1h-1zm1 0h1v1h-1zm1 0h1v1h-1zm1 0h1v1h-1z"/><path d="M25 34h1v1h-1z"/><path fill="#FFF" d="M26 34h1v1h-1zm1 0h1v1h-1zm1 0h1v1h-1zm1 0h1v1h-1zm1 0h1v1h-1zm1 0h1v1h-1zm1 0h1v1h-1zm1 0h1v1h-1z"/><path d="M34 34h1v1h-1z"/><path fill="#FFF" d="M35 34h1v1h-1zm1 0h1v1h-1zm1 0h1v1h-1z"/><path d="M38 34h1v1h-1zm1 0h1v1h-1zm1 0h1v1h-1zM0 35h1v1H0z"/><path fill="#FFF" d="M1 35h1v1H1z"/><path d="M2 35h1v1H2z"/><path fill="#FFF" d="M3 35h1v1H3zm1 0h1v1H4zm1 0h1v1H5zm1 0h1v1H6zm1 0h1v1H7zm1 0h1v1H8zm1 0h1v1H9zm1 0h1v1h-1z"/><path d="M11 35h1v1h-1zm1 0h1v1h-1zm1 0h1v1h-1zm1 0h1v1h-1z"/><path fill="#FFF" d="M15 35h1v1h-1z"/><path d="M16 35h1v1h-1z"/><path fill="#FFF" d="M17 35h1v1h-1z"/><path d="M18 35h1v1h-1z"/><path fill="#FFF" d="M19 35h1v1h-1z"/><path d="M20 35h1v1h-1z"/><path fill="#FFF" d="M21 35h1v1h-1z"/><path d="M22 35h1v1h-1z"/><path fill="#FFF" d="M23 35h1v1h-1z"/><path d="M24 35h1v1h-1zm1 0h1v1h-1z"/><path fill="#FFF" d="M26 35h1v1h-1zm1 0h1v1h-1zm1 0h1v1h-1zm1 0h1v1h-1zm1 0h1v1h-1zm1 0h1v1h-1zm1 0h1v1h-1zm1 0h1v1h-1z"/><path d="M34 35h1v1h-1z"/><path fill="#FFF" d="M35 35h1v1h-1zm1 0h1v1h-1zm1 0h1v1h-1z"/><path d="M38 35h1v1h-1zm1 0h1v1h-1zm1 0h1v1h-1zM0 36h1v1H0z"/><path fill="#FFF" d="M1 36h1v1H1z"/><path d="M2 36h1v1H2z"/><path fill="#FFF" d="M3 36h1v1H3zm1 0h1v1H4zm1 0h1v1H5zm1 0h1v1H6zm1 0h1v1H7zm1 0h1v1H8zm1 0h1v1H9zm1 0h1v1h-1z"/><path d="M11 36h1v1h-1zm1 0h1v1h-1zm1 0h1v1h-1zm1 0h1v1h-1zm1 0h1v1h-1zm1 0h1v1h-1zm1 0h1v1h-1zm1 0h1v1h-1zm1 0h1v1h-1zm1 0h1v1h-1zm1 0h1v1h-1zm1 0h1v1h-1zm1 0h1v1h-1zm1 0h1v1h-1zm1 0h1v1h-1z"/><path fill="#FFF" d="M26 36h1v1h-1zm1 0h1v1h-1zm1 0h1v1h-1zm1 0h1v1h-1zm1 0h1v1h-1zm1 0h1v1h-1zm1 0h1v1h-1zm1 0h1v1h-1z"/><path d="M34 36h1v1h-1z"/><path fill="#FFF" d="M35 36h1v1h-1zm1 0h1v1h-1zm1 0h1v1h-1z"/><path d="M38 36h1v1h-1zm1 0h1v1h-1zm1 0h1v1h-1zM0 37h1v1H0z"/><path fill="#FFF" d="M1 37h1v1H1z"/><path d="M2 37h1v1H2z"/><path fill="#FFF" d="M3 37h1v1H3zm1 0h1v1H4z"/><path d="M5 37h1v1H5z"/><path fill="#FFF" d="M6 37h1v1H6zm1 0h1v1H7zm1 0h1v1H8zm1 0h1v1H9zm1 0h1v1h-1zm1 0h1v1h-1zm1 0h1v1h-1zm1 0h1v1h-1zm1 0h1v1h-1zm1 0h1v1h-1zm1 0h1v1h-1zm1 0h1v1h-1zm1 0h1v1h-1zm1 0h1v1h-1zm1 0h1v1h-1zm1 0h1v1h-1zm1 0h1v1h-1zm1 0h1v1h-1zm1 0h1v1h-1zm1 0h1v1h-1zm1 0h1v1h-1zm1 0h1v1h-1zm1 0h1v1h-1zm1 0h1v1h-1zm1 0h1v1h-1z"/><path d="M31 37h1v1h-1z"/><path fill="#FFF" d="M32 37h1v1h-1zm1 0h1v1h-1z"/><path d="M34 37h1v1h-1z"/><path fill="#FFF" d="M35 37h1v1h-1zm1 0h1v1h-1zm1 0h1v1h-1z"/><path d="M38 37h1v1h-1zm1 0h1v1h-1zm1 0h1v1h-1zM0 38h1v1H0z"/><path fill="#FFF" d="M1 38h1v1H1z"/><path d="M2 38h1v1H2z"/><path fill="#FFF" d="M3 38h1v1H3zm1 0h1v1H4zm1 0h1v1H5zm1 0h1v1H6zm1 0h1v1H7zm1 0h1v1H8zm1 0h1v1H9zm1 0h1v1h-1zm1 0h1v1h-1zm1 0h1v1h-1zm1 0h1v1h-1zm1 0h1v1h-1zm1 0h1v1h-1zm1 0h1v1h-1zm1 0h1v1h-1zm1 0h1v1h-1zm1 0h1v1h-1zm1 0h1v1h-1zm1 0h1v1h-1zm1 0h1v1h-1zm1 0h1v1h-1zm1 0h1v1h-1zm1 0h1v1h-1zm1 0h1v1h-1zm1 0h1v1h-1zm1 0h1v1h-1zm1 0h1v1h-1zm1 0h1v1h-1zm1 0h1v1h-1zm1 0h1v1h-1zm1 0h1v1h-1z"/><path d="M34 38h1v1h-1z"/><path fill="#FFF" d="M35 38h1v1h-1zm1 0h1v1h-1zm1 0h1v1h-1z"/><path d="M38 38h1v1h-1zm1 0h1v1h-1zm1 0h1v1h-1zM0 39h1v1H0z"/><path fill="#FFF" d="M1 39h1v1H1z"/><path d="M2 39h1v1H2zm1 0h1v1H3z"/><path fill="#FFF" d="M4 39h1v1H4zm1 0h1v1H5zm1 0h1v1H6zm1 0h1v1H7zm1 0h1v1H8zm1 0h1v1H9zm1 0h1v1h-1zm1 0h1v1h-1zm1 0h1v1h-1zm1 0h1v1h-1zm1 0h1v1h-1zm1 0h1v1h-1zm1 0h1v1h-1zm1 0h1v1h-1zm1 0h1v1h-1zm1 0h1v1h-1zm1 0h1v1h-1zm1 0h1v1h-1zm1 0h1v1h-1zm1 0h1v1h-1zm1 0h1v1h-1zm1 0h1v1h-1zm1 0h1v1h-1zm1 0h1v1h-1zm1 0h1v1h-1zm1 0h1v1h-1zm1 0h1v1h-1zm1 0h1v1h-1zm1 0h1v1h-1z"/><path d="M33 39h1v1h-1zm1 0h1v1h-1zm1 0h1v1h-1zm1 0h1v1h-1z"/><path fill="#FFF" d="M37 39h1v1h-1z"/><path d="M38 39h1v1h-1zm1 0h1v1h-1zm1 0h1v1h-1zM0 40h1v1H0zm1 0h1v1H1z"/><path fill="#FFF" d="M2 40h1v1H2z"/><path d="M3 40h1v1H3zm1 0h1v1H4zm1 0h1v1H5zm1 0h1v1H6zm1 0h1v1H7zm1 0h1v1H8zm1 0h1v1H9zm1 0h1v1h-1zm1 0h1v1h-1zm1 0h1v1h-1zm1 0h1v1h-1zm1 0h1v1h-1zm1 0h1v1h-1zm1 0h1v1h-1zm1 0h1v1h-1zm1 0h1v1h-1zm1 0h1v1h-1zm1 0h1v1h-1zm1 0h1v1h-1zm1 0h1v1h-1zm1 0h1v1h-1zm1 0h1v1h-1zm1 0h1v1h-1zm1 0h1v1h-1zm1 0h1v1h-1zm1 0h1v1h-1zm1 0h1v1h-1zm1 0h1v1h-1zm1 0h1v1h-1zm1 0h1v1h-1zm1 0h1v1h-1z"/><path fill="#FFF" d="M34 40h1v1h-1zm1 0h1v1h-1z"/><path d="M36 40h1v1h-1zm1 0h1v1h-1zm1 0h1v1h-1zm1 0h1v1h-1zm1 0h1v1h-1zM0 41h1v1H0z"/><path fill="#FFF" d="M1 41h1v1H1zm1 0h1v1H2z"/><path d="M3 41h1v1H3z"/><path fill="#FFF" d="M4 41h1v1H4zm1 0h1v1H5zm1 0h1v1H6zm1 0h1v1H7zm1 0h1v1H8zm1 0h1v1H9zm1 0h1v1h-1zm1 0h1v1h-1zm1 0h1v1h-1zm1 0h1v1h-1zm1 0h1v1h-1zm1 0h1v1h-1zm1 0h1v1h-1zm1 0h1v1h-1zm1 0h1v1h-1zm1 0h1v1h-1zm1 0h1v1h-1zm1 0h1v1h-1zm1 0h1v1h-1zm1 0h1v1h-1zm1 0h1v1h-1zm1 0h1v1h-1zm1 0h1v1h-1zm1 0h1v1h-1zm1 0h1v1h-1zm1 0h1v1h-1zm1 0h1v1h-1zm1 0h1v1h-1zm1 0h1v1h-1z"/><path d="M33 41h1v1h-1z"/><path fill="#FFF" d="M34 41h1v1h-1zm1 0h1v1h-1zm1 0h1v1h-1zm1 0h1v1h-1z"/><path d="M38 41h1v1h-1zm1 0h1v1h-1zm1 0h1v1h-1zM0 42h1v1H0z"/><path fill="#FFF" d="M1 42h1v1H1zm1 0h1v1H2z"/><path d="M3 42h1v1H3z"/><path fill="#FFF" d="M4 42h1v1H4zm1 0h1v1H5zm1 0h1v1H6zm1 0h1v1H7zm1 0h1v1H8zm1 0h1v1H9zm1 0h1v1h-1zm1 0h1v1h-1zm1 0h1v1h-1zm1 0h1v1h-1zm1 0h1v1h-1zm1 0h1v1h-1zm1 0h1v1h-1zm1 0h1v1h-1zm1 0h1v1h-1zm1 0h1v1h-1zm1 0h1v1h-1zm1 0h1v1h-1zm1 0h1v1h-1zm1 0h1v1h-1zm1 0h1v1h-1zm1 0h1v1h-1zm1 0h1v1h-1zm1 0h1v1h-1zm1 0h1v1h-1zm1 0h1v1h-1zm1 0h1v1h-1zm1 0h1v1h-1zm1 0h1v1h-1z"/><path d="M33 42h1v1h-1zm1 0h1v1h-1z"/><path fill="#FFF" d="M35 42h1v1h-1zm1 0h1v1h-1z"/><path d="M37 42h1v1h-1zm1 0h1v1h-1zm1 0h1v1h-1zm1 0h1v1h-1zM0 43h1v1H0zm1 0h1v1H1z"/><path fill="#FFF" d="M2 43h1v1H2z"/><path d="M3 43h1v1H3z"/><path fill="#FFF" d="M4 43h1v1H4zm1 0h1v1H5zm1 0h1v1H6zm1 0h1v1H7zm1 0h1v1H8zm1 0h1v1H9zm1 0h1v1h-1zm1 0h1v1h-1zm1 0h1v1h-1zm1 0h1v1h-1zm1 0h1v1h-1zm1 0h1v1h-1zm1 0h1v1h-1zm1 0h1v1h-1zm1 0h1v1h-1zm1 0h1v1h-1zm1 0h1v1h-1zm1 0h1v1h-1zm1 0h1v1h-1zm1 0h1v1h-1zm1 0h1v1h-1zm1 0h1v1h-1zm1 0h1v1h-1zm1 0h1v1h-1zm1 0h1v1h-1zm1 0h1v1h-1zm1 0h1v1h-1zm1 0h1v1h-1zm1 0h1v1h-1zm1 0h1v1h-1z"/><path d="M34 43h1v1h-1z"/><path fill="#FFF" d="M35 43h1v1h-1z"/><path d="M36 43h1v1h-1zm1 0h1v1h-1zm1 0h1v1h-1zm1 0h1v1h-1zm1 0h1v1h-1z"/><path fill="#FFF" d="M0 44h1v1H0z"/><path d="M1 44h1v1H1zm1 0h1v1H2zm1 0h1v1H3zm1 0h1v1H4zm1 0h1v1H5zm1 0h1v1H6zm1 0h1v1H7zm1 0h1v1H8zm1 0h1v1H9zm1 0h1v1h-1zm1 0h1v1h-1zm1 0h1v1h-1zm1 0h1v1h-1zm1 0h1v1h-1zm1 0h1v1h-1zm1 0h1v1h-1zm1 0h1v1h-1zm1 0h1v1h-1zm1 0h1v1h-1zm1 0h1v1h-1zm1 0h1v1h-1zm1 0h1v1h-1zm1 0h1v1h-1zm1 0h1v1h-1zm1 0h1v1h-1zm1 0h1v1h-1zm1 0h1v1h-1zm1 0h1v1h-1zm1 0h1v1h-1zm1 0h1v1h-1zm1 0h1v1h-1zm1 0h1v1h-1zm1 0h1v1h-1zm1 0h1v1h-1zm1 0h1v1h-1zm1 0h1v1h-1zm1 0h1v1h-1zm1 0h1v1h-1zm1 0h1v1h-1zm1 0h1v1h-1z"/><path fill="#FFF" d="M0 45h1v1H0zm1 0h1v1H1z"/><path d="M2 45h1v1H2zm1 0h1v1H3zm1 0h1v1H4zm1 0h1v1H5zm1 0h1v1H6zm1 0h1v1H7zm1 0h1v1H8zm1 0h1v1H9zm1 0h1v1h-1zm1 0h1v1h-1zm1 0h1v1h-1zm1 0h1v1h-1zm1 0h1v1h-1zm1 0h1v1h-1zm1 0h1v1h-1zm1 0h1v1h-1zm1 0h1v1h-1zm1 0h1v1h-1zm1 0h1v1h-1zm1 0h1v1h-1zm1 0h1v1h-1zm1 0h1v1h-1zm1 0h1v1h-1zm1 0h1v1h-1zm1 0h1v1h-1zm1 0h1v1h-1zm1 0h1v1h-1zm1 0h1v1h-1zm1 0h1v1h-1zm1 0h1v1h-1zm1 0h1v1h-1zm1 0h1v1h-1zm1 0h1v1h-1zm1 0h1v1h-1zm1 0h1v1h-1zm1 0h1v1h-1zm1 0h1v1h-1zm1 0h1v1h-1z"/><path fill="#FFF" d="M40 45h1v1h-1zM0 46h1v1H0zm1 0h1v1H1zm1 0h1v1H2z"/><path d="M3 46h1v1H3zm1 0h1v1H4zm1 0h1v1H5zm1 0h1v1H6zm1 0h1v1H7zm1 0h1v1H8zm1 0h1v1H9zm1 0h1v1h-1zm1 0h1v1h-1zm1 0h1v1h-1zm1 0h1v1h-1zm1 0h1v1h-1zm1 0h1v1h-1zm1 0h1v1h-1zm1 0h1v1h-1zm1 0h1v1h-1zm1 0h1v1h-1zm1 0h1v1h-1zm1 0h1v1h-1zm1 0h1v1h-1zm1 0h1v1h-1zm1 0h1v1h-1zm1 0h1v1h-1zm1 0h1v1h-1zm1 0h1v1h-1zm1 0h1v1h-1zm1 0h1v1h-1zm1 0h1v1h-1zm1 0h1v1h-1zm1 0h1v1h-1zm1 0h1v1h-1zm1 0h1v1h-1zm1 0h1v1h-1zm1 0h1v1h-1zm1 0h1v1h-1zm1 0h1v1h-1z"/><path fill="#FFF" d="M39 46h1v1h-1zm1 0h1v1h-1z"/></svg>
