<svg xmlns="http://www.w3.org/2000/svg" shape-rendering="crispEdges" viewBox="0 0 34 38"><path d="M13 0h1v1h-1zm-1 1h1v1h-1z"/><path fill="#FFFACD" d="M13 1h1v1h-1z"/><path d="M14 1h1v1h-1zm-3 1h1v1h-1z"/><path fill="#FFFACD" d="M12 2h1v1h-1zm1 0h1v1h-1zm1 0h1v1h-1z"/><path d="M15 2h1v1h-1zm-5 1h1v1h-1z"/><path fill="#FFFACD" d="M11 3h1v1h-1zm1 0h1v1h-1zm1 0h1v1h-1zm1 0h1v1h-1zm1 0h1v1h-1z"/><path d="M16 3h1v1h-1zM9 4h1v1H9z"/><path fill="#FFFACD" d="M10 4h1v1h-1zm1 0h1v1h-1zm1 0h1v1h-1zm1 0h1v1h-1zm1 0h1v1h-1zm1 0h1v1h-1zm1 0h1v1h-1z"/><path d="M17 4h1v1h-1zM8 5h1v1H8z"/><path fill="#FFFACD" d="M9 5h1v1H9zm1 0h1v1h-1zm1 0h1v1h-1zm1 0h1v1h-1zm1 0h1v1h-1zm1 0h1v1h-1zm1 0h1v1h-1zm1 0h1v1h-1zm1 0h1v1h-1z"/><path d="M18 5h1v1h-1zM7 6h1v1H7z"/><path fill="#FFFACD" d="M8 6h1v1H8zm1 0h1v1H9zm1 0h1v1h-1zm1 0h1v1h-1zm1 0h1v1h-1zm1 0h1v1h-1zm1 0h1v1h-1zm1 0h1v1h-1zm1 0h1v1h-1zm1 0h1v1h-1zm1 0h1v1h-1z"/><path d="M19 6h1v1h-1zM6 7h1v1H6z"/><path fill="#FFFACD" d="M7 7h1v1H7zm1 0h1v1H8zm1 0h1v1H9zm1 0h1v1h-1zm1 0h1v1h-1zm1 0h1v1h-1zm1 0h1v1h-1zm1 0h1v1h-1zm1 0h1v1h-1zm1 0h1v1h-1zm1 0h1v1h-1zm1 0h1v1h-1zm1 0h1v1h-1z"/><path d="M20 7h1v1h-1zM5 8h1v1H5z"/><path fill="#FFFACD" d="M6 8h1v1H6zm1 0h1v1H7zm1 0h1v1H8zm1 0h1v1H9zm1 0h1v1h-1zm1 0h1v1h-1zm1 0h1v1h-1zm1 0h1v1h-1zm1 0h1v1h-1zm1 0h1v1h-1zm1 0h1v1h-1zm1 0h1v1h-1zm1 0h1v1h-1zm1 0h1v1h-1zm1 0h1v1h-1z"/><path d="M21 8h1v1h-1zM4 9h1v1H4z"/><path fill="#FFFACD" d="M5 9h1v1H5zm1 0h1v1H6zm1 0h1v1H7zm1 0h1v1H8zm1 0h1v1H9z"/><path d="M10 9h1v1h-1zm1 0h1v1h-1zm1 0h1v1h-1zm1 0h1v1h-1zm1 0h1v1h-1z"/><path fill="#FFFACD" d="M15 9h1v1h-1zm1 0h1v1h-1zm1 0h1v1h-1zm1 0h1v1h-1zm1 0h1v1h-1zm1 0h1v1h-1zm1 0h1v1h-1z"/><path d="M22 9h1v1h-1zM3 10h1v1H3z"/><path fill="#FFFACD" d="M4 10h1v1H4zm1 0h1v1H5zm1 0h1v1H6zm1 0h1v1H7zm1 0h1v1H8z"/><path d="M9 10h1v1H9z"/><path fill="wheat" d="M10 10h1v1h-1zm1 0h1v1h-1zm1 0h1v1h-1zm1 0h1v1h-1zm1 0h1v1h-1z"/><path d="M15 10h1v1h-1z"/><path fill="#FFFACD" d="M16 10h1v1h-1zm1 0h1v1h-1zm1 0h1v1h-1zm1 0h1v1h-1zm1 0h1v1h-1zm1 0h1v1h-1zm1 0h1v1h-1z"/><path d="M23 10h1v1h-1zM2 11h1v1H2z"/><path fill="#FFFACD" d="M3 11h1v1H3zm1 0h1v1H4zm1 0h1v1H5zm1 0h1v1H6zm1 0h1v1H7z"/><path d="M8 11h1v1H8z"/><path fill="wheat" d="M9 11h1v1H9zm1 0h1v1h-1zm1 0h1v1h-1zm1 0h1v1h-1zm1 0h1v1h-1zm1 0h1v1h-1zm1 0h1v1h-1z"/><path d="M16 11h1v1h-1z"/><path fill="#FFFACD" d="M17 11h1v1h-1zm1 0h1v1h-1zm1 0h1v1h-1zm1 0h1v1h-1zm1 0h1v1h-1zm1 0h1v1h-1zm1 0h1v1h-1z"/><path d="M24 11h1v1h-1zM1 12h1v1H1z"/><path fill="#FFFACD" d="M2 12h1v1H2zm1 0h1v1H3zm1 0h1v1H4zm1 0h1v1H5zm1 0h1v1H6z"/><path d="M7 12h1v1H7z"/><path fill="wheat" d="M8 12h1v1H8zm1 0h1v1H9z"/><path d="M10 12h1v1h-1zm1 0h1v1h-1z"/><path fill="wheat" d="M12 12h1v1h-1zm1 0h1v1h-1zm1 0h1v1h-1zm1 0h1v1h-1zm1 0h1v1h-1z"/><path d="M17 12h1v1h-1z"/><path fill="#FFFACD" d="M18 12h1v1h-1zm1 0h1v1h-1zm1 0h1v1h-1zm1 0h1v1h-1zm1 0h1v1h-1zm1 0h1v1h-1zm1 0h1v1h-1z"/><path d="M25 12h1v1h-1zM0 13h1v1H0z"/><path fill="#FFFACD" d="M1 13h1v1H1zm1 0h1v1H2zm1 0h1v1H3zm1 0h1v1H4zm1 0h1v1H5zm1 0h1v1H6z"/><path d="M7 13h1v1H7zm1 0h1v1H8zm1 0h1v1H9z"/><path fill="#FFFACD" d="M10 13h1v1h-1zm1 0h1v1h-1z"/><path d="M12 13h1v1h-1z"/><path fill="wheat" d="M13 13h1v1h-1zm1 0h1v1h-1zm1 0h1v1h-1zm1 0h1v1h-1zm1 0h1v1h-1z"/><path d="M18 13h1v1h-1z"/><path fill="#FFFACD" d="M19 13h1v1h-1zm1 0h1v1h-1zm1 0h1v1h-1zm1 0h1v1h-1zm1 0h1v1h-1zm1 0h1v1h-1zm1 0h1v1h-1z"/><path d="M26 13h1v1h-1zM1 14h1v1H1z"/><path fill="#FFFACD" d="M2 14h1v1H2zm1 0h1v1H3zm1 0h1v1H4z"/><path d="M5 14h1v1H5zm1 0h1v1H6z"/><path fill="wheat" d="M7 14h1v1H7zm1 0h1v1H8z"/><path d="M9 14h1v1H9zm1 0h1v1h-1zm1 0h1v1h-1zm1 0h1v1h-1zm1 0h1v1h-1zm1 0h1v1h-1zm1 0h1v1h-1zm1 0h1v1h-1z"/><path fill="wheat" d="M17 14h1v1h-1zm1 0h1v1h-1z"/><path d="M19 14h1v1h-1zm1 0h1v1h-1zm1 0h1v1h-1zm1 0h1v1h-1zm1 0h1v1h-1zm1 0h1v1h-1zm1 0h1v1h-1zm1 0h1v1h-1zm1 0h1v1h-1zm1 0h1v1h-1zm1 0h1v1h-1zm1 0h1v1h-1zm1 0h1v1h-1zm1 0h1v1h-1zm1 0h1v1h-1zM2 15h1v1H2z"/><path fill="#FFFACD" d="M3 15h1v1H3zm1 0h1v1H4zm1 0h1v1H5zm1 0h1v1H6z"/><path d="M7 15h1v1H7z"/><path fill="wheat" d="M8 15h1v1H8zm1 0h1v1H9z"/><path d="M10 15h1v1h-1zm1 0h1v1h-1z"/><path fill="wheat" d="M12 15h1v1h-1zm1 0h1v1h-1zm1 0h1v1h-1zm1 0h1v1h-1zm1 0h1v1h-1zm1 0h1v1h-1zm1 0h1v1h-1zm1 0h1v1h-1z"/><path d="M20 15h1v1h-1z"/><path fill="#1E90FF" d="M21 15h1v1h-1z"/><path d="M22 15h1v1h-1zm1 0h1v1h-1zm1 0h1v1h-1zm1 0h1v1h-1zm1 0h1v1h-1zm1 0h1v1h-1zm1 0h1v1h-1zm1 0h1v1h-1zm1 0h1v1h-1zm1 0h1v1h-1zm1 0h1v1h-1zm1 0h1v1h-1zM3 16h1v1H3z"/><path fill="#FFFACD" d="M4 16h1v1H4zm1 0h1v1H5zm1 0h1v1H6z"/><path d="M7 16h1v1H7zm1 0h1v1H8zm1 0h1v1H9z"/><path fill="wheat" d="M10 16h1v1h-1zm1 0h1v1h-1zm1 0h1v1h-1zm1 0h1v1h-1zm1 0h1v1h-1zm1 0h1v1h-1zm1 0h1v1h-1zm1 0h1v1h-1zm1 0h1v1h-1zm1 0h1v1h-1z"/><path d="M20 16h1v1h-1z"/><path fill="#1E90FF" d="M21 16h1v1h-1zm1 0h1v1h-1zm1 0h1v1h-1zm1 0h1v1h-1zm1 0h1v1h-1zm1 0h1v1h-1zm1 0h1v1h-1zm1 0h1v1h-1zm1 0h1v1h-1zm1 0h1v1h-1zm1 0h1v1h-1zm1 0h1v1h-1zm1 0h1v1h-1z"/><path d="M4 17h1v1H4z"/><path fill="#FFFACD" d="M5 17h1v1H5zm1 0h1v1H6zm1 0h1v1H7z"/><path d="M8 17h1v1H8zm1 0h1v1H9zm1 0h1v1h-1zm1 0h1v1h-1z"/><path fill="wheat" d="M12 17h1v1h-1zm1 0h1v1h-1zm1 0h1v1h-1zm1 0h1v1h-1zm1 0h1v1h-1zm1 0h1v1h-1zm1 0h1v1h-1zm1 0h1v1h-1z"/><path d="M20 17h1v1h-1z"/><path fill="#1E90FF" d="M21 17h1v1h-1zm1 0h1v1h-1zm1 0h1v1h-1zm1 0h1v1h-1zm1 0h1v1h-1zm1 0h1v1h-1zm1 0h1v1h-1zm1 0h1v1h-1zm1 0h1v1h-1zm1 0h1v1h-1zm1 0h1v1h-1zm1 0h1v1h-1zm1 0h1v1h-1z"/><path d="M5 18h1v1H5z"/><path fill="#FFFACD" d="M6 18h1v1H6zm1 0h1v1H7zm1 0h1v1H8z"/><path d="M9 18h1v1H9zm1 0h1v1h-1zm1 0h1v1h-1zm1 0h1v1h-1zm1 0h1v1h-1zm1 0h1v1h-1zm1 0h1v1h-1zm1 0h1v1h-1zm1 0h1v1h-1zm1 0h1v1h-1z"/><path fill="wheat" d="M19 18h1v1h-1z"/><path d="M20 18h1v1h-1z"/><path fill="#1E90FF" d="M21 18h1v1h-1zm1 0h1v1h-1zm1 0h1v1h-1zm1 0h1v1h-1zm1 0h1v1h-1zm1 0h1v1h-1zm1 0h1v1h-1zm1 0h1v1h-1zm1 0h1v1h-1zm1 0h1v1h-1zm1 0h1v1h-1zm1 0h1v1h-1zm1 0h1v1h-1z"/><path d="M6 19h1v1H6z"/><path fill="#FFFACD" d="M7 19h1v1H7zm1 0h1v1H8zm1 0h1v1H9z"/><path d="M10 19h1v1h-1zm1 0h1v1h-1zm1 0h1v1h-1zm1 0h1v1h-1zm1 0h1v1h-1zm1 0h1v1h-1zm1 0h1v1h-1zm1 0h1v1h-1zm1 0h1v1h-1zm1 0h1v1h-1zm1 0h1v1h-1z"/><path fill="#1E90FF" d="M21 19h1v1h-1zm1 0h1v1h-1zm1 0h1v1h-1zm1 0h1v1h-1zm1 0h1v1h-1zm1 0h1v1h-1zm1 0h1v1h-1zm1 0h1v1h-1zm1 0h1v1h-1zm1 0h1v1h-1zm1 0h1v1h-1zm1 0h1v1h-1zm1 0h1v1h-1z"/><path d="M7 20h1v1H7z"/><path fill="#FFFACD" d="M8 20h1v1H8zm1 0h1v1H9zm1 0h1v1h-1zm1 0h1v1h-1z"/><path d="M12 20h1v1h-1zm1 0h1v1h-1z"/><path fill="#FFFACD" d="M14 20h1v1h-1zm1 0h1v1h-1zm1 0h1v1h-1zm1 0h1v1h-1z"/><path d="M18 20h1v1h-1zm1 0h1v1h-1zm1 0h1v1h-1zm1 0h1v1h-1zm1 0h1v1h-1zm1 0h1v1h-1zm1 0h1v1h-1zm1 0h1v1h-1zm1 0h1v1h-1zm1 0h1v1h-1zm1 0h1v1h-1zm1 0h1v1h-1zm1 0h1v1h-1zm1 0h1v1h-1zm1 0h1v1h-1zm1 0h1v1h-1zM8 21h1v1H8z"/><path fill="#FFFACD" d="M9 21h1v1H9zm1 0h1v1h-1zm1 0h1v1h-1zm1 0h1v1h-1zm1 0h1v1h-1zm1 0h1v1h-1zm1 0h1v1h-1zm1 0h1v1h-1zm1 0h1v1h-1zm1 0h1v1h-1z"/><path d="M19 21h1v1h-1zm1 0h1v1h-1zm1 0h1v1h-1z"/><path fill="#2E8B57" d="M22 21h1v1h-1zm1 0h1v1h-1zm1 0h1v1h-1zm1 0h1v1h-1zm1 0h1v1h-1zm1 0h1v1h-1zm1 0h1v1h-1z"/><path fill="#2F4F4F" d="M29 21h1v1h-1zm1 0h1v1h-1z"/><path d="M9 22h1v1H9z"/><path fill="#FFFACD" d="M10 22h1v1h-1zm1 0h1v1h-1zm1 0h1v1h-1zm1 0h1v1h-1zm1 0h1v1h-1zm1 0h1v1h-1zm1 0h1v1h-1zm1 0h1v1h-1zm1 0h1v1h-1z"/><path d="M19 22h1v1h-1zm1 0h1v1h-1z"/><path fill="#2E8B57" d="M21 22h1v1h-1zm1 0h1v1h-1zm1 0h1v1h-1zm1 0h1v1h-1zm1 0h1v1h-1zm1 0h1v1h-1zm1 0h1v1h-1zm1 0h1v1h-1zm1 0h1v1h-1zm1 0h1v1h-1z"/><path d="M31 22h1v1h-1zm1 0h1v1h-1zm-22 1h1v1h-1z"/><path fill="#FFFACD" d="M11 23h1v1h-1zm1 0h1v1h-1zm1 0h1v1h-1zm1 0h1v1h-1zm1 0h1v1h-1zm1 0h1v1h-1zm1 0h1v1h-1z"/><path d="M18 23h1v1h-1zm1 0h1v1h-1z"/><path fill="#2E8B57" d="M20 23h1v1h-1zm1 0h1v1h-1zm1 0h1v1h-1zm1 0h1v1h-1zm1 0h1v1h-1zm1 0h1v1h-1zm1 0h1v1h-1zm1 0h1v1h-1zm1 0h1v1h-1zm1 0h1v1h-1zm1 0h1v1h-1zm1 0h1v1h-1zm1 0h1v1h-1z"/><path d="M33 23h1v1h-1zM8 24h1v1H8zm1 0h1v1H9zm1 0h1v1h-1zm1 0h1v1h-1z"/><path fill="#FFFACD" d="M12 24h1v1h-1zm1 0h1v1h-1zm1 0h1v1h-1zm1 0h1v1h-1zm1 0h1v1h-1z"/><path d="M17 24h1v1h-1zm1 0h1v1h-1z"/><path fill="#2E8B57" d="M19 24h1v1h-1zm1 0h1v1h-1zm1 0h1v1h-1zm1 0h1v1h-1zm1 0h1v1h-1zm1 0h1v1h-1zm1 0h1v1h-1zm1 0h1v1h-1zm1 0h1v1h-1zm1 0h1v1h-1zm1 0h1v1h-1zm1 0h1v1h-1z"/><path d="M31 24h1v1h-1zm1 0h1v1h-1zM6 25h1v1H6zm1 0h1v1H7z"/><path fill="#2F4F4F" d="M8 25h1v1H8zm1 0h1v1H9zm1 0h1v1h-1z"/><path d="M11 25h1v1h-1zm1 0h1v1h-1z"/><path fill="#FFFACD" d="M13 25h1v1h-1zm1 0h1v1h-1zm1 0h1v1h-1z"/><path d="M16 25h1v1h-1zm1 0h1v1h-1z"/><path fill="#2E8B57" d="M18 25h1v1h-1zm1 0h1v1h-1zm1 0h1v1h-1zm1 0h1v1h-1zm1 0h1v1h-1zm1 0h1v1h-1zm1 0h1v1h-1zm1 0h1v1h-1zm1 0h1v1h-1zm1 0h1v1h-1zm1 0h1v1h-1z"/><path d="M29 25h1v1h-1zm1 0h1v1h-1zM4 26h1v1H4zm1 0h1v1H5z"/><path fill="#2E8B57" d="M6 26h1v1H6zm1 0h1v1H7z"/><path fill="#2F4F4F" d="M8 26h1v1H8zm1 0h1v1H9zm1 0h1v1h-1zm1 0h1v1h-1z"/><path d="M12 26h1v1h-1zm1 0h1v1h-1z"/><path fill="#FFFACD" d="M14 26h1v1h-1z"/><path d="M15 26h1v1h-1zm1 0h1v1h-1z"/><path fill="#2E8B57" d="M17 26h1v1h-1zm1 0h1v1h-1zm1 0h1v1h-1zm1 0h1v1h-1zm1 0h1v1h-1zm1 0h1v1h-1zm1 0h1v1h-1zm1 0h1v1h-1zm1 0h1v1h-1zm1 0h1v1h-1z"/><path d="M27 26h1v1h-1zm1 0h1v1h-1z"/><path fill="#708090" d="M29 26h1v1h-1z"/><path d="M2 27h1v1H2zm1 0h1v1H3z"/><path fill="#2E8B57" d="M4 27h1v1H4zm1 0h1v1H5zm1 0h1v1H6zm1 0h1v1H7zm1 0h1v1H8zm1 0h1v1H9zm1 0h1v1h-1z"/><path fill="#2F4F4F" d="M11 27h1v1h-1zm1 0h1v1h-1z"/><path d="M13 27h1v1h-1zm1 0h1v1h-1zm1 0h1v1h-1z"/><path fill="#2E8B57" d="M16 27h1v1h-1zm1 0h1v1h-1zm1 0h1v1h-1zm1 0h1v1h-1zm1 0h1v1h-1zm1 0h1v1h-1zm1 0h1v1h-1zm1 0h1v1h-1zm1 0h1v1h-1z"/><path d="M25 27h1v1h-1zm1 0h1v1h-1z"/><path fill="#708090" d="M27 27h1v1h-1zm1 0h1v1h-1zm1 0h1v1h-1zm1 0h1v1h-1zm1 0h1v1h-1z"/><path d="M1 28h1v1H1z"/><path fill="#2E8B57" d="M2 28h1v1H2zm1 0h1v1H3zm1 0h1v1H4zm1 0h1v1H5zm1 0h1v1H6zm1 0h1v1H7zm1 0h1v1H8zm1 0h1v1H9zm1 0h1v1h-1zm1 0h1v1h-1zm1 0h1v1h-1zm1 0h1v1h-1zm1 0h1v1h-1zm1 0h1v1h-1zm1 0h1v1h-1zm1 0h1v1h-1zm1 0h1v1h-1zm1 0h1v1h-1zm1 0h1v1h-1zm1 0h1v1h-1zm1 0h1v1h-1z"/><path d="M23 28h1v1h-1zm1 0h1v1h-1z"/><path fill="#708090" d="M25 28h1v1h-1zm1 0h1v1h-1zm1 0h1v1h-1zm1 0h1v1h-1zm1 0h1v1h-1z"/><path d="M1 29h1v1H1zm1 0h1v1H2z"/><path fill="#2E8B57" d="M3 29h1v1H3zm1 0h1v1H4zm1 0h1v1H5zm1 0h1v1H6zm1 0h1v1H7zm1 0h1v1H8zm1 0h1v1H9zm1 0h1v1h-1zm1 0h1v1h-1zm1 0h1v1h-1zm1 0h1v1h-1zm1 0h1v1h-1zm1 0h1v1h-1zm1 0h1v1h-1zm1 0h1v1h-1zm1 0h1v1h-1zm1 0h1v1h-1zm1 0h1v1h-1z"/><path d="M21 29h1v1h-1zm1 0h1v1h-1z"/><path fill="#708090" d="M23 29h1v1h-1zm1 0h1v1h-1zm1 0h1v1h-1zm1 0h1v1h-1zm1 0h1v1h-1z"/><path d="M3 30h1v1H3zm1 0h1v1H4z"/><path fill="#2E8B57" d="M5 30h1v1H5zm1 0h1v1H6zm1 0h1v1H7zm1 0h1v1H8zm1 0h1v1H9zm1 0h1v1h-1zm1 0h1v1h-1zm1 0h1v1h-1zm1 0h1v1h-1zm1 0h1v1h-1zm1 0h1v1h-1zm1 0h1v1h-1zm1 0h1v1h-1zm1 0h1v1h-1z"/><path d="M19 30h1v1h-1zm1 0h1v1h-1z"/><path fill="#708090" d="M21 30h1v1h-1zm1 0h1v1h-1zm1 0h1v1h-1zm1 0h1v1h-1zm1 0h1v1h-1zM2 31h1v1H2zm1 0h1v1H3zm1 0h1v1H4z"/><path d="M5 31h1v1H5zm1 0h1v1H6z"/><path fill="#2E8B57" d="M7 31h1v1H7zm1 0h1v1H8zm1 0h1v1H9zm1 0h1v1h-1zm1 0h1v1h-1zm1 0h1v1h-1zm1 0h1v1h-1zm1 0h1v1h-1zm1 0h1v1h-1zm1 0h1v1h-1z"/><path d="M17 31h1v1h-1zm1 0h1v1h-1z"/><path fill="#708090" d="M19 31h1v1h-1zm1 0h1v1h-1zm1 0h1v1h-1zm1 0h1v1h-1zm1 0h1v1h-1zM1 32h1v1H1zm1 0h1v1H2zm1 0h1v1H3zm1 0h1v1H4zm1 0h1v1H5zm1 0h1v1H6z"/><path d="M7 32h1v1H7zm1 0h1v1H8z"/><path fill="#2E8B57" d="M9 32h1v1H9zm1 0h1v1h-1zm1 0h1v1h-1zm1 0h1v1h-1zm1 0h1v1h-1zm1 0h1v1h-1z"/><path d="M15 32h1v1h-1zm1 0h1v1h-1z"/><path fill="#708090" d="M17 32h1v1h-1zm1 0h1v1h-1zm1 0h1v1h-1zm1 0h1v1h-1zm1 0h1v1h-1zM2 33h1v1H2zm1 0h1v1H3zm1 0h1v1H4zm1 0h1v1H5zm1 0h1v1H6zm1 0h1v1H7zm1 0h1v1H8z"/><path d="M9 33h1v1H9zm1 0h1v1h-1z"/><path fill="#2E8B57" d="M11 33h1v1h-1zm1 0h1v1h-1z"/><path d="M13 33h1v1h-1zm1 0h1v1h-1z"/><path fill="#708090" d="M15 33h1v1h-1zm1 0h1v1h-1zm1 0h1v1h-1zm1 0h1v1h-1zm1 0h1v1h-1zM4 34h1v1H4zm1 0h1v1H5zm1 0h1v1H6zm1 0h1v1H7zm1 0h1v1H8zm1 0h1v1H9zm1 0h1v1h-1z"/><path d="M11 34h1v1h-1zm1 0h1v1h-1z"/><path fill="#708090" d="M13 34h1v1h-1zm1 0h1v1h-1zm1 0h1v1h-1zm1 0h1v1h-1zm1 0h1v1h-1zM6 35h1v1H6zm1 0h1v1H7zm1 0h1v1H8zm1 0h1v1H9zm1 0h1v1h-1zm1 0h1v1h-1zm1 0h1v1h-1zm1 0h1v1h-1zm1 0h1v1h-1zm1 0h1v1h-1zm-7 1h1v1H8zm1 0h1v1H9zm1 0h1v1h-1zm1 0h1v1h-1zm1 0h1v1h-1zm1 0h1v1h-1zm-3 1h1v1h-1zm1 0h1v1h-1z"/></svg>
